<svg width="48" height="49" viewBox="0 0 48 49" fill="none" xmlns="http://www.w3.org/2000/svg">
<rect y="0.938477" width="48" height="48" rx="8" fill="#AF85C7"/>
<g clip-path="url(#clip0_6595_6935)">
<path fill-rule="evenodd" clip-rule="evenodd" d="M36 24.9385C36 31.5659 30.6274 36.9385 24 36.9385C17.3726 36.9385 12 31.5659 12 24.9385C12 18.3111 17.3726 12.9385 24 12.9385C30.6274 12.9385 36 18.3111 36 24.9385ZM24.43 21.7974C23.2628 22.2829 20.9301 23.2877 17.4319 24.8118C16.8638 25.0377 16.5663 25.2587 16.5392 25.4748C16.4934 25.84 16.9507 25.9838 17.5735 26.1796C17.6582 26.2062 17.746 26.2338 17.8359 26.2631C18.4486 26.4622 19.2728 26.6953 19.7013 26.7045C20.0899 26.7129 20.5237 26.5527 21.0026 26.2238C24.2712 24.0175 25.9584 22.9023 26.0643 22.8782C26.139 22.8613 26.2426 22.84 26.3128 22.9023C26.3829 22.9647 26.376 23.0828 26.3686 23.1145C26.3233 23.3076 24.5281 24.9766 23.5991 25.8403C23.3095 26.1095 23.1041 26.3005 23.0621 26.3441C22.968 26.4418 22.8721 26.5342 22.78 26.6231C22.2108 27.1718 21.7839 27.5833 22.8036 28.2553C23.2936 28.5782 23.6858 28.8452 24.077 29.1116C24.5042 29.4026 24.9303 29.6927 25.4816 30.0541C25.6221 30.1462 25.7562 30.2419 25.8869 30.335C26.3841 30.6895 26.8307 31.0079 27.3826 30.9571C27.7032 30.9276 28.0345 30.6261 28.2027 29.7268C28.6002 27.6016 29.3816 22.9969 29.5622 21.0995C29.578 20.9332 29.5581 20.7204 29.5422 20.6271C29.5262 20.5337 29.4928 20.4006 29.3714 20.3021C29.2276 20.1854 29.0056 20.1608 28.9064 20.1626C28.455 20.1705 27.7626 20.4113 24.43 21.7974Z" fill="white"/>
</g>
<defs>
<clipPath id="clip0_6595_6935">
<rect width="24" height="24" fill="white" transform="translate(12 12.9385)"/>
</clipPath>
</defs>
</svg>
