<svg width="48" height="49" viewBox="0 0 48 49" fill="none" xmlns="http://www.w3.org/2000/svg">
<rect y="0.938477" width="48" height="48" rx="8" fill="#AF85C7"/>
<g clip-path="url(#clip0_6595_6930)">
<path d="M24 15.0994C27.2063 15.0994 27.5859 15.1135 28.8469 15.1697C30.0188 15.2213 30.6516 15.4182 31.0734 15.5822C31.6313 15.7979 32.0344 16.0604 32.4516 16.4775C32.8734 16.8994 33.1313 17.2979 33.3469 17.8557C33.5109 18.2775 33.7078 18.915 33.7594 20.0822C33.8156 21.3479 33.8297 21.7275 33.8297 24.9291C33.8297 28.1354 33.8156 28.515 33.7594 29.776C33.7078 30.9479 33.5109 31.5807 33.3469 32.0025C33.1313 32.5604 32.8687 32.9635 32.4516 33.3807C32.0297 33.8025 31.6313 34.0604 31.0734 34.276C30.6516 34.44 30.0141 34.6369 28.8469 34.6885C27.5813 34.7447 27.2016 34.7588 24 34.7588C20.7938 34.7588 20.4141 34.7447 19.1531 34.6885C17.9813 34.6369 17.3484 34.44 16.9266 34.276C16.3688 34.0604 15.9656 33.7979 15.5484 33.3807C15.1266 32.9588 14.8688 32.5604 14.6531 32.0025C14.4891 31.5807 14.2922 30.9432 14.2406 29.776C14.1844 28.5104 14.1703 28.1307 14.1703 24.9291C14.1703 21.7229 14.1844 21.3432 14.2406 20.0822C14.2922 18.9104 14.4891 18.2775 14.6531 17.8557C14.8688 17.2979 15.1313 16.8947 15.5484 16.4775C15.9703 16.0557 16.3688 15.7979 16.9266 15.5822C17.3484 15.4182 17.9859 15.2213 19.1531 15.1697C20.4141 15.1135 20.7938 15.0994 24 15.0994ZM24 12.9385C20.7422 12.9385 20.3344 12.9525 19.0547 13.0088C17.7797 13.065 16.9031 13.2713 16.1438 13.5666C15.3516 13.876 14.6813 14.2838 14.0156 14.9541C13.3453 15.6197 12.9375 16.29 12.6281 17.0775C12.3328 17.8416 12.1266 18.7135 12.0703 19.9885C12.0141 21.2729 12 21.6807 12 24.9385C12 28.1963 12.0141 28.6041 12.0703 29.8838C12.1266 31.1588 12.3328 32.0354 12.6281 32.7947C12.9375 33.5869 13.3453 34.2572 14.0156 34.9229C14.6813 35.5885 15.3516 36.001 16.1391 36.3057C16.9031 36.601 17.775 36.8072 19.05 36.8635C20.3297 36.9197 20.7375 36.9338 23.9953 36.9338C27.2531 36.9338 27.6609 36.9197 28.9406 36.8635C30.2156 36.8072 31.0922 36.601 31.8516 36.3057C32.6391 36.001 33.3094 35.5885 33.975 34.9229C34.6406 34.2572 35.0531 33.5869 35.3578 32.7994C35.6531 32.0354 35.8594 31.1635 35.9156 29.8885C35.9719 28.6088 35.9859 28.201 35.9859 24.9432C35.9859 21.6854 35.9719 21.2775 35.9156 19.9979C35.8594 18.7229 35.6531 17.8463 35.3578 17.0869C35.0625 16.29 34.6547 15.6197 33.9844 14.9541C33.3188 14.2885 32.6484 13.876 31.8609 13.5713C31.0969 13.276 30.225 13.0697 28.95 13.0135C27.6656 12.9525 27.2578 12.9385 24 12.9385Z" fill="white"/>
<path d="M24 18.7744C20.5969 18.7744 17.8359 21.5354 17.8359 24.9385C17.8359 28.3416 20.5969 31.1025 24 31.1025C27.4031 31.1025 30.1641 28.3416 30.1641 24.9385C30.1641 21.5354 27.4031 18.7744 24 18.7744ZM24 28.9369C21.7922 28.9369 20.0016 27.1463 20.0016 24.9385C20.0016 22.7307 21.7922 20.94 24 20.94C26.2078 20.94 27.9984 22.7307 27.9984 24.9385C27.9984 27.1463 26.2078 28.9369 24 28.9369Z" fill="white"/>
<path d="M31.8469 18.5306C31.8469 19.3275 31.2 19.9697 30.4078 19.9697C29.6109 19.9697 28.9688 19.3228 28.9688 18.5306C28.9688 17.7337 29.6156 17.0916 30.4078 17.0916C31.2 17.0916 31.8469 17.7384 31.8469 18.5306Z" fill="white"/>
</g>
<defs>
<clipPath id="clip0_6595_6930">
<rect width="24" height="24" fill="white" transform="translate(12 12.9385)"/>
</clipPath>
</defs>
</svg>
