<svg width="22" height="22" viewBox="0 0 22 22" fill="none" xmlns="http://www.w3.org/2000/svg">
<path d="M12.0017 13.75H11.0017C10.5917 13.75 10.2517 13.41 10.2517 13C10.2517 12.59 10.5917 12.25 11.0017 12.25H12.0017C12.6917 12.25 13.2517 11.69 13.2517 11V1.75H5.00173C3.82173 1.75 2.7417 2.38998 2.1617 3.41998C1.9617 3.77998 1.50175 3.91002 1.14175 3.71002C0.781745 3.51002 0.651706 3.05 0.851706 2.69C1.69171 1.19 3.28173 0.25 5.00173 0.25H14.0017C14.4117 0.25 14.7517 0.59 14.7517 1V11C14.7517 12.52 13.5217 13.75 12.0017 13.75Z" fill="white"/>
<path d="M18 19.75H17C16.59 19.75 16.25 19.41 16.25 19C16.25 18.31 15.69 17.75 15 17.75C14.31 17.75 13.75 18.31 13.75 19C13.75 19.41 13.41 19.75 13 19.75H9C8.59 19.75 8.25 19.41 8.25 19C8.25 18.31 7.69 17.75 7 17.75C6.31 17.75 5.75 18.31 5.75 19C5.75 19.41 5.41 19.75 5 19.75H4C1.93 19.75 0.25 18.07 0.25 16C0.25 15.59 0.59 15.25 1 15.25C1.41 15.25 1.75 15.59 1.75 16C1.75 17.24 2.76 18.25 4 18.25H4.34998C4.67998 17.1 5.74 16.25 7 16.25C8.26 16.25 9.32002 17.1 9.65002 18.25H12.36C12.69 17.1 13.75 16.25 15.01 16.25C16.27 16.25 17.33 17.1 17.66 18.25H18C19.24 18.25 20.25 17.24 20.25 16V13.75H18C17.04 13.75 16.25 12.96 16.25 12V9C16.25 8.04 17.03 7.25 18 7.25L16.93 5.38C16.71 4.99 16.29 4.75 15.84 4.75H14.75V11C14.75 12.52 13.52 13.75 12 13.75H11C10.59 13.75 10.25 13.41 10.25 13C10.25 12.59 10.59 12.25 11 12.25H12C12.69 12.25 13.25 11.69 13.25 11V4C13.25 3.59 13.59 3.25 14 3.25H15.84C16.83 3.25 17.74 3.78001 18.23 4.64001L19.94 7.63C20.07 7.86 20.07 8.15 19.94 8.38C19.81 8.61 19.56 8.75 19.29 8.75H18C17.86 8.75 17.75 8.86 17.75 9V12C17.75 12.14 17.86 12.25 18 12.25H21C21.41 12.25 21.75 12.59 21.75 13V16C21.75 18.07 20.07 19.75 18 19.75Z" fill="white"/>
<path d="M7 21.75C5.48 21.75 4.25 20.52 4.25 19C4.25 17.48 5.48 16.25 7 16.25C8.52 16.25 9.75 17.48 9.75 19C9.75 20.52 8.52 21.75 7 21.75ZM7 17.75C6.31 17.75 5.75 18.31 5.75 19C5.75 19.69 6.31 20.25 7 20.25C7.69 20.25 8.25 19.69 8.25 19C8.25 18.31 7.69 17.75 7 17.75Z" fill="white"/>
<path d="M15 21.75C13.48 21.75 12.25 20.52 12.25 19C12.25 17.48 13.48 16.25 15 16.25C16.52 16.25 17.75 17.48 17.75 19C17.75 20.52 16.52 21.75 15 21.75ZM15 17.75C14.31 17.75 13.75 18.31 13.75 19C13.75 19.69 14.31 20.25 15 20.25C15.69 20.25 16.25 19.69 16.25 19C16.25 18.31 15.69 17.75 15 17.75Z" fill="white"/>
<path d="M21 13.75H18C17.04 13.75 16.25 12.96 16.25 12V9C16.25 8.04 17.04 7.25 18 7.25H19.29C19.56 7.25 19.81 7.39 19.94 7.63L21.65 10.63C21.71 10.74 21.75 10.87 21.75 11V13C21.75 13.41 21.41 13.75 21 13.75ZM18 8.75C17.86 8.75 17.75 8.86 17.75 9V12C17.75 12.14 17.86 12.25 18 12.25H20.25V11.2L18.85 8.75H18Z" fill="white"/>
<path d="M7 7.75H1C0.59 7.75 0.25 7.41 0.25 7C0.25 6.59 0.59 6.25 1 6.25H7C7.41 6.25 7.75 6.59 7.75 7C7.75 7.41 7.41 7.75 7 7.75Z" fill="white"/>
<path d="M5 10.75H1C0.59 10.75 0.25 10.41 0.25 10C0.25 9.59 0.59 9.25 1 9.25H5C5.41 9.25 5.75 9.59 5.75 10C5.75 10.41 5.41 10.75 5 10.75Z" fill="white"/>
<path d="M3 13.75H1C0.59 13.75 0.25 13.41 0.25 13C0.25 12.59 0.59 12.25 1 12.25H3C3.41 12.25 3.75 12.59 3.75 13C3.75 13.41 3.41 13.75 3 13.75Z" fill="white"/>
</svg>
