<svg width="32" height="20" viewBox="0 0 32 20" fill="none" xmlns="http://www.w3.org/2000/svg">
<path d="M4.43696 6.70483C4.99299 6.23206 5.16093 5.51797 5.16093 4.82223C5.16093 3.69041 4.41014 3.19929 3.43638 2.9114L2.97208 2.77169C2.65738 2.67008 2.16485 2.51202 2.16485 2.10417C2.16485 1.71466 2.60939 1.51991 2.94386 1.51991C3.10897 1.51991 3.27127 1.54531 3.4265 1.59189C3.8908 1.72878 4.38756 1.5185 4.60913 1.08807L4.86739 0.584256C4.87021 0.578611 4.8688 0.571555 4.86315 0.568732C4.2422 0.220154 3.38558 0 2.68419 0C1.28423 0 0.27237 0.927188 0.27237 2.3469C0.27237 3.70029 1.02315 3.99806 2.16485 4.32265C2.55435 4.43413 3.26845 4.61054 3.26845 5.12C3.26845 5.61111 2.81402 5.82421 2.38783 5.82421C1.76688 5.82421 1.22919 5.49963 0.774774 5.10024L0.00141125 6.55665C-0.00141125 6.56229 0 6.56935 0.00564498 6.57217C0.718324 7.06893 1.57777 7.36388 2.45416 7.36388C3.15696 7.36388 3.8908 7.16913 4.43696 6.70483Z" fill="white"/>
<path d="M7.17223 6.17423V4.71218C7.17223 4.11805 7.36698 3.60859 8.05284 3.60859C8.8883 3.60859 8.8135 4.40594 8.8135 4.86036V7.16634C8.8135 7.1734 8.81915 7.17904 8.82479 7.17904H9.49514C10.0498 7.17904 10.4999 6.72885 10.4999 6.17423V4.23942C10.4999 3.0709 9.99048 2.26367 8.71048 2.26367C8.05425 2.26367 7.58149 2.45701 7.19339 3.02857C7.19057 3.03139 7.18775 3.03421 7.18352 3.03421C7.17646 3.03421 7.17081 3.02857 7.17081 3.02151V2.43302C7.17081 2.42596 7.16517 2.42032 7.15952 2.42032H5.49567C5.48861 2.42032 5.48438 2.42596 5.48438 2.43302V7.16634C5.48438 7.1734 5.49002 7.17904 5.49567 7.17904H6.16742C6.72204 7.17904 7.17223 6.72885 7.17223 6.17423Z" fill="white"/>
<path d="M14.6614 6.65552C14.6628 6.6527 14.667 6.64988 14.6713 6.64988C14.6783 6.64988 14.6826 6.65552 14.6826 6.66258V7.1678C14.6826 7.17486 14.6882 7.18051 14.6953 7.18051H15.3656C15.9202 7.18051 16.3704 6.73032 16.3704 6.1757V2.43449C16.3704 2.42743 16.3648 2.42179 16.3591 2.42179H14.6953C14.6882 2.42179 14.6826 2.42743 14.6826 2.43449V2.85363C14.6826 2.86492 14.6685 2.86915 14.6614 2.86209C14.3072 2.4613 13.7441 2.26514 13.2078 2.26514C11.798 2.26514 10.8242 3.43365 10.8242 4.79691C10.8242 6.16018 11.8163 7.33857 13.2262 7.33857C13.7808 7.33574 14.3636 7.12406 14.6614 6.65552ZM12.5685 4.80397C12.5685 4.21971 12.9679 3.7286 13.6538 3.7286C14.3396 3.7286 14.739 4.21971 14.739 4.80397C14.739 5.40657 14.3396 5.87087 13.6538 5.87087C12.9665 5.87087 12.5685 5.40657 12.5685 4.80397Z" fill="white"/>
<path d="M20.031 2.26221C19.4764 2.26221 18.9034 2.48377 18.5971 2.95231C18.5943 2.95513 18.5915 2.95795 18.5873 2.95795C18.5802 2.95795 18.5746 2.95231 18.5746 2.94525V2.41886H16.8867V9.18296H17.5698C18.1244 9.18296 18.5746 8.73277 18.5746 8.17815V6.72598C18.5746 6.72457 18.576 6.72457 18.5774 6.72457C18.9387 7.13947 19.5032 7.33281 20.0493 7.33281C21.4592 7.33281 22.4329 6.18265 22.4329 4.80951C22.4329 3.45048 21.4507 2.26221 20.031 2.26221ZM19.6048 5.87076C18.9189 5.87076 18.5195 5.40646 18.5195 4.80386C18.5195 4.21961 18.9189 3.72849 19.6048 3.72849C20.2906 3.72849 20.69 4.21961 20.69 4.80386C20.69 5.40646 20.2906 5.87076 19.6048 5.87076Z" fill="white"/>
<path d="M25.8903 2.26221C25.3357 2.26221 24.7628 2.48377 24.4565 2.95231C24.4537 2.95513 24.4509 2.95795 24.4466 2.95795C24.4396 2.95795 24.4354 2.95231 24.4354 2.94525V2.43156C24.4354 2.4245 24.4297 2.41886 24.4227 2.41886H22.7588C22.7517 2.41886 22.7461 2.4245 22.7461 2.43156V9.17167C22.7461 9.17872 22.7517 9.18296 22.7588 9.18296H23.4291C23.9838 9.18296 24.4339 8.73277 24.4339 8.17815V6.7542C24.4339 6.74291 24.4481 6.73868 24.4551 6.74574C24.8178 7.14653 25.3724 7.33423 25.9087 7.33423C27.3185 7.33423 28.2923 6.18406 28.2923 4.81092C28.2923 3.45048 27.3087 2.26221 25.8903 2.26221ZM25.4627 5.87076C24.7769 5.87076 24.3775 5.40646 24.3775 4.80386C24.3775 4.21961 24.7755 3.72849 25.4627 3.72849C26.1486 3.72849 26.548 4.21961 26.548 4.80386C26.548 5.40646 26.15 5.87076 25.4627 5.87076Z" fill="white"/>
<path d="M30.2695 0.184814L29.125 4.57802H30.0762C30.5362 4.57802 30.9385 4.26614 31.0528 3.8216L32.0011 0.186226H30.2695V0.184814Z" fill="white"/>
<path d="M29.6972 5.20044C29.1073 5.20044 28.6289 5.67885 28.6289 6.26875C28.6289 6.85865 29.1073 7.33707 29.6972 7.33707C30.2871 7.33707 30.7655 6.85865 30.7655 6.26875C30.7655 5.67885 30.2871 5.20044 29.6972 5.20044Z" fill="white"/>
<path d="M29.1744 0.273723H29.1758L29.3085 0.643469H29.3678L29.5004 0.273723H29.5018V0.643469H29.602V0.184814H29.4411L29.3381 0.455774L29.2351 0.184814H29.0742V0.643469H29.1744V0.273723Z" fill="white"/>
<path d="M28.7686 0.643469H28.8787V0.273723H29.0184V0.184814H28.6289V0.273723H28.7686V0.643469Z" fill="white"/>
<path d="M2.92496 9.79688H0.0234375V16.8079H1.84536V14.4836H2.92355C3.71102 14.4836 4.31362 14.279 4.73277 13.8697C5.15191 13.4605 5.36077 12.8833 5.36077 12.1395C5.36077 11.3958 5.15191 10.8186 4.73277 10.4094C4.31504 10.0015 3.71243 9.79688 2.92496 9.79688ZM2.45078 13.0145H1.84677V11.266H2.45078C3.11971 11.266 3.45559 11.5581 3.45559 12.1395C3.45418 12.7238 3.11971 13.0145 2.45078 13.0145Z" fill="white"/>
<path d="M9.55573 12.512C9.16481 12.0971 8.67229 11.8896 8.07674 11.8896C7.72393 11.8896 7.40075 11.956 7.11004 12.09C6.81791 12.2241 6.56812 12.4048 6.35643 12.6348C6.14474 12.8648 5.98104 13.1315 5.86391 13.4392C5.74536 13.7454 5.6875 14.07 5.6875 14.4115C5.6875 14.7771 5.74818 15.1158 5.86814 15.4248C5.98951 15.7353 6.15744 16.0048 6.37478 16.2335C6.59211 16.4635 6.84613 16.6413 7.13685 16.7683C7.42757 16.8953 7.74792 16.9588 8.09509 16.9588C8.70898 16.9588 9.19586 16.733 9.55431 16.28V16.8107H11.2464V12.0407H9.55431V12.512H9.55573ZM9.52327 14.8462C9.46399 14.976 9.38638 15.0918 9.29041 15.1906C9.19445 15.2893 9.08014 15.367 8.94607 15.4234C8.81341 15.4799 8.67229 15.5067 8.52269 15.5067C8.36746 15.5067 8.22351 15.4784 8.08944 15.4234C7.95678 15.3684 7.84106 15.2908 7.7451 15.1906C7.64913 15.0918 7.57292 14.9746 7.51789 14.842C7.46144 14.7093 7.43462 14.564 7.43462 14.4101C7.43462 14.262 7.46285 14.1237 7.51789 13.9966C7.57434 13.8696 7.64913 13.7567 7.7451 13.6579C7.84106 13.5592 7.95537 13.4815 8.08944 13.4251C8.22351 13.3686 8.36746 13.3418 8.52269 13.3418C8.67087 13.3418 8.812 13.37 8.94607 13.4251C9.07872 13.4815 9.19445 13.5592 9.29041 13.6579C9.38638 13.7567 9.46399 13.8739 9.52327 14.0065C9.58254 14.1406 9.61217 14.2803 9.61217 14.4299C9.61217 14.5795 9.58254 14.7164 9.52327 14.8462Z" fill="white"/>
<path d="M14.9502 14.4835L13.6758 12.0378H11.7227L14.03 16.1587L12.4015 19.19H14.2897L18.1212 12.0378H16.1864L14.9502 14.4835Z" fill="white"/>
</svg>
