<svg width="20" height="18" viewBox="0 0 20 18" fill="none" xmlns="http://www.w3.org/2000/svg">
<path d="M10.0214 16.8352C9.18734 16.8352 8.36097 16.5995 7.7106 16.1357L4.42044 13.7721C3.54817 13.1463 2.86719 11.8356 2.86719 10.7974V5.31931C2.86719 4.18539 3.73181 2.97785 4.84128 2.58024L8.65938 1.20335C9.41688 0.930915 10.6105 0.930915 11.368 1.20335L15.1861 2.58024C16.2956 2.97785 17.1602 4.18539 17.1602 5.31931V10.7901C17.1602 11.8356 16.4792 13.1389 15.607 13.7648L12.3168 16.1283C11.6817 16.5995 10.8554 16.8352 10.0214 16.8352ZM9.06492 2.24154L5.24681 3.61844C4.59643 3.85405 4.02257 4.64927 4.02257 5.32667V10.7974C4.02257 11.4969 4.53522 12.4762 5.10908 12.8885L8.39923 15.2521C9.27916 15.8853 10.7636 15.8853 11.6511 15.2521L14.9413 12.8885C15.5228 12.4689 16.0278 11.4969 16.0278 10.7974V5.31931C16.0278 4.64927 15.4539 3.85406 14.8036 3.61107L10.9854 2.23418C10.4651 2.05747 9.57757 2.05747 9.06492 2.24154Z" fill="#878787"/>
<path d="M8.99525 10.5549C8.84987 10.5549 8.70449 10.5033 8.58972 10.3929L7.35783 9.20743C7.13593 8.9939 7.13593 8.64048 7.35783 8.42695C7.57972 8.21342 7.94699 8.21342 8.16889 8.42695L8.99525 9.22216L11.8799 6.44628C12.1018 6.23275 12.469 6.23275 12.6909 6.44628C12.9128 6.65981 12.9128 7.01324 12.6909 7.22677L9.40078 10.3929C9.28601 10.5033 9.14063 10.5549 8.99525 10.5549Z" fill="#878787"/>
</svg>
