<svg width="20" height="18" viewBox="0 0 20 18" fill="none" xmlns="http://www.w3.org/2000/svg">
<path d="M10.7869 11.1113H10.0217C9.70803 11.1113 9.44788 10.8609 9.44788 10.5591C9.44788 10.2572 9.70803 10.0068 10.0217 10.0068H10.7869C11.3149 10.0068 11.7433 9.5945 11.7433 9.08645V2.2756H5.43083C4.52796 2.2756 3.70157 2.74683 3.25778 3.50522C3.10475 3.7703 2.75282 3.86604 2.47736 3.71878C2.20191 3.57152 2.10241 3.23281 2.25544 2.96773C2.89816 1.86327 4.11477 1.17114 5.43083 1.17114H12.3172C12.6309 1.17114 12.8911 1.42149 12.8911 1.72337V9.08645C12.8911 10.2056 11.9499 11.1113 10.7869 11.1113Z" fill="#878787"/>
<path d="M15.3783 15.529H14.6132C14.2995 15.529 14.0393 15.2786 14.0393 14.9767C14.0393 14.4687 13.6108 14.0563 13.0829 14.0563C12.5549 14.0563 12.1264 14.4687 12.1264 14.9767C12.1264 15.2786 11.8663 15.529 11.5526 15.529H8.49195C8.17824 15.529 7.91809 15.2786 7.91809 14.9767C7.91809 14.4687 7.4896 14.0563 6.96165 14.0563C6.43369 14.0563 6.00521 14.4687 6.00521 14.9767C6.00521 15.2786 5.74506 15.529 5.43135 15.529H4.66619C3.08233 15.529 1.79688 14.292 1.79688 12.7678C1.79688 12.4659 2.05703 12.2156 2.37074 12.2156C2.68445 12.2156 2.9446 12.4659 2.9446 12.7678C2.9446 13.6808 3.71741 14.4245 4.66619 14.4245H4.93398C5.18648 13.5777 5.99756 12.9519 6.96165 12.9519C7.92574 12.9519 8.73682 13.5777 8.98932 14.4245H11.0629C11.3154 13.5777 12.1264 12.9519 13.0905 12.9519C14.0546 12.9519 14.8656 13.5777 15.1181 14.4245H15.3783C16.3271 14.4245 17.0999 13.6808 17.0999 12.7678V11.1111H15.3783C14.6438 11.1111 14.0393 10.5294 14.0393 9.82257V7.61365C14.0393 6.9068 14.6361 6.32511 15.3783 6.32511L14.5596 4.94822C14.3913 4.66106 14.0699 4.48434 13.7256 4.48434H12.8916V9.08627C12.8916 10.2055 11.9504 11.1111 10.7874 11.1111H10.0223C9.70854 11.1111 9.44839 10.8608 9.44839 10.5589C9.44839 10.257 9.70854 10.0066 10.0223 10.0066H10.7874C11.3154 10.0066 11.7438 9.59432 11.7438 9.08627V3.93211C11.7438 3.63023 12.004 3.37988 12.3177 3.37988H13.7256C14.4831 3.37988 15.1794 3.77014 15.5543 4.40336L16.8627 6.60491C16.9622 6.77426 16.9622 6.98779 16.8627 7.15714C16.7632 7.32649 16.5719 7.42957 16.3653 7.42957H15.3783C15.2712 7.42957 15.187 7.51057 15.187 7.61365V9.82257C15.187 9.92566 15.2712 10.0066 15.3783 10.0066H17.6738C17.9875 10.0066 18.2476 10.257 18.2476 10.5589V12.7678C18.2476 14.292 16.9622 15.529 15.3783 15.529Z" fill="#878787"/>
<path d="M6.95964 17.0014C5.79661 17.0014 4.85547 16.0957 4.85547 14.9765C4.85547 13.8573 5.79661 12.9517 6.95964 12.9517C8.12267 12.9517 9.0638 13.8573 9.0638 14.9765C9.0638 16.0957 8.12267 17.0014 6.95964 17.0014ZM6.95964 14.0561C6.43168 14.0561 6.0032 14.4685 6.0032 14.9765C6.0032 15.4846 6.43168 15.8969 6.95964 15.8969C7.48759 15.8969 7.91608 15.4846 7.91608 14.9765C7.91608 14.4685 7.48759 14.0561 6.95964 14.0561Z" fill="#878787"/>
<path d="M13.0807 17.0014C11.9177 17.0014 10.9766 16.0957 10.9766 14.9765C10.9766 13.8573 11.9177 12.9517 13.0807 12.9517C14.2438 12.9517 15.1849 13.8573 15.1849 14.9765C15.1849 16.0957 14.2438 17.0014 13.0807 17.0014ZM13.0807 14.0561C12.5528 14.0561 12.1243 14.4685 12.1243 14.9765C12.1243 15.4846 12.5528 15.8969 13.0807 15.8969C13.6087 15.8969 14.0372 15.4846 14.0372 14.9765C14.0372 14.4685 13.6087 14.0561 13.0807 14.0561Z" fill="#878787"/>
<path d="M17.6735 11.1114H15.3781C14.6435 11.1114 14.0391 10.5298 14.0391 9.8229V7.61398C14.0391 6.90712 14.6435 6.32544 15.3781 6.32544H16.3651C16.5717 6.32544 16.763 6.42853 16.8625 6.60524L18.1709 8.81416C18.2168 8.89516 18.2474 8.99087 18.2474 9.08659V10.5592C18.2474 10.8611 17.9872 11.1114 17.6735 11.1114ZM15.3781 7.4299C15.271 7.4299 15.1868 7.51089 15.1868 7.61398V9.8229C15.1868 9.92598 15.271 10.007 15.3781 10.007H17.0997V9.23386L16.0284 7.4299H15.3781Z" fill="#878787"/>
<path d="M6.96165 6.69308H2.37074C2.05703 6.69308 1.79688 6.44274 1.79688 6.14085C1.79688 5.83897 2.05703 5.58862 2.37074 5.58862H6.96165C7.27536 5.58862 7.53551 5.83897 7.53551 6.14085C7.53551 6.44274 7.27536 6.69308 6.96165 6.69308Z" fill="#878787"/>
<path d="M5.43135 8.90182H2.37074C2.05703 8.90182 1.79688 8.65148 1.79688 8.34959C1.79688 8.04771 2.05703 7.79736 2.37074 7.79736H5.43135C5.74506 7.79736 6.00521 8.04771 6.00521 8.34959C6.00521 8.65148 5.74506 8.90182 5.43135 8.90182Z" fill="#878787"/>
<path d="M3.90104 11.1113H2.37074C2.05703 11.1113 1.79688 10.861 1.79688 10.5591C1.79688 10.2572 2.05703 10.0068 2.37074 10.0068H3.90104C4.21475 10.0068 4.47491 10.2572 4.47491 10.5591C4.47491 10.861 4.21475 11.1113 3.90104 11.1113Z" fill="#878787"/>
</svg>
