<svg width="20" height="18" viewBox="0 0 20 18" fill="none" xmlns="http://www.w3.org/2000/svg">
<path d="M11.0913 13.0197H9.17078C7.91593 13.0197 6.89828 12.0036 6.89828 10.7518C6.89828 10.4499 7.15843 10.1996 7.47214 10.1996C7.78585 10.1996 8.046 10.4499 8.046 10.7518C8.046 11.3924 8.551 11.9152 9.17078 11.9152H11.0913C11.5887 11.9152 12.0018 11.4881 12.0018 10.9727C12.0018 10.3321 11.7646 10.207 11.3744 10.0744L8.29085 9.02887C7.69403 8.83007 6.89062 8.40301 6.89062 7.08502C6.89062 5.95111 7.81646 5.03809 8.94888 5.03809H10.8694C12.1243 5.03809 13.1419 6.05419 13.1419 7.30591C13.1419 7.6078 12.8818 7.85814 12.5681 7.85814C12.2543 7.85814 11.9942 7.6078 11.9942 7.30591C11.9942 6.66533 11.4892 6.14255 10.8694 6.14255H8.94888C8.45153 6.14255 8.03835 6.5696 8.03835 7.08502C8.03835 7.72561 8.27555 7.85078 8.66578 7.98332L11.7493 9.02887C12.3462 9.22767 13.1496 9.65473 13.1496 10.9727C13.1419 12.0993 12.2237 13.0197 11.0913 13.0197Z" fill="#878787"/>
<path d="M10.0231 13.9985C9.70937 13.9985 9.44922 13.7482 9.44922 13.4463V4.61058C9.44922 4.30869 9.70937 4.05835 10.0231 4.05835C10.3368 4.05835 10.5969 4.30869 10.5969 4.61058V13.4463C10.5969 13.7482 10.3368 13.9985 10.0231 13.9985Z" fill="#878787"/>
<path d="M10.0262 16.9434C5.48881 16.9434 1.80078 13.3944 1.80078 9.0281C1.80078 4.66179 5.48881 1.11279 10.0262 1.11279C14.5635 1.11279 18.2515 4.66179 18.2515 9.0281C18.2515 13.3944 14.5635 16.9434 10.0262 16.9434ZM10.0262 2.21725C6.12389 2.21725 2.94851 5.27293 2.94851 9.0281C2.94851 12.7833 6.12389 15.8389 10.0262 15.8389C13.9284 15.8389 17.1038 12.7833 17.1038 9.0281C17.1038 5.27293 13.9284 2.21725 10.0262 2.21725Z" fill="#878787"/>
</svg>
