<svg width="12" height="13" viewBox="0 0 12 13" fill="none" xmlns="http://www.w3.org/2000/svg">
<path d="M10.6251 10.1735L9.80012 10.3685C9.61512 10.4135 9.47012 10.5535 9.43012 10.7385L9.25512 11.4735C9.16012 11.8735 8.65012 11.9985 8.38512 11.6835L6.89012 9.96347C6.77012 9.82347 6.83512 9.60347 7.01512 9.55847C7.90012 9.34347 8.69512 8.84847 9.28012 8.14347C9.37512 8.02847 9.54512 8.01347 9.65012 8.11847L10.7601 9.22847C11.1401 9.60847 11.0051 10.0835 10.6251 10.1735Z" fill="#F4B740"/>
<path d="M1.34959 10.1735L2.17459 10.3685C2.35959 10.4135 2.50459 10.5535 2.54459 10.7385L2.71959 11.4735C2.81459 11.8735 3.32459 11.9985 3.58959 11.6835L5.08459 9.96347C5.20459 9.82347 5.13959 9.60347 4.95959 9.55847C4.07459 9.34347 3.27959 8.84847 2.69459 8.14347C2.59959 8.02847 2.42959 8.01347 2.32459 8.11847L1.21459 9.22847C0.834593 9.60847 0.969593 10.0835 1.34959 10.1735Z" fill="#F4B740"/>
<path d="M6 1.93848C4.065 1.93848 2.5 3.50348 2.5 5.43848C2.5 6.16348 2.715 6.82848 3.085 7.38348C3.625 8.18348 4.48 8.74848 5.475 8.89348C5.645 8.92348 5.82 8.93848 6 8.93848C6.18 8.93848 6.355 8.92348 6.525 8.89348C7.52 8.74848 8.375 8.18348 8.915 7.38348C9.285 6.82848 9.5 6.16348 9.5 5.43848C9.5 3.50348 7.935 1.93848 6 1.93848ZM7.53 5.32848L7.115 5.74348C7.045 5.81348 7.005 5.94848 7.03 6.04848L7.15 6.56348C7.245 6.96848 7.03 7.12848 6.67 6.91348L6.17 6.61848C6.08 6.56348 5.93 6.56348 5.84 6.61848L5.34 6.91348C4.98 7.12348 4.765 6.96848 4.86 6.56348L4.98 6.04848C5 5.95348 4.965 5.81348 4.895 5.74348L4.47 5.32848C4.225 5.08348 4.305 4.83848 4.645 4.78348L5.18 4.69348C5.27 4.67848 5.375 4.59848 5.415 4.51848L5.71 3.92848C5.87 3.60848 6.13 3.60848 6.29 3.92848L6.585 4.51848C6.625 4.59848 6.73 4.67848 6.825 4.69348L7.36 4.78348C7.695 4.83848 7.775 5.08348 7.53 5.32848Z" fill="#F4B740"/>
</svg>
