<svg width="91" height="69" viewBox="0 0 91 69" fill="none" xmlns="http://www.w3.org/2000/svg">
<path d="M14.3632 12.6721C14.3632 12.6721 7.4355 19.3002 7.06103 26.3029V27.6135C7.36061 33.268 11.6296 36.6008 11.6296 36.6008C18.4824 43.3039 35.0715 51.7295 38.966 53.6393C38.966 53.6393 39.1907 53.7516 39.3405 53.6018L39.4154 53.4521V53.3023C28.7804 30.1225 14.3632 12.6721 14.3632 12.6721ZM36.7566 59.3313C36.6817 59.0317 36.3822 59.0317 36.3822 59.0317L8.74615 60.0053C11.7419 65.3603 16.7973 69.4795 22.0773 68.2437C25.6723 67.3075 33.9107 61.5781 36.6069 59.6308C36.8315 59.4436 36.7566 59.2938 36.7566 59.2938V59.3313ZM37.0562 56.4104C24.9233 48.2095 1.40651 35.6646 1.40651 35.6646C0.8448 37.3872 0.657564 39.0349 0.620117 40.5328V40.7949C0.620117 44.8018 2.118 47.6103 2.118 47.6103C5.11378 53.9389 10.8806 55.8487 10.8806 55.8487C13.5019 56.9721 16.1232 57.0095 16.1232 57.0095C16.5726 57.0844 32.6 57.0095 36.869 57.0095C37.0562 57.0095 37.1686 56.8223 37.1686 56.8223V56.5976C37.1686 56.4853 37.0562 56.4104 37.0562 56.4104ZM34.5473 1.62517C31.8922 2.30308 29.5246 3.8147 27.7924 5.9379C26.0601 8.06111 25.0545 10.684 24.9233 13.421V14.9564C25.0357 17.2032 25.5225 18.8883 25.5225 18.8883C27.994 29.748 39.9771 47.5354 42.561 51.2801C42.7482 51.4674 42.9354 51.3925 42.9354 51.3925C43.0073 51.3614 43.0677 51.3085 43.108 51.2414C43.1483 51.1742 43.1665 51.0961 43.1601 51.018C47.1295 11.324 39.0035 0.763885 39.0035 0.763885C37.8052 0.83878 34.5473 1.62517 34.5473 1.62517ZM65.6247 10.1257C65.6247 10.1257 63.7898 3.38519 56.4876 1.58772C56.4876 1.58772 54.3531 1.06346 52.1062 0.763885C52.1062 0.763885 43.9428 11.2865 47.9122 51.0554C47.9496 51.3176 48.1368 51.355 48.1368 51.355C48.399 51.4674 48.5113 51.2427 48.5113 51.2427C51.2075 47.3856 63.1157 29.6731 65.5498 18.8883C65.5498 18.8883 66.8979 13.6457 65.6247 10.1257ZM54.6901 59.0691C54.6901 59.0691 54.428 59.0691 54.3531 59.2564C54.3531 59.2564 54.3156 59.5185 54.4654 59.6308C57.0867 61.5406 65.1379 67.1203 68.9949 68.2437C68.9949 68.2437 69.5941 68.4309 70.6051 68.4684H71.1294C73.7133 68.3935 78.2444 67.0828 82.3636 60.0053L54.6526 59.0691H54.6901ZM84.0112 27.5761C84.5355 19.8619 76.7465 12.7095 76.7465 12.6721C76.7465 12.6721 62.3293 30.1225 51.7692 53.115C51.7692 53.115 51.6569 53.4146 51.8441 53.6018L51.9939 53.6393H52.2186C56.188 51.6546 72.6647 43.2664 79.4801 36.6383C79.4801 36.6383 83.7865 33.1557 84.0112 27.5761ZM89.7032 35.5898C89.7032 35.5898 66.1864 48.2095 54.0535 56.3729C54.0535 56.3729 53.8663 56.5227 53.9412 56.7849C53.9412 56.7849 54.0535 57.0095 54.2033 57.0095C58.5472 57.0095 75.0239 57.0095 75.4358 56.9346C75.4358 56.9346 77.5703 56.8598 80.1916 55.8487C80.1916 55.8487 86.0334 53.9763 89.0666 47.3482C89.0666 47.3482 91.8002 41.9183 89.7032 35.5898Z" fill="#C91433"/>
</svg>
