<svg width="214" height="33" viewBox="0 0 214 33" fill="none" xmlns="http://www.w3.org/2000/svg">
<path d="M176.25 1.16287L176.67 25.0593H176.463L169.525 1.16287H158.153V31.2648H165.677L165.257 6.53607H165.464L172.888 31.2648H183.774V1.16287H176.25ZM32.8916 1.16287L27.2055 31.5777H35.4217L39.6164 3.90606H39.7895L43.8844 31.5777H52.034L46.4145 1.16287H32.8916ZM78.8734 1.16287L75.1248 24.3602H74.9184L71.1365 1.16287H58.7189L58.1263 31.5777H65.7567L65.9631 4.219H66.0296L71.1299 31.5777H78.8601L83.9603 4.219H84.1667L84.3731 31.5777H92.0034L91.2777 1.16287H78.8734ZM14.3684 22.942C14.6813 23.6344 14.5748 24.6731 14.4749 25.1592C14.2685 26.1978 13.5361 27.2032 11.5253 27.2032C9.58112 27.2032 8.47585 26.0913 8.47585 24.4667V21.5171H0.326172V23.8408C0.326172 30.6722 5.69937 32.683 11.4255 32.683C16.9052 32.683 21.4794 30.7787 22.2118 25.785C22.6313 23.1484 22.3183 21.4172 22.2118 20.7914C20.7869 14.3728 9.17497 12.5751 8.37598 8.99962C8.26945 8.37374 8.26945 7.78782 8.37598 7.36835C8.58239 6.36296 9.27484 5.32427 11.1125 5.32427C12.9502 5.32427 13.9556 6.4362 13.9556 8.06081V9.89848H21.5859V7.78116C21.5859 1.15621 15.5869 0.150818 11.3189 0.150818C5.90577 0.150818 1.4381 1.9552 0.639109 6.84235C0.432704 8.16068 0.326172 9.40577 0.745641 10.9372C1.95744 17.2159 12.8503 19.0536 14.3751 22.9353L14.3684 22.942ZM113.376 22.942C113.689 23.6344 113.583 24.5732 113.483 25.1592C113.277 26.1978 112.544 27.2032 110.533 27.2032C108.589 27.2032 107.484 26.0913 107.484 24.4667V21.5171H99.3341V23.8408C99.3341 30.5656 104.607 32.6164 110.327 32.6164C115.807 32.6164 120.281 30.7787 121.007 25.6785C121.426 23.0418 121.113 21.4106 121.007 20.6848C119.795 14.3728 108.283 12.4686 107.484 8.99962C107.377 8.37374 107.377 7.78782 107.484 7.36835C107.657 6.36296 108.383 5.32427 110.22 5.32427C111.951 5.32427 113.063 6.4362 113.063 8.06081V9.89848H120.587V7.78116C120.587 1.15621 114.695 0.150818 110.427 0.150818C105.014 0.150818 100.646 1.84867 99.8468 6.84235C99.6404 8.16068 99.6404 9.40577 99.9134 10.9372C101.165 17.2159 111.845 18.947 113.37 22.9353L113.376 22.942ZM139.004 27.0035C141.155 27.0035 141.74 25.5786 141.954 24.7863C142.06 24.4734 142.06 23.954 142.06 23.6411V1.16953H149.79V23.0485C149.79 23.6411 149.79 24.7796 149.684 25.0593C149.198 30.7787 144.69 32.6164 139.104 32.6164C133.518 32.6164 129.05 30.7787 128.524 25.0593C128.524 24.7796 128.417 23.6344 128.417 23.0485V1.16953H136.148V23.6411C136.148 24.0605 136.148 24.4734 136.254 24.7863C136.254 25.5853 136.88 27.0035 138.991 27.0035H139.004ZM202.504 26.6905C204.761 26.6905 205.453 25.2657 205.66 24.4734C205.766 24.1604 205.766 23.6411 205.766 23.3614V18.9603H202.61V14.486H213.396V22.6357C213.396 23.2616 213.396 23.6411 213.29 24.6798C212.771 30.266 207.983 32.2036 202.61 32.2036C197.197 32.2036 192.45 30.2594 191.93 24.6798C191.824 23.6411 191.824 23.2549 191.824 22.6357V9.80526C191.824 9.31921 191.93 8.28053 191.93 7.79448C192.623 2.07505 197.204 0.237378 202.61 0.237378C207.983 0.237378 212.664 2.07505 213.29 7.79448C213.396 8.69334 213.396 9.80526 213.396 9.80526V10.8439H205.766V9.11281C205.766 9.11281 205.766 8.38705 205.66 7.96759C205.553 7.27513 204.934 5.7504 202.61 5.7504C200.353 5.7504 199.767 7.17526 199.561 7.96759C199.454 8.38705 199.454 8.9064 199.454 9.42575V23.3681C199.454 23.7476 199.454 24.1671 199.561 24.48C199.561 25.279 200.36 26.6972 202.51 26.6972L202.504 26.6905Z" fill="#063A88"/>
</svg>
