<svg width="175" height="30" viewBox="0 0 175 30" fill="none" xmlns="http://www.w3.org/2000/svg">
<path d="M29.1271 26.8537C21.0452 26.8537 14.4953 21.5647 14.4953 15.0408C14.4953 8.51655 21.0452 3.23266 29.1271 3.23266C31.9758 3.23266 34.6354 3.88834 36.8821 5.02488L29.1271 15.0408L43.7267 8.23737C42.1405 6.19771 39.8655 4.44021 37.1146 3.10657C33.6141 1.41519 28.7447 0.368439 23.3604 0.368439C15.6797 0.368439 8.9414 2.62099 5.18364 5.99429C2.4015 8.48797 0.745117 11.6265 0.745117 15.0406C0.745117 18.4572 2.4015 21.598 5.18364 24.0934C8.95118 27.4709 15.5891 29.7103 23.1431 29.7103C30.696 29.7103 37.3319 27.4692 41.1018 24.0934C41.3083 23.9075 41.5082 23.7199 41.6972 23.5252L41.1279 21.8032C38.4792 24.8545 34.0922 26.8537 29.1271 26.8537Z" fill="#C91433"/>
<path d="M77.5299 29.0005L71.4024 10.5523C70.4181 7.57107 67.0545 5.3799 63.0499 5.3799C62.0112 5.3799 61.0161 5.52966 60.0926 5.80077L46.9011 9.6721H60.4685L62.787 16.66C60.538 15.0979 57.609 14.1474 54.4019 14.1474C48.0332 14.1474 42.877 17.5917 42.877 21.8404C42.877 26.0895 48.0332 29.5389 54.4019 29.5389C58.9866 29.5389 63.0412 27.7274 65.5422 24.9444L66.8872 29.0005H77.5299ZM58.8389 26.1351C55.9011 26.1351 53.5197 24.2149 53.5197 21.8404C53.5197 19.4695 55.9011 17.5475 58.8389 17.5475C61.7766 17.5475 64.1602 19.4695 64.1602 21.8404C64.1602 24.2149 61.7766 26.1351 58.8389 26.1351Z" fill="#C91433"/>
<path d="M102.513 5.38283C101.709 5.38283 100.948 5.52628 100.27 5.78318L91.8004 8.96884C91.3811 6.93392 89.1908 5.38283 86.5486 5.38283C85.749 5.38283 84.9863 5.52628 84.2997 5.78318L73.959 9.67188H81.2294V29.0005H91.8721V11.8222C91.8721 10.6369 93.0607 9.67205 94.5339 9.67205C95.9984 9.67205 97.1957 10.6369 97.1957 11.8222V29.0005H107.834V9.67188C107.834 7.30148 105.45 5.38283 102.513 5.38283Z" fill="#C91433"/>
<path d="M169.255 5.38283C168.449 5.38283 167.684 5.52628 166.996 5.78318L158.534 8.96884C158.117 6.93392 155.927 5.38283 153.285 5.38283C152.485 5.38283 151.722 5.52628 151.034 5.78318L140.697 9.67188H147.966V29.0005H158.606V11.8222C158.606 10.6369 159.797 9.67205 161.27 9.67205C162.739 9.67205 163.927 10.6369 163.927 11.8222V29.0005H174.574V9.67188C174.574 7.30148 172.189 5.38283 169.255 5.38283Z" fill="#C91433"/>
<path d="M142.418 17.5471C142.418 24.2655 135.671 29.7105 127.349 29.7105C119.021 29.7105 112.27 24.2655 112.27 17.5471C112.27 10.8305 119.021 5.38283 127.349 5.38283C135.671 5.38283 142.418 10.8307 142.418 17.5471ZM127.973 9.07459C127.499 7.64327 125.676 6.79363 123.903 7.17838C122.132 7.56155 121.074 9.03373 121.55 10.4649L126.719 26.0191C127.197 27.4519 129.016 28.3006 130.789 27.9218C132.562 27.5343 133.616 26.063 133.14 24.632L127.973 9.07459Z" fill="#C91433"/>
</svg>
