<svg width="47" height="57" viewBox="0 0 47 57" fill="none" xmlns="http://www.w3.org/2000/svg">
<path d="M45.2048 19.4338C43.3638 20.5609 41.8389 22.1367 40.7728 24.0136C39.7066 25.8906 39.1341 28.0073 39.1088 30.1658C39.1161 32.5952 39.8358 34.969 41.1789 36.9933C42.522 39.0177 44.4294 40.6035 46.6649 41.5545C45.7835 44.3982 44.4791 47.0931 42.7955 49.5485C40.3865 53.0164 37.8675 56.4839 34.0349 56.4839C30.2022 56.4839 29.2165 54.2573 24.7997 54.2573C20.4924 54.2573 18.9592 56.5571 15.4549 56.5571C11.9506 56.5571 9.50515 53.3447 6.69429 49.4025C2.98135 43.8799 0.940766 37.4033 0.817383 30.7497C0.817383 19.7989 7.93555 13.9951 14.9438 13.9951C18.6672 13.9951 21.77 16.4406 24.1062 16.4406C26.3329 16.4406 29.8007 13.8488 34.0349 13.8488C36.2119 13.7927 38.3694 14.2727 40.3172 15.2466C42.2651 16.2205 43.9435 17.6585 45.2048 19.4338ZM32.0274 9.21319C33.8939 7.01752 34.9504 4.24789 35.0206 1.36695C35.0238 0.987158 34.9871 0.608085 34.9111 0.235962C31.7049 0.549153 28.7401 2.07726 26.6248 4.50686C24.7403 6.61504 23.6439 9.3107 23.522 12.1357C23.5234 12.4793 23.5601 12.8218 23.6316 13.1579C23.8843 13.2056 24.1409 13.2301 24.3982 13.231C25.8758 13.1134 27.314 12.6966 28.6256 12.0059C29.9371 11.3152 31.0945 10.3651 32.0274 9.21319Z" fill="#0C0C0C"/>
</svg>
