<svg width="153" height="50" viewBox="0 0 153 50" fill="none" xmlns="http://www.w3.org/2000/svg">
<mask id="mask0_2556_42768" style="mask-type:luminance" maskUnits="userSpaceOnUse" x="0" y="0" width="153" height="50">
<path d="M0.393555 49.4628V0.436783H153V49.4628H0.393555Z" fill="white"/>
</mask>
<g mask="url(#mask0_2556_42768)">
<path d="M0.396484 49.4628V0.436783H153.003V49.4628H0.396484ZM32.2235 31.2006H20.0015V10.7825H14.5495V36.1093H32.2235V31.2006ZM50.8415 19.4858C49.8679 18.4173 48.6693 17.5762 47.3312 17.023C45.9931 16.4698 44.5488 16.218 43.1016 16.2857C41.7485 16.2399 40.4002 16.4675 39.1378 16.9547C37.8755 17.442 36.7252 18.1787 35.7565 19.1206C34.7877 20.0625 34.0205 21.1899 33.5011 22.4351C32.9817 23.6802 32.7208 25.0172 32.7342 26.3654C32.7342 32.2485 37.2029 36.4451 43.6973 36.4451C47.1053 36.4501 50.3765 35.1109 52.7958 32.7204L49.3954 30.1196C47.8537 31.4886 45.8485 32.2252 43.7834 32.1811C42.9912 32.2178 42.1996 32.0973 41.4546 31.8264C40.7096 31.5556 40.0262 31.14 39.444 30.6037L53.1933 24.9253C52.948 22.9261 52.1341 21.0385 50.8476 19.4846L50.8415 19.4858ZM74.8339 24.033C74.8679 22.9918 74.6841 21.955 74.294 20.9884C73.9039 20.0218 73.3161 19.1467 72.568 18.4186C71.8199 17.6905 70.9279 17.1254 69.9486 16.7593C68.9693 16.3931 67.9243 16.2339 66.8799 16.2918C65.6484 16.2974 64.4343 16.5813 63.3289 17.122C62.2236 17.6628 61.2559 18.4463 60.4987 19.4135V16.6055H55.1194V36.1032H60.4987V25.0074C60.5058 24.4433 60.6275 23.8864 60.8564 23.3704C61.0853 22.8544 61.4167 22.3898 61.8306 22.0047C62.2446 21.6196 62.7325 21.3219 63.265 21.1296C63.7975 20.9372 64.3636 20.8542 64.9292 20.8855C65.499 20.8564 66.069 20.9403 66.6059 21.1323C67.1429 21.3243 67.6362 21.6207 68.0572 22.0042C68.4782 22.3876 68.8186 22.8506 69.0584 23.3662C69.2983 23.8817 69.4329 24.4396 69.4545 25.0074V36.1032H74.8339V24.0305V24.033ZM87.5186 16.2918C85.5318 16.3618 83.6097 17.0125 81.9916 18.1629C80.3736 19.3133 79.1313 20.9125 78.4196 22.7612C77.7078 24.6098 77.558 26.6262 77.989 28.559C78.4199 30.4918 79.4124 32.2556 80.8429 33.6306C82.2734 35.0055 84.0785 35.9308 86.0333 36.2912C87.9882 36.6515 90.0063 36.431 91.8362 35.657C93.666 34.8831 95.2267 33.5899 96.3237 31.9388C97.4208 30.2876 98.0056 28.3514 98.0054 26.3715C97.9916 25.0206 97.7083 23.6859 97.172 22.445C96.6356 21.2041 95.8569 20.0818 94.8811 19.1433C93.9053 18.2048 92.7519 17.4689 91.488 16.9783C90.224 16.4877 88.8748 16.2523 87.5186 16.2857V16.2918ZM113.042 16.6154L108.182 29.894L103.318 16.6154H97.1808L105.236 36.1032H111.126L119.181 16.6154H113.042ZM128.908 16.2857C126.921 16.3557 124.999 17.0064 123.381 18.1568C121.763 19.3072 120.521 20.9064 119.809 22.755C119.097 24.6037 118.948 26.6201 119.378 28.5529C119.809 30.4857 120.802 32.2495 122.232 33.6245C123.663 34.9994 125.468 35.9247 127.423 36.2851C129.378 36.6454 131.396 36.4249 133.226 35.6509C135.056 34.8769 136.616 33.5838 137.713 31.9326C138.81 30.2815 139.395 28.3453 139.395 26.3654C139.38 25.015 139.096 23.681 138.56 22.4408C138.023 21.2006 137.244 20.079 136.268 19.1412C135.293 18.2033 134.14 17.468 132.876 16.9777C131.613 16.4875 130.264 16.2523 128.908 16.2857ZM128.908 31.8514C128.199 31.8415 127.499 31.6909 126.849 31.4084C126.2 31.1259 125.613 30.7172 125.123 30.2061C124.634 29.695 124.252 29.0919 124 28.432C123.747 27.7721 123.629 27.0687 123.653 26.3629C123.603 25.6573 123.701 24.9491 123.939 24.2827C124.177 23.6163 124.551 23.0062 125.038 22.4907C125.524 21.9752 126.112 21.5654 126.765 21.287C127.418 21.0087 128.122 20.8678 128.832 20.8733C129.541 20.8831 130.241 21.0338 130.891 21.3163C131.541 21.5989 132.128 22.0078 132.617 22.519C133.106 23.0302 133.488 23.6334 133.741 24.2935C133.993 24.9535 134.111 25.6571 134.087 26.3629C134.13 27.0671 134.029 27.7726 133.788 28.4362C133.547 29.0997 133.173 29.7071 132.688 30.2211C132.202 30.735 131.617 31.1446 130.966 31.4245C130.316 31.7045 129.615 31.8489 128.907 31.8489L128.908 31.8514ZM87.5199 31.8514C86.8109 31.8415 86.111 31.6909 85.4611 31.4084C84.8112 31.1259 84.2245 30.7172 83.7351 30.2061C83.2458 29.695 82.8637 29.0919 82.6112 28.432C82.3588 27.7721 82.241 27.0687 82.2648 26.3629C82.2152 25.6569 82.3128 24.9484 82.5514 24.2817C82.79 23.6151 83.1645 23.0048 83.6513 22.4893C84.1382 21.9737 84.7268 21.564 85.3803 21.2859C86.0337 21.0078 86.7379 20.8673 87.4485 20.8733C88.157 20.8838 88.8563 21.0348 89.5055 21.3175C90.1547 21.6002 90.7408 22.009 91.2296 22.5198C91.7184 23.0307 92.1001 23.6335 92.3523 24.2929C92.6045 24.9523 92.7223 25.6552 92.6986 26.3605C92.7425 27.0648 92.6411 27.7707 92.4006 28.4345C92.1601 29.0983 91.7857 29.706 91.3003 30.2202C90.815 30.7344 90.2291 31.1442 89.5787 31.4244C88.9284 31.7045 88.2272 31.849 87.5186 31.8489L87.5199 31.8514ZM39.0723 22.4874C39.557 21.8598 40.185 21.3563 40.9041 21.0187C41.6233 20.681 42.4129 20.519 43.2075 20.546C44.0946 20.5408 44.9636 20.7967 45.7052 21.2816C46.4468 21.7666 47.028 22.459 47.3758 23.2719L37.9795 27.1559C37.7076 25.5183 38.0984 23.8401 39.0662 22.4887L39.0723 22.4874Z" fill="#0C0C0C"/>
</g>
</svg>
