<svg width="200" height="36" viewBox="0 0 200 36" fill="none" xmlns="http://www.w3.org/2000/svg">
<path d="M67.8719 35.3602C59.2312 34.465 52.0706 30.3787 49.2996 24.7456C48.1309 22.3684 48.0646 22.012 48.0646 18.0698C48.0646 14.126 48.1309 13.7713 49.2996 11.3957C51.5396 6.8485 56.3824 3.44015 63.2019 1.6133C67.5396 0.452871 75.1414 0.452874 79.5639 1.62159C85.7936 3.26277 90.5933 6.79711 92.8608 11.4024C94.0295 13.7746 94.0925 14.1244 94.0875 18.0649C94.0819 21.7484 93.9715 22.4596 93.1028 24.298C90.3801 30.067 84.4987 33.8169 76.2128 35.0668C72.7477 35.5973 70.7694 35.6586 67.8719 35.3602ZM75.8514 30.0935C79.8763 28.8336 83.1619 25.4386 84.1234 21.5478C84.3688 20.5532 84.4898 18.5158 84.3936 17.0205C83.9858 10.7475 80.0162 6.56833 73.3674 5.40956C67.3398 4.36518 60.9825 7.45026 58.7231 12.528C57.6191 15.0096 57.3953 19.4491 58.2391 22.1313C60.3945 28.9845 68.1723 32.5006 75.8514 30.0935ZM15.1525 34.4816C13.2368 34.0672 10.531 33.3046 9.13983 32.804C7.74897 32.3066 6.47216 31.9751 6.3034 32.0746C6.13431 32.2403 5.99672 32.6713 5.99672 33.1852C5.99672 34.0639 5.89725 34.097 3.54424 34.097H1.09192V28.0611V22.0236H3.35558C5.48083 22.0236 5.61941 22.0236 5.61941 22.9022C5.61941 24.9545 9.19785 28.2932 12.3436 29.1751C18.3959 30.8727 23.9245 31.0749 28.2077 29.7554C31.6145 28.711 32.9415 26.5062 31.4525 24.3809C30.6469 23.2371 29.1716 22.8889 20.2125 21.8247C8.33531 20.399 5.52111 19.6497 2.8503 17.1664C-0.473167 14.0763 -0.648723 8.94556 2.45907 5.73283C4.28393 3.8463 5.80674 3.05389 10.0251 1.79566C16.1816 -0.0411373 24.99 0.535763 31.1793 3.18817C33.416 4.14967 33.916 4.09994 33.916 2.93951C33.916 2.01117 33.9823 1.97801 36.0853 2.09405L38.2548 2.25982L38.3543 7.32427C38.4703 12.9706 38.4537 12.9971 35.9663 13.0071C34.5638 13.012 34.3997 12.8413 33.9667 11.714C33.2356 9.6932 30.5627 7.59449 27.4025 6.55839C25.0039 5.77924 23.9676 5.6632 19.0068 5.67978C12.1992 5.6947 10.0184 6.30972 8.92216 8.48967C8.36681 9.60037 8.34526 9.89877 8.77296 10.5586C9.53387 11.719 11.1658 12.1003 19.0053 13.0054C22.9481 13.453 27.3624 14.0498 28.8149 14.3316C36.604 15.8236 40.2935 19.0744 40.3139 24.4472C40.3305 30.7566 33.9972 34.6507 22.9668 35.1016C19.528 35.2674 17.9055 35.1016 15.1449 34.5214L15.1525 34.4816ZM99.5642 31.6618V29.5796H102.165C104.188 29.5796 104.817 29.4139 104.995 28.9828C105.127 28.6513 105.223 23.7443 105.223 18.0682C105.223 6.02293 105.394 6.56502 101.612 6.56502H99.1866V4.48951V2.41566H106.756H114.325L119.678 7.20159C122.622 9.83577 127.378 14.1227 130.247 16.7287C133.116 19.3364 135.577 21.5113 135.718 21.5627C136.127 21.7285 135.635 7.39555 135.217 6.97945C135.01 6.76394 133.651 6.54844 132.199 6.48213L129.558 6.31635V4.42983V2.54331H138.613H147.668L147.784 4.52432L147.9 6.50534H145.076C142.547 6.50534 142.226 6.50534 142.003 7.28448C141.87 7.7155 141.87 13.8376 142.036 20.888L142.313 33.7058L139.184 33.54H136.055L130.17 28.3595C126.934 25.5115 121.4 20.6029 117.872 17.4515L111.458 11.7223L111.359 19.7608C111.292 24.1836 111.344 28.1755 111.458 28.6347C111.644 29.3973 111.929 29.4802 114.583 29.5796L117.504 29.7454V31.6319V33.5168L108.543 33.6826L99.5825 33.8484V31.7679L99.5642 31.6618ZM164.989 33.2035C164.873 32.9051 164.84 32.0099 164.907 31.2175L165.023 29.7587L167.475 29.5929C170.642 29.4271 170.871 29.1453 170.871 24.976V21.7169L164.457 14.4974C160.93 10.5271 157.715 7.10213 157.313 6.88828C156.912 6.67277 155.468 6.49042 154.106 6.49042H151.629V4.40828V2.3278L162.287 2.49357L172.946 2.65935L173.062 4.64036L173.178 6.62138H171.46C170.487 6.62138 169.743 6.80374 169.743 7.01925C169.743 7.23475 171.467 9.45946 173.575 11.9477C177.229 16.2596 177.438 16.4386 178.043 15.7871C181.131 12.46 185.223 7.31433 185.03 7.00267C184.897 6.78716 184.12 6.62138 183.303 6.62138H181.816V4.54588V2.47036H190.493H199.171V4.52929V6.58823L196.255 6.754L193.339 6.91978L186.811 14.267L180.283 21.6141L180.382 25.5861L180.482 29.5581L183.425 29.7239L186.368 29.8896L186.252 31.8541L186.136 33.8185L175.657 33.9843C166.918 34.1501 165.143 33.9959 164.973 33.5533L164.989 33.2035Z" fill="#0C0C0C"/>
</svg>
