<svg width="350" height="350" viewBox="0 0 350 350" fill="none" xmlns="http://www.w3.org/2000/svg">
<path d="M224.743 236.838C224.743 236.838 252.043 235.137 270.831 201.565C289.619 167.993 286.231 116.781 262.865 88.333C239.499 59.885 203.12 50.204 168.414 59.311C151.502 63.749 140.225 75.25 130.481 89.117C121.99 101.199 112.442 112.847 99.5898 120.491C86.8708 128.065 73.7878 134.099 67.3898 148.491C51.7518 183.491 63.1898 224.245 100.157 237.979C140.001 252.77 206.536 244.804 224.743 236.838Z" fill="#945CB4"/>
<path opacity="0.7" d="M224.743 236.838C224.743 236.838 252.043 235.137 270.831 201.565C289.619 167.993 286.231 116.781 262.865 88.333C239.499 59.885 203.12 50.204 168.414 59.311C151.502 63.749 140.225 75.25 130.481 89.117C121.99 101.199 112.442 112.847 99.5898 120.491C86.8708 128.065 73.7878 134.099 67.3898 148.491C51.7518 183.491 63.1898 224.245 100.157 237.979C140.001 252.77 206.536 244.804 224.743 236.838Z" fill="white"/>
<path d="M91.4589 118.377H255.133C256.325 118.377 257.468 118.85 258.311 119.693C259.153 120.536 259.627 121.679 259.627 122.871V236.691H86.9648V122.878C86.9639 122.287 87.0795 121.702 87.3049 121.156C87.5304 120.61 87.8612 120.114 88.2786 119.696C88.696 119.278 89.1918 118.946 89.7375 118.72C90.2832 118.493 90.8681 118.377 91.4589 118.377Z" fill="#263238"/>
<path d="M259.986 237.041H86.6172V122.878C86.6172 121.593 87.1273 120.36 88.0355 119.45C88.9438 118.541 90.1758 118.029 91.4612 118.027H255.135C256.421 118.029 257.654 118.541 258.563 119.45C259.473 120.359 259.984 121.592 259.986 122.878V237.041ZM87.3172 236.341H259.286V122.878C259.284 121.778 258.846 120.723 258.068 119.945C257.29 119.167 256.236 118.729 255.135 118.727H91.4612C90.3615 118.729 89.3075 119.167 88.5305 119.945C87.7536 120.724 87.3172 121.778 87.3172 122.878V236.341Z" fill="#263238"/>
<path d="M280.396 290.941H66.1958C63.8298 290.941 61.8348 287.546 62.8848 285.425L86.9648 238.644H259.634L283.84 285.264C284.897 287.378 282.797 290.941 280.396 290.941Z" fill="#263238"/>
<path d="M280.397 291.291H66.1971C65.5335 291.249 64.8916 291.039 64.3319 290.68C63.7722 290.321 63.3131 289.825 62.9981 289.24C62.6009 288.667 62.3527 288.004 62.2757 287.311C62.1987 286.618 62.2954 285.917 62.5571 285.271L86.7351 238.294H259.845L259.943 238.476L284.149 285.103C284.409 285.764 284.501 286.479 284.415 287.185C284.33 287.89 284.07 288.562 283.659 289.142C283.336 289.742 282.869 290.253 282.299 290.628C281.73 291.003 281.076 291.231 280.397 291.291ZM87.1971 238.994L63.1941 285.6C62.9868 286.139 62.9161 286.721 62.9881 287.293C63.0602 287.866 63.2728 288.412 63.6071 288.883C63.8618 289.363 64.232 289.771 64.6842 290.072C65.1364 290.372 65.6563 290.556 66.1971 290.605H280.397C280.957 290.545 281.494 290.348 281.959 290.03C282.425 289.712 282.804 289.285 283.064 288.785C283.409 288.306 283.632 287.75 283.712 287.166C283.793 286.581 283.729 285.986 283.526 285.432L259.418 238.994H87.1971Z" fill="#263238"/>
<path d="M280.399 288.988H66.1988C65.6567 288.988 65.1235 288.85 64.6496 288.587C64.1758 288.324 63.777 287.944 63.491 287.483C63.205 287.023 63.0413 286.497 63.0154 285.955C62.9894 285.414 63.1021 284.875 63.3428 284.389L86.9678 236.691H259.637L283.255 284.389C283.495 284.875 283.608 285.414 283.582 285.955C283.556 286.497 283.393 287.023 283.107 287.483C282.821 287.944 282.422 288.324 281.948 288.587C281.474 288.85 280.941 288.988 280.399 288.988Z" fill="white"/>
<path d="M280.399 289.338H66.1987C65.5947 289.343 64.9995 289.194 64.4698 288.904C63.94 288.613 63.4935 288.192 63.1727 287.681C62.8519 287.169 62.6675 286.584 62.6373 285.98C62.607 285.377 62.7317 284.776 62.9997 284.235L86.6247 236.537C86.6521 236.477 86.6966 236.426 86.7527 236.392C86.8087 236.357 86.8737 236.339 86.9397 236.341H259.637C259.702 236.34 259.766 236.357 259.82 236.392C259.875 236.427 259.918 236.478 259.945 236.537L283.57 284.235C283.837 284.774 283.961 285.372 283.932 285.973C283.903 286.574 283.721 287.158 283.404 287.669C283.086 288.18 282.644 288.601 282.118 288.893C281.592 289.185 281 289.338 280.399 289.338ZM87.1987 237.041L63.6577 284.543C63.4432 284.975 63.3426 285.455 63.3655 285.937C63.3883 286.419 63.5339 286.888 63.7884 287.298C64.0428 287.708 64.3978 288.046 64.8196 288.281C65.2414 288.515 65.716 288.638 66.1987 288.638H280.399C280.881 288.638 281.356 288.515 281.778 288.281C282.2 288.046 282.555 287.708 282.809 287.298C283.063 286.888 283.209 286.419 283.232 285.937C283.255 285.455 283.154 284.975 282.94 284.543L259.42 237.041H87.1987Z" fill="#263238"/>
<path d="M249.179 127.743H97.4258V227.318H249.179V127.743Z" fill="white"/>
<path d="M249.52 227.668H97.0742V127.4H249.52V227.668ZM97.7742 226.968H248.82V128.1H97.7742V226.968Z" fill="#263238"/>
<path d="M245.787 173.124H101.363V223.734H245.787V173.124Z" fill="#945CB4"/>
<path opacity="0.46" d="M119.826 203.56V202.3C119.826 202.114 119.752 201.936 119.621 201.805C119.49 201.674 119.312 201.6 119.126 201.6H118.16C118.013 200.958 117.76 200.345 117.411 199.787L118.111 199.087C118.233 198.957 118.301 198.786 118.301 198.607C118.301 198.429 118.233 198.258 118.111 198.128L117.208 197.225C117.078 197.101 116.905 197.032 116.725 197.032C116.545 197.032 116.372 197.101 116.242 197.225L115.542 197.925C114.982 197.575 114.366 197.322 113.722 197.176V196.189C113.722 196.003 113.648 195.825 113.517 195.694C113.386 195.563 113.208 195.489 113.022 195.489H111.748C111.562 195.489 111.384 195.563 111.253 195.694C111.122 195.825 111.048 196.003 111.048 196.189V197.176C110.406 197.323 109.793 197.576 109.235 197.925L108.535 197.225C108.405 197.103 108.234 197.035 108.056 197.035C107.877 197.035 107.706 197.103 107.576 197.225L106.708 198.1C106.586 198.23 106.518 198.401 106.518 198.579C106.518 198.758 106.586 198.929 106.708 199.059L107.408 199.759C107.059 200.317 106.806 200.93 106.659 201.572H105.7C105.514 201.572 105.336 201.646 105.205 201.777C105.074 201.908 105 202.086 105 202.272V203.546C105 203.732 105.074 203.91 105.205 204.041C105.336 204.172 105.514 204.246 105.7 204.246H106.687C106.833 204.89 107.086 205.506 107.436 206.066L106.736 206.766C106.614 206.896 106.546 207.067 106.546 207.245C106.546 207.424 106.614 207.595 106.736 207.725L107.639 208.628C107.769 208.75 107.94 208.818 108.119 208.818C108.297 208.818 108.468 208.75 108.598 208.628L109.298 207.928C109.856 208.277 110.469 208.53 111.111 208.677V209.664C111.111 209.85 111.185 210.028 111.316 210.159C111.447 210.29 111.625 210.364 111.811 210.364H113.085C113.271 210.364 113.449 210.29 113.58 210.159C113.711 210.028 113.785 209.85 113.785 209.664V208.677C114.429 208.531 115.045 208.278 115.605 207.928L116.305 208.628C116.435 208.752 116.608 208.821 116.788 208.821C116.968 208.821 117.141 208.752 117.271 208.628L118.174 207.725C118.296 207.595 118.364 207.424 118.364 207.245C118.364 207.067 118.296 206.896 118.174 206.766L117.474 206.066C117.824 205.506 118.077 204.89 118.223 204.246H119.21C119.378 204.226 119.534 204.145 119.647 204.019C119.76 203.893 119.824 203.73 119.826 203.56ZM112.7 205.8C112.102 205.86 111.5 205.735 110.977 205.439C110.453 205.144 110.034 204.694 109.776 204.151C109.518 203.608 109.435 202.999 109.537 202.407C109.64 201.815 109.923 201.269 110.348 200.844C110.773 200.419 111.319 200.136 111.911 200.033C112.503 199.931 113.112 200.014 113.655 200.272C114.198 200.53 114.648 200.949 114.943 201.473C115.239 201.996 115.365 202.598 115.304 203.196C115.236 203.864 114.94 204.487 114.466 204.962C113.991 205.436 113.368 205.732 112.7 205.8Z" fill="white"/>
<path opacity="0.46" d="M131.841 212.485V211.211C131.841 211.025 131.768 210.847 131.636 210.716C131.505 210.585 131.327 210.511 131.141 210.511H130.196C130.048 209.866 129.793 209.251 129.44 208.691L130.14 207.991C130.264 207.861 130.334 207.688 130.334 207.508C130.334 207.328 130.264 207.155 130.14 207.025L129.237 206.122C129.107 205.998 128.934 205.929 128.754 205.929C128.574 205.929 128.401 205.998 128.271 206.122L127.571 206.822C127.01 206.473 126.395 206.22 125.751 206.073V205.1C125.751 204.914 125.678 204.736 125.546 204.605C125.415 204.474 125.237 204.4 125.051 204.4H123.77C123.585 204.4 123.407 204.474 123.275 204.605C123.144 204.736 123.07 204.914 123.07 205.1V206.087C122.426 206.234 121.811 206.487 121.25 206.836L120.55 206.136C120.42 206.012 120.247 205.943 120.067 205.943C119.887 205.943 119.714 206.012 119.584 206.136L118.681 207.039C118.557 207.169 118.488 207.342 118.488 207.522C118.488 207.702 118.557 207.875 118.681 208.005L119.381 208.705C119.026 209.263 118.77 209.879 118.625 210.525H117.645C117.46 210.525 117.282 210.599 117.15 210.73C117.019 210.861 116.945 211.039 116.945 211.225V212.499C116.945 212.685 117.019 212.863 117.15 212.994C117.282 213.125 117.46 213.199 117.645 213.199H118.625C118.77 213.843 119.026 214.456 119.381 215.012L118.681 215.712C118.557 215.842 118.488 216.015 118.488 216.195C118.488 216.375 118.557 216.548 118.681 216.678L119.584 217.574C119.714 217.698 119.887 217.767 120.067 217.767C120.247 217.767 120.42 217.698 120.55 217.574L121.25 216.874C121.811 217.223 122.426 217.476 123.07 217.623V218.61C123.07 218.796 123.144 218.974 123.275 219.105C123.407 219.236 123.585 219.31 123.77 219.31H125.051C125.237 219.31 125.415 219.236 125.546 219.105C125.678 218.974 125.751 218.796 125.751 218.61V217.623C126.395 217.476 127.01 217.223 127.571 216.874L128.271 217.574C128.401 217.698 128.574 217.767 128.754 217.767C128.934 217.767 129.107 217.698 129.237 217.574L130.14 216.678C130.264 216.548 130.334 216.375 130.334 216.195C130.334 216.015 130.264 215.842 130.14 215.712L129.44 215.012C129.793 214.455 130.048 213.842 130.196 213.199H131.176C131.358 213.19 131.53 213.11 131.654 212.977C131.778 212.844 131.845 212.667 131.841 212.485ZM124.715 214.753C124.116 214.815 123.511 214.689 122.986 214.394C122.46 214.099 122.039 213.648 121.78 213.104C121.521 212.559 121.437 211.948 121.539 211.354C121.642 210.76 121.925 210.212 122.352 209.785C122.778 209.359 123.326 209.075 123.92 208.973C124.514 208.87 125.125 208.954 125.67 209.214C126.214 209.473 126.665 209.894 126.96 210.419C127.256 210.945 127.381 211.549 127.319 212.149C127.25 212.816 126.954 213.439 126.48 213.913C126.006 214.388 125.382 214.684 124.715 214.753Z" fill="white"/>
<path d="M133.208 177.996H107.028C106.948 177.996 106.871 177.964 106.815 177.908C106.758 177.851 106.727 177.775 106.727 177.695C106.727 177.614 106.758 177.537 106.814 177.48C106.871 177.422 106.947 177.389 107.028 177.387H133.208C133.289 177.387 133.368 177.419 133.425 177.477C133.483 177.535 133.516 177.613 133.516 177.695C133.514 177.775 133.48 177.852 133.423 177.908C133.365 177.964 133.288 177.996 133.208 177.996Z" fill="#263238"/>
<path d="M133.208 181.776H107.028C106.947 181.774 106.871 181.741 106.814 181.683C106.758 181.626 106.727 181.548 106.727 181.468C106.727 181.388 106.758 181.312 106.815 181.255C106.871 181.199 106.948 181.167 107.028 181.167H133.208C133.288 181.167 133.365 181.198 133.423 181.255C133.48 181.311 133.514 181.388 133.516 181.468C133.516 181.55 133.483 181.628 133.425 181.686C133.368 181.744 133.289 181.776 133.208 181.776Z" fill="#263238"/>
<path d="M133.208 185.549H107.028C106.948 185.549 106.871 185.517 106.815 185.461C106.758 185.404 106.727 185.328 106.727 185.248C106.727 185.168 106.758 185.09 106.814 185.033C106.871 184.975 106.947 184.942 107.028 184.94H133.208C133.289 184.94 133.368 184.972 133.425 185.03C133.483 185.088 133.516 185.166 133.516 185.248C133.514 185.328 133.48 185.405 133.423 185.461C133.365 185.518 133.288 185.549 133.208 185.549Z" fill="#263238"/>
<path d="M133.208 189.329H107.028C106.947 189.327 106.871 189.294 106.814 189.236C106.758 189.179 106.727 189.101 106.727 189.021C106.727 188.941 106.758 188.865 106.815 188.808C106.871 188.752 106.948 188.72 107.028 188.72H133.208C133.288 188.72 133.365 188.751 133.423 188.808C133.48 188.864 133.514 188.94 133.516 189.021C133.516 189.103 133.483 189.181 133.425 189.239C133.368 189.297 133.289 189.329 133.208 189.329Z" fill="#263238"/>
<path d="M243.015 132.44H104.135C102.604 132.44 101.363 133.681 101.363 135.212V135.527C101.363 137.058 102.604 138.299 104.135 138.299H243.015C244.546 138.299 245.787 137.058 245.787 135.527V135.212C245.787 133.681 244.546 132.44 243.015 132.44Z" fill="#945CB4"/>
<path d="M243.015 151.76H104.135C102.604 151.76 101.363 153.001 101.363 154.532V154.847C101.363 156.378 102.604 157.619 104.135 157.619H243.015C244.546 157.619 245.787 156.378 245.787 154.847V154.532C245.787 153.001 244.546 151.76 243.015 151.76Z" fill="#945CB4"/>
<path d="M166.093 253.246L166.394 246.869H157.273L156.664 253.246H166.093Z" fill="#263238"/>
<path d="M166.431 253.596H156.281L156.981 246.519H166.781L166.431 253.596ZM157.051 252.896H165.759L166.032 247.219H157.59L157.051 252.896Z" fill="white"/>
<path d="M184.952 253.246L184.644 246.869H175.516L175.523 253.246H184.952Z" fill="#263238"/>
<path d="M185.322 253.596H175.172V246.519H184.972L185.322 253.596ZM175.872 252.896H184.58L184.307 247.219H175.865L175.872 252.896Z" fill="white"/>
<path d="M234.058 260.057H243.816L241.527 253.246H232.098L234.058 260.057Z" fill="#263238"/>
<path d="M244.299 260.4H233.799L231.629 252.889H241.779L244.299 260.4ZM234.324 259.7H243.326L241.275 253.589H232.56L234.324 259.7Z" fill="white"/>
<path d="M156.663 253.246L157.272 246.869H148.144L147.234 253.246H156.663Z" fill="#263238"/>
<path d="M156.986 253.596H146.836L147.844 246.519H157.644L156.986 253.596ZM147.641 252.896H156.349L156.888 247.219H148.488L147.641 252.896Z" fill="white"/>
<path d="M137.808 253.246L139.026 246.869H129.898L128.379 253.246H137.808Z" fill="#263238"/>
<path d="M138.101 253.596H127.938L129.624 246.519H139.424L138.101 253.596ZM128.826 252.896H137.521L138.598 247.219H130.198L128.826 252.896Z" fill="white"/>
<path d="M222.67 253.246L221.137 246.869H212.016L213.241 253.246H222.67Z" fill="#263238"/>
<path d="M223.108 253.596H212.944L211.586 246.519H221.386L223.108 253.596ZM213.525 252.896H222.219L220.861 247.219H212.461L213.525 252.896Z" fill="white"/>
<path d="M232.099 253.246L230.258 246.869H221.137L222.67 253.246H232.099Z" fill="#263238"/>
<path d="M232.56 253.596H222.389L220.695 246.519H230.495L232.56 253.596ZM222.942 252.896H231.629L229.998 247.219H221.598L222.942 252.896Z" fill="white"/>
<path d="M128.378 253.246L129.897 246.869H120.776L118.949 253.246H128.378Z" fill="#263238"/>
<path d="M128.659 253.596H118.488L120.511 246.519H130.346L128.659 253.596ZM119.419 252.896H128.099L129.45 247.219H121.05L119.419 252.896Z" fill="white"/>
<path d="M194.382 253.246L193.766 246.869H184.645L184.953 253.246H194.382Z" fill="#263238"/>
<path d="M194.766 253.596H184.616L184.273 246.519H194.073L194.766 253.596ZM185.288 252.896H193.996L193.45 247.219H185.008L185.288 252.896Z" fill="white"/>
<path d="M241.528 253.246L239.386 246.869H230.258L232.099 253.246H241.528Z" fill="#263238"/>
<path d="M242.008 253.596H231.83L229.793 246.519H239.635L242.008 253.596ZM232.355 252.896H241.035L239.131 247.219H230.731L232.355 252.896Z" fill="white"/>
<path d="M213.24 253.246L212.015 246.869H202.887L203.811 253.246H213.24Z" fill="#263238"/>
<path d="M213.66 253.596H203.51L202.488 246.519H212.288L213.66 253.596ZM204.112 252.896H212.799L211.707 247.219H203.307L204.112 252.896Z" fill="white"/>
<path d="M203.811 253.246L202.887 246.869H193.766L194.382 253.246H203.811Z" fill="#263238"/>
<path d="M204.217 253.596H194.067L193.367 246.519H203.167L204.217 253.596ZM194.697 252.896H203.405L202.586 247.219H194.151L194.697 252.896Z" fill="white"/>
<path d="M175.523 253.246L175.516 246.869H166.395L166.094 253.246H175.523Z" fill="#263238"/>
<path d="M175.873 253.596H165.73L166.059 246.519H175.859L175.873 253.596ZM166.465 252.896H175.173V247.219H166.731L166.465 252.896Z" fill="white"/>
<path d="M109.525 253.246H100.096L97.4922 260.057H107.243L109.525 253.246Z" fill="#263238"/>
<path d="M107.496 260.4H96.9961L99.8661 252.889H110.023L107.496 260.4ZM97.9971 259.7H106.992L109.036 253.589H100.335L97.9971 259.7Z" fill="white"/>
<path d="M111.655 246.869H102.527L100.098 253.246H109.527L111.655 246.869Z" fill="#263238"/>
<path d="M109.771 253.596H99.5859L102.288 246.519H112.137L109.771 253.596ZM100.601 252.896H109.267L111.164 247.219H102.764L100.601 252.896Z" fill="white"/>
<path d="M118.949 253.246L120.776 246.869H111.655L109.527 253.246H118.949Z" fill="#263238"/>
<path d="M119.213 253.596H109.035L111.401 246.519H121.201L119.213 253.596ZM110.008 252.896H118.688L120.312 247.219H111.912L110.008 252.896Z" fill="white"/>
<path d="M94.703 267.358L91.707 275.205H102.186L104.811 267.358H94.703Z" fill="#263238"/>
<path d="M102.437 275.555H91.1953L94.4993 267.008H105.328L102.437 275.555ZM92.2103 274.855H101.933L104.299 267.708H94.9473L92.2103 274.855Z" fill="white"/>
<path d="M107.243 260.057H97.4922L94.6992 267.358H104.807L107.243 260.057Z" fill="#263238"/>
<path d="M105.062 267.708H94.1914L97.2504 259.7H107.75L105.062 267.708ZM95.2134 267.008H104.558L106.763 260.407H97.7334L95.2134 267.008Z" fill="white"/>
<path d="M104.809 267.358L102.184 275.205H112.663L114.91 267.358H104.809Z" fill="#263238"/>
<path d="M112.93 275.555H101.73L104.586 267.008H115.401L112.93 275.555ZM102.668 274.855H112.398L114.449 267.708H105.062L102.668 274.855Z" fill="white"/>
<path d="M147.238 253.246L148.148 246.869H139.027L137.809 253.246H147.238Z" fill="#263238"/>
<path d="M147.544 253.596H137.387L138.731 246.519H148.531L147.544 253.596ZM138.234 252.896H146.935L147.74 247.219H139.298L138.234 252.896Z" fill="white"/>
<path d="M146.263 260.057L147.236 253.246H137.807L136.512 260.057H146.263Z" fill="#263238"/>
<path d="M146.57 260.4H136.07L137.505 252.889H147.627L146.57 260.4ZM136.931 259.7H145.961L146.836 253.589H138.1L136.931 259.7Z" fill="white"/>
<path d="M136.512 260.057L137.807 253.246H128.378L126.754 260.057H136.512Z" fill="#263238"/>
<path d="M136.801 260.4H126.301L128.1 252.896H138.229L136.801 260.4ZM127.204 259.7H136.22L137.389 253.589H128.66L127.204 259.7Z" fill="white"/>
<path d="M156.02 260.057L156.664 253.246H147.235L146.262 260.057H156.02Z" fill="#263238"/>
<path d="M156.336 260.4H145.836L146.907 252.889H157.022L156.336 260.4ZM146.669 259.7H155.699L156.28 253.589H147.544L146.669 259.7Z" fill="white"/>
<path d="M118.95 253.246H109.528L107.246 260.057H117.004L118.95 253.246Z" fill="#263238"/>
<path d="M117.262 260.4H106.762L109.268 252.889H119.418L117.262 260.4ZM107.735 259.7H116.737L118.487 253.589H109.772L107.735 259.7Z" fill="white"/>
<path d="M236.166 267.358H246.267L243.817 260.057H234.059L236.166 267.358Z" fill="#263238"/>
<path d="M246.754 267.708H235.897L233.594 259.7H244.094L246.754 267.708ZM236.422 267.008H245.781L243.597 260.4H234.497L236.422 267.008Z" fill="white"/>
<path d="M126.755 260.057L128.379 253.246H118.95L117.004 260.057H126.755Z" fill="#263238"/>
<path d="M127.035 260.4H116.535L118.691 252.889H128.799L127.035 260.4ZM117.466 259.7H126.482L127.938 253.589H119.216L117.466 259.7Z" fill="white"/>
<path d="M107.245 260.057L104.809 267.358H114.91L117.003 260.057H107.245Z" fill="#263238"/>
<path d="M115.175 267.708H104.297L106.992 259.7H117.492L115.175 267.708ZM105.291 267.008H114.643L116.533 260.407H107.496L105.291 267.008Z" fill="white"/>
<path d="M214.547 260.057L213.238 253.246H203.809L204.796 260.057H214.547Z" fill="#263238"/>
<path d="M214.976 260.4H204.476L203.391 252.889H213.499L214.976 260.4ZM205.099 259.7H214.129L212.946 253.589H204.217L205.099 259.7Z" fill="white"/>
<path d="M204.799 260.057L203.812 253.246H194.383L195.041 260.057H204.799Z" fill="#263238"/>
<path d="M205.196 260.4H194.696L193.996 252.889H204.111L205.196 260.4ZM195.354 259.7H204.398L203.516 253.589H194.766L195.354 259.7Z" fill="white"/>
<path d="M234.057 260.057L232.097 253.246H222.668L224.306 260.057H234.057Z" fill="#263238"/>
<path d="M234.497 260.4H223.997L222.191 252.889H232.327L234.497 260.4ZM224.55 259.7H233.566L231.802 253.589H223.108L224.55 259.7Z" fill="white"/>
<path d="M175.531 260.057L175.524 253.246H166.095L165.773 260.057H175.531Z" fill="#263238"/>
<path d="M175.879 260.4H165.379L165.729 252.889H175.844L175.879 260.4ZM166.142 259.7H175.179V253.589H166.429L166.142 259.7Z" fill="white"/>
<path d="M195.04 260.057L194.382 253.246H184.953L185.282 260.057H195.04Z" fill="#263238"/>
<path d="M195.426 260.4H184.926L184.555 252.889H194.67L195.426 260.4ZM185.626 259.7H194.663L194.075 253.589H185.325L185.626 259.7Z" fill="white"/>
<path d="M185.281 260.057L184.952 253.246H175.523L175.53 260.057H185.281Z" fill="#263238"/>
<path d="M185.652 260.4H175.152V252.896H185.288L185.652 260.4ZM175.852 259.7H184.889L184.588 253.589H175.873L175.852 259.7Z" fill="white"/>
<path d="M165.771 260.057L166.093 253.246H156.664L156.02 260.057H165.771Z" fill="#263238"/>
<path d="M166.109 260.4H155.609L156.309 252.889H166.424L166.109 260.4ZM156.407 259.7H165.444L165.731 253.589H156.988L156.407 259.7Z" fill="white"/>
<path d="M195.039 260.057L195.746 267.358H205.847L204.797 260.057H195.039Z" fill="#263238"/>
<path d="M206.251 267.708H195.422L194.652 259.7H205.096L206.251 267.708ZM196.059 267.008H205.446L204.487 260.4H195.422L196.059 267.008Z" fill="white"/>
<path d="M204.797 260.057L205.847 267.358H215.955L214.548 260.057H204.797Z" fill="#263238"/>
<path d="M216.375 267.708H205.546L204.398 259.7H214.842L216.375 267.708ZM206.155 267.008H215.528L214.261 260.4H205.196L206.155 267.008Z" fill="white"/>
<path d="M117.003 260.057L114.91 267.358H125.011L126.754 260.057H117.003Z" fill="#263238"/>
<path d="M125.299 267.708H114.449L116.738 259.7H127.203L125.299 267.708ZM115.38 267.008H124.739L126.314 260.407H117.263L115.38 267.008Z" fill="white"/>
<path d="M214.547 260.057L215.954 267.358H226.055L224.305 260.057H214.547Z" fill="#263238"/>
<path d="M226.505 267.708H215.669L214.129 259.7H224.58L226.505 267.708ZM216.243 267.008H225.616L223.999 260.4H214.976L216.243 267.008Z" fill="white"/>
<path d="M175.531 260.057L175.538 267.358H185.639L185.282 260.057H175.531Z" fill="#263238"/>
<path d="M186.01 267.708H175.188V259.7H185.624L186.01 267.708ZM175.887 267.008H185.274L184.952 260.407H175.852L175.887 267.008Z" fill="white"/>
<path d="M224.305 260.057L226.055 267.358H236.163L234.056 260.057H224.305Z" fill="#263238"/>
<path d="M236.599 267.708H225.784L223.859 259.7H234.324L236.599 267.708ZM226.309 267.008H235.668L233.799 260.4H224.748L226.309 267.008Z" fill="white"/>
<path d="M185.281 260.057L185.638 267.358H195.746L195.039 260.057H185.281Z" fill="#263238"/>
<path d="M196.132 267.708H185.31L184.918 259.7H195.355L196.132 267.708ZM185.975 267.008H195.362L194.725 260.407H185.625L185.975 267.008Z" fill="white"/>
<path d="M136.51 260.057L135.117 267.358H145.225L146.261 260.057H136.51Z" fill="#263238"/>
<path d="M145.528 267.708H134.699L136.218 259.7H146.669L145.528 267.708ZM135.539 267.008H144.898L145.843 260.407H136.799L135.539 267.008Z" fill="white"/>
<path d="M126.755 260.057L125.012 267.358H135.12L136.513 260.057H126.755Z" fill="#263238"/>
<path d="M135.406 267.708H124.598L126.481 259.7H136.932L135.406 267.708ZM125.459 267.008H134.832L136.085 260.407H127.034L125.459 267.008Z" fill="white"/>
<path d="M165.774 260.057L165.438 267.358H175.539L175.531 260.057H165.774Z" fill="#263238"/>
<path d="M175.888 267.708H165.066L165.444 259.707H175.881L175.888 267.708ZM165.801 267.008H175.188V260.4H166.088L165.801 267.008Z" fill="white"/>
<path d="M156.021 260.057L155.328 267.358H165.436L165.772 260.057H156.021Z" fill="#263238"/>
<path d="M165.763 267.708H154.941L155.697 259.7H166.141L165.763 267.708ZM155.711 267.008H165.098L165.406 260.407H156.306L155.711 267.008Z" fill="white"/>
<path d="M146.263 260.057L145.227 267.358H155.328L156.021 260.057H146.263Z" fill="#263238"/>
<path d="M155.642 267.708H144.82L145.961 259.7H156.405L155.642 267.708ZM145.625 267.008H155.005L155.635 260.407H146.535L145.625 267.008Z" fill="white"/>
<path d="M224.305 260.057L222.667 253.246H213.238L214.547 260.057H224.305Z" fill="#263238"/>
<path d="M224.746 260.4H214.246L212.797 252.896H222.926L224.746 260.4ZM214.834 259.7H223.857L222.387 253.589H213.658L214.834 259.7Z" fill="white"/>
<path d="M111.655 246.869L113.832 240.345H105.019L102.527 246.869H111.655Z" fill="#263238"/>
<path d="M111.907 247.219H102.023L104.781 239.995H114.322L111.907 247.219ZM103.038 246.519H111.438L113.384 240.695H105.264L103.038 246.519Z" fill="white"/>
<path d="M102.528 246.869H94.1066L91.3906 253.246H100.099L102.528 246.869Z" fill="#263238"/>
<path d="M100.334 253.596H90.8633L93.8733 246.519H103.036L100.334 253.596ZM91.9343 252.896H99.8653L102.035 247.219H94.3353L91.9343 252.896Z" fill="white"/>
<path d="M105.018 240.345H96.8845L94.1055 246.869H102.526L105.018 240.345Z" fill="#263238"/>
<path d="M102.773 247.219H93.582L96.655 239.995H105.531L102.773 247.219ZM94.639 246.519H102.29L104.516 240.695H97.124L94.639 246.519Z" fill="white"/>
<path d="M100.097 253.246H91.3894L88.4844 260.057H97.4934L100.097 253.246Z" fill="#263238"/>
<path d="M97.7336 260.4H87.9336L91.1326 252.889H100.576L97.7336 260.4ZM89.0186 259.7H97.2506L99.5886 253.589H91.6226L89.0186 259.7Z" fill="white"/>
<path d="M97.4959 260.057H88.4869L85.3789 267.358H94.7029L97.4959 260.057Z" fill="#263238"/>
<path d="M94.9447 267.708H84.8438L88.2528 259.7H97.9968L94.9447 267.708ZM85.9008 267.008H94.4968L97.0168 260.407H88.7147L85.9008 267.008Z" fill="white"/>
<path d="M94.7012 267.358H85.3772L82.0312 275.205H91.7052L94.7012 267.358Z" fill="#263238"/>
<path d="M91.944 275.555H81.5L85.147 267.008H95.199L91.944 275.555ZM82.564 274.855H91.461L94.191 267.708H85.609L82.564 274.855Z" fill="white"/>
<path d="M250.957 253.246L253.568 260.057H262.199L259.294 253.246H250.957Z" fill="#263238"/>
<path d="M262.73 260.4H253.329L250.445 252.889H259.545L262.73 260.4ZM253.812 259.7H261.666L259.062 253.589H251.46L253.812 259.7Z" fill="white"/>
<path d="M256.373 267.358H265.312L262.197 260.057H253.566L256.373 267.358Z" fill="#263238"/>
<path d="M265.837 267.708H256.129L253.062 259.7H262.429L265.837 267.708ZM256.612 267.008H264.781L261.981 260.407H254.099L256.612 267.008Z" fill="white"/>
<path d="M259.385 275.205H268.653L265.314 267.358H256.375L259.385 275.205Z" fill="#263238"/>
<path d="M269.184 275.555H259.146L255.863 267.008H265.544L269.184 275.555ZM259.622 274.855H268.099L265.054 267.708H256.899L259.622 274.855Z" fill="white"/>
<path d="M184.643 246.869L184.321 240.345H175.508L175.515 246.869H184.643Z" fill="#263238"/>
<path d="M185.01 247.219H175.168V239.995H184.66L185.01 247.219ZM175.868 246.519H184.268L183.981 240.695H175.861L175.868 246.519Z" fill="white"/>
<path d="M250.954 253.246H259.291L256.575 246.869H248.504L250.954 253.246Z" fill="#263238"/>
<path d="M259.824 253.596H250.724L248.008 246.519H256.821L259.824 253.596ZM251.193 252.896H258.76L256.345 247.219H249.016L251.193 252.896Z" fill="white"/>
<path d="M246.266 267.358H256.374L253.567 260.057H243.816L246.266 267.358Z" fill="#263238"/>
<path d="M256.897 267.708H246.012L243.324 259.7H253.824L256.897 267.708ZM246.53 267.008H255.875L253.327 260.4H244.297L246.53 267.008Z" fill="white"/>
<path d="M120.777 246.869L122.646 240.345H113.833L111.656 246.869H120.777Z" fill="#263238"/>
<path d="M121.041 247.219H111.164L113.579 239.995H123.106L121.041 247.219ZM112.137 246.519H120.537L122.21 240.695H114.097L112.137 246.519Z" fill="white"/>
<path d="M239.383 246.869L241.525 253.246H250.954L248.504 246.869H239.383Z" fill="#263238"/>
<path d="M251.46 253.596H241.275L238.895 246.519H248.744L251.46 253.596ZM241.779 252.896H250.445L248.268 247.219H239.868L241.779 252.896Z" fill="white"/>
<path d="M256.577 246.869L253.798 240.345H246L248.506 246.869H256.577Z" fill="#263238"/>
<path d="M257.11 247.219H248.269L245.469 239.995H254.03L257.11 247.219ZM248.745 246.519H256.046L253.568 240.695H246.512L248.745 246.519Z" fill="white"/>
<path d="M248.503 246.869L245.997 240.345H237.191L239.382 246.869H248.503Z" fill="#263238"/>
<path d="M249.016 247.219H239.132L236.703 239.995H246.244L249.016 247.219ZM239.636 246.519H247.994L245.761 240.695H237.676L239.636 246.519Z" fill="white"/>
<path d="M215.957 267.358L217.469 275.205H227.948L226.058 267.358H215.957Z" fill="#263238"/>
<path d="M228.388 275.555H217.188L215.543 267.008H226.351L228.388 275.555ZM217.755 274.855H227.499L225.784 267.708H216.376L217.755 274.855Z" fill="white"/>
<path d="M248.905 275.205H259.384L256.374 267.358H246.266L248.905 275.205Z" fill="#263238"/>
<path d="M259.893 275.555H248.651L245.781 267.008H256.61L259.893 275.555ZM249.155 274.855H258.871L256.127 267.708H246.754L249.155 274.855Z" fill="white"/>
<path d="M239.383 246.869L237.192 240.345H228.379L230.255 246.869H239.383Z" fill="#263238"/>
<path d="M239.868 247.219H229.998L227.898 239.995H237.432L239.868 247.219ZM230.523 246.519H238.923L236.97 240.695H228.843L230.523 246.519Z" fill="white"/>
<path d="M236.164 267.358L238.425 275.205H248.904L246.265 267.358H236.164Z" fill="#263238"/>
<path d="M249.387 275.555H238.187L235.723 267.008H246.545L249.387 275.555ZM238.684 274.855H248.414L246.013 267.708H236.598L238.684 274.855Z" fill="white"/>
<path d="M226.055 267.358L227.945 275.205H238.424L236.163 267.358H226.055Z" fill="#263238"/>
<path d="M238.888 275.555H227.688L225.637 267.008H236.445L238.888 275.555ZM228.22 274.855H237.957L235.899 267.708H226.505L228.22 274.855Z" fill="white"/>
<path d="M243.816 260.057H253.567L250.956 253.246H241.527L243.816 260.057Z" fill="#263238"/>
<path d="M254.097 260.4H243.597L241.07 252.889H251.227L254.097 260.4ZM244.087 259.7H253.082L250.73 253.589H242.008L244.087 259.7Z" fill="white"/>
<path d="M157.273 246.869L157.889 240.345H149.076L148.145 246.869H157.273Z" fill="#263238"/>
<path d="M157.587 247.219H147.738L148.774 239.995H158.273L157.587 247.219ZM148.55 246.519H156.95L157.503 240.695H149.383L148.55 246.519Z" fill="white"/>
<path d="M230.255 246.869L228.379 240.345H219.566L221.134 246.869H230.255Z" fill="#263238"/>
<path d="M230.725 247.219H220.862L219.098 239.995H228.611L230.725 247.219ZM221.408 246.519H229.808L228.128 240.695H220.015L221.408 246.519Z" fill="white"/>
<path d="M148.144 246.869L149.075 240.345H140.262L139.023 246.869H148.144Z" fill="#263238"/>
<path d="M148.454 247.219H138.598L139.998 239.995H149.504L148.454 247.219ZM139.445 246.519H147.845L148.678 240.695H140.558L139.445 246.519Z" fill="white"/>
<path d="M175.516 246.869L175.509 240.345H166.703L166.395 246.869H175.516Z" fill="#263238"/>
<path d="M175.866 247.219H166.031L166.367 239.995H175.859L175.866 247.219ZM166.766 246.519H175.166V240.695H167.032L166.766 246.519Z" fill="white"/>
<path d="M139.026 246.869L140.265 240.345H131.459L129.898 246.869H139.026Z" fill="#263238"/>
<path d="M139.299 247.219H129.457L131.179 239.995H140.699L139.299 247.219ZM130.332 246.519H138.732L139.845 240.695H131.732L130.332 246.519Z" fill="white"/>
<path d="M129.898 246.869L131.459 240.345H122.646L120.777 246.869H129.898Z" fill="#263238"/>
<path d="M130.196 247.219H120.312L122.413 239.995H131.932L130.196 247.219ZM121.257 246.519H129.657L131.057 240.695H122.909L121.257 246.519Z" fill="white"/>
<path d="M166.394 246.869L166.702 240.345H157.889L157.273 246.869H166.394Z" fill="#263238"/>
<path d="M166.733 247.219H156.891L157.591 239.995H167.09L166.733 247.219ZM157.633 246.519H166.033L166.306 240.695H158.2L157.633 246.519Z" fill="white"/>
<path d="M221.135 246.869L219.567 240.345H210.754L212.014 246.869H221.135Z" fill="#263238"/>
<path d="M221.576 247.219H211.72L210.32 239.995H219.833L221.576 247.219ZM212.301 246.519H220.701L219.301 240.695H211.181L212.301 246.519Z" fill="white"/>
<path d="M212.015 246.869L210.755 240.345H201.949L202.887 246.869H212.015Z" fill="#263238"/>
<path d="M212.435 247.219H202.586L201.543 239.995H211.049L212.435 247.219ZM203.195 246.519H211.595L210.475 240.695H202.355L203.195 246.519Z" fill="white"/>
<path d="M193.763 246.869L193.133 240.345H184.32L184.642 246.869H193.763Z" fill="#263238"/>
<path d="M194.149 247.219H184.307L183.957 239.995H193.449L194.149 247.219ZM184.972 246.519H193.372L192.805 240.695H184.685L184.972 246.519Z" fill="white"/>
<path d="M215.956 267.358H205.848H195.747H185.639H175.538H165.437H155.329H145.228H135.12H125.012H114.911L112.664 275.205H123.143H133.622H144.108H154.587H165.066H175.545H186.024H196.503H206.982H217.468L215.956 267.358Z" fill="#263238"/>
<path d="M217.887 275.555H112.188L114.63 267.008H216.242L217.887 275.555ZM113.125 274.855H217.04L215.64 267.708H115.176L113.125 274.855Z" fill="white"/>
<path d="M202.888 246.869L201.95 240.345H193.137L193.767 246.869H202.888Z" fill="#263238"/>
<path d="M203.292 247.219H193.45L192.75 239.995H202.249L203.292 247.219ZM194.08 246.519H202.48L201.633 240.695H193.513L194.08 246.519Z" fill="white"/>
<mask id="mask0_2050_3897" style="mask-type:luminance" maskUnits="userSpaceOnUse" x="113" y="99" width="124" height="128">
<path d="M236.55 99.463H113.168V226.961H236.55V99.463Z" fill="white"/>
</mask>
<g mask="url(#mask0_2050_3897)">
<path d="M186.985 184.926C197.296 184.926 205.654 174.286 205.654 161.161C205.654 148.036 197.296 137.396 186.985 137.396C176.675 137.396 168.316 148.036 168.316 161.161C168.316 174.286 176.675 184.926 186.985 184.926Z" fill="#263238"/>
<path d="M186.983 185.269C176.483 185.269 167.957 174.454 167.957 161.161C167.957 147.868 176.49 137.046 186.983 137.046C197.476 137.046 206.002 147.861 206.002 161.161C206.002 174.461 197.469 185.269 186.983 185.269ZM186.983 137.746C176.875 137.746 168.657 148.246 168.657 161.161C168.657 174.076 176.875 184.569 186.983 184.569C197.091 184.569 205.302 174.069 205.302 161.161C205.302 148.253 197.084 137.746 186.983 137.746Z" fill="#263238"/>
<path d="M144.9 221.683C143.185 221.683 141.239 220.164 140.203 219.226C138.747 217.903 137.242 216.048 137.242 215.222C137.242 214.039 151.242 171.822 152.859 167.027C152.877 166.971 152.909 166.921 152.952 166.88C152.995 166.84 153.047 166.811 153.104 166.796C153.16 166.782 153.219 166.782 153.275 166.795C153.331 166.808 153.383 166.835 153.426 166.873L158.725 171.71C158.767 171.748 158.798 171.795 158.818 171.847C158.837 171.899 158.844 171.956 158.837 172.011L153.615 217.875C153.609 217.928 153.59 217.979 153.561 218.024C153.532 218.069 153.493 218.107 153.447 218.134C153.23 218.267 148.12 221.375 145.173 221.669L144.9 221.683ZM153.356 167.783C148.946 181.083 138.061 213.983 137.956 215.264C137.956 215.663 139.02 217.224 140.686 218.729C142.352 220.234 144.011 221.102 145.117 220.997C147.644 220.745 152.117 218.162 152.95 217.651L158.137 172.151L153.356 167.783Z" fill="#263238"/>
<path d="M184.136 160.937L153.168 167.132L158.124 228.144H218.52L226.57 164.654L189.708 160.629L184.136 160.937Z" fill="#AF85C7"/>
<path d="M218.52 228.494H158.124C158.036 228.494 157.952 228.461 157.888 228.401C157.824 228.341 157.786 228.259 157.781 228.172L152.818 167.16C152.811 167.075 152.835 166.99 152.887 166.921C152.939 166.853 153.014 166.806 153.098 166.789L184.101 160.594L189.701 160.279L226.612 164.311C226.704 164.321 226.789 164.366 226.85 164.437C226.878 164.475 226.899 164.517 226.911 164.563C226.923 164.609 226.926 164.656 226.92 164.703L218.87 228.2C218.856 228.283 218.813 228.358 218.749 228.412C218.685 228.466 218.603 228.495 218.52 228.494ZM158.453 227.794H218.212L226.178 164.969L189.701 161L184.206 161.308L153.567 167.44L158.453 227.794Z" fill="#263238"/>
<mask id="mask1_2050_3897" style="mask-type:luminance" maskUnits="userSpaceOnUse" x="153" y="160" width="74" height="69">
<mask id="mask2_2050_3897" style="mask-type:luminance" maskUnits="userSpaceOnUse" x="153" y="160" width="74" height="69">
<path d="M184.136 160.937L153.168 167.132L158.124 228.144H218.52L226.57 164.654L189.708 160.629L184.136 160.937Z" fill="white"/>
</mask>
<g mask="url(#mask2_2050_3897)">
<path d="M218.52 228.494H158.124C158.036 228.494 157.952 228.461 157.888 228.401C157.824 228.341 157.786 228.259 157.781 228.172L152.818 167.16C152.811 167.075 152.835 166.99 152.887 166.921C152.939 166.853 153.014 166.806 153.098 166.789L184.101 160.594L189.701 160.279L226.612 164.311C226.704 164.321 226.789 164.366 226.85 164.437C226.878 164.475 226.899 164.517 226.911 164.563C226.923 164.609 226.926 164.656 226.92 164.703L218.87 228.2C218.856 228.283 218.813 228.358 218.749 228.412C218.685 228.466 218.603 228.495 218.52 228.494ZM158.453 227.794H218.212L226.178 164.969L189.701 161L184.206 161.308L153.567 167.44L158.453 227.794Z" fill="white"/>
</g>
</mask>
<g mask="url(#mask1_2050_3897)">
<path opacity="0.3" d="M158.126 228.144H218.522L220.041 216.195L219.929 215.614L205.355 218.792L211.711 192.038L176.739 207.403L168.262 215.88H173.561L157.965 226.142L158.126 228.144Z" fill="black"/>
</g>
<path d="M180.845 157.5C180.845 157.5 175.819 160.251 174.545 162.722C173.271 165.193 168 183.547 168 183.547L176.673 185.409L168.315 189.434L180.964 225.666L201.096 224.427L214.2 186.333L206.143 182.931L213.269 179.83C213.269 179.83 206.458 166.824 202.769 161.252C199.08 155.68 180.845 157.5 180.845 157.5Z" fill="#AF85C7"/>
<path d="M180.994 226.016C180.922 226.016 180.852 225.994 180.793 225.952C180.734 225.911 180.689 225.853 180.665 225.785L168.002 189.546C167.975 189.465 167.978 189.377 168.012 189.298C168.045 189.219 168.106 189.156 168.184 189.119L175.625 185.535L167.925 183.89C167.877 183.88 167.833 183.86 167.793 183.833C167.753 183.805 167.72 183.77 167.694 183.729C167.669 183.687 167.653 183.641 167.647 183.593C167.641 183.544 167.645 183.496 167.659 183.449C167.876 182.7 172.993 165.046 174.232 162.568C175.471 160.09 180.434 157.311 180.644 157.192C180.684 157.17 180.73 157.158 180.777 157.157C181.526 157.08 199.187 155.372 202.974 161.056C206.663 166.579 213.474 179.543 213.523 179.669C213.543 179.713 213.554 179.761 213.554 179.809C213.554 179.857 213.543 179.905 213.523 179.949C213.508 179.995 213.484 180.037 213.451 180.072C213.418 180.107 213.378 180.134 213.334 180.152L206.957 182.952L214.258 186.039C214.34 186.075 214.405 186.14 214.441 186.221C214.478 186.303 214.482 186.395 214.454 186.48L201.399 224.574C201.375 224.638 201.334 224.695 201.279 224.736C201.225 224.777 201.159 224.801 201.091 224.805L180.959 226.044L180.994 226.016ZM168.772 189.616L181.239 225.316L200.839 224.112L213.712 186.543L205.963 183.267C205.899 183.241 205.844 183.196 205.805 183.139C205.767 183.082 205.746 183.014 205.746 182.945C205.746 182.877 205.766 182.81 205.804 182.753C205.841 182.696 205.894 182.651 205.956 182.623L212.739 179.676C211.647 177.576 205.739 166.46 202.4 161.476C198.956 156.31 182.163 157.766 180.924 157.878C180.35 158.2 175.968 160.678 174.862 162.918C173.756 165.158 169.199 180.74 168.443 183.323L176.752 185.101C176.823 185.117 176.887 185.154 176.936 185.208C176.985 185.262 177.016 185.33 177.025 185.402C177.031 185.474 177.016 185.547 176.981 185.611C176.946 185.674 176.893 185.726 176.829 185.759L168.772 189.616Z" fill="#263238"/>
<path d="M180.06 228.767L179.801 164.969L196.524 163.415L201.431 228.144L180.06 228.767Z" fill="white"/>
<path d="M180.062 229.117C179.971 229.116 179.884 229.081 179.817 229.019C179.751 228.951 179.714 228.861 179.712 228.767L179.453 164.969C179.451 164.881 179.483 164.796 179.541 164.731C179.6 164.666 179.681 164.626 179.768 164.619L196.491 163.1C196.537 163.093 196.584 163.097 196.629 163.11C196.674 163.123 196.715 163.146 196.75 163.177C196.823 163.239 196.868 163.327 196.876 163.422L201.776 228.151C201.779 228.198 201.772 228.245 201.757 228.29C201.741 228.334 201.717 228.375 201.685 228.41C201.654 228.445 201.615 228.474 201.571 228.493C201.528 228.512 201.481 228.522 201.433 228.522L180.069 229.145L180.062 229.117ZM180.153 165.284L180.412 228.403L201.055 227.808L196.204 163.8L180.153 165.284Z" fill="#263238"/>
<path d="M177.324 148.239C177.324 148.239 179.487 160.321 179.802 163.415C180.117 166.509 188.111 188.51 190.505 184.919C193.116 181.006 196.217 168.686 196.805 165.893C197.393 163.1 197.428 151.032 197.428 151.032C197.428 151.032 189.399 156.604 177.324 148.239Z" fill="white"/>
<path d="M189.876 185.668C189.786 185.666 189.697 185.655 189.61 185.633C186.32 184.814 179.754 166.439 179.453 163.45C179.152 160.461 177.003 148.428 176.975 148.302C176.962 148.234 176.97 148.163 176.998 148.099C177.025 148.035 177.071 147.981 177.13 147.943C177.188 147.906 177.257 147.886 177.327 147.888C177.396 147.89 177.464 147.912 177.521 147.952C189.267 156.086 197.177 150.794 197.254 150.752C197.309 150.719 197.372 150.702 197.436 150.702C197.5 150.702 197.563 150.719 197.618 150.752C197.674 150.783 197.722 150.829 197.755 150.884C197.788 150.939 197.806 151.003 197.807 151.067C197.807 151.557 197.807 163.212 197.177 166.005C196.477 169.043 193.446 181.181 190.8 185.15C190.702 185.307 190.566 185.437 190.404 185.528C190.243 185.618 190.061 185.667 189.876 185.668ZM177.801 148.995C178.291 151.795 179.901 160.741 180.132 163.38C180.433 166.397 187.069 184.282 189.764 184.954C189.89 184.954 190.037 184.954 190.205 184.73C192.76 180.887 195.854 168.63 196.505 165.83C197.03 163.471 197.107 154.126 197.114 151.648C195.098 152.677 187.818 155.568 177.801 148.995Z" fill="#263238"/>
<mask id="mask3_2050_3897" style="mask-type:luminance" maskUnits="userSpaceOnUse" x="177" y="148" width="21" height="38">
<mask id="mask4_2050_3897" style="mask-type:luminance" maskUnits="userSpaceOnUse" x="177" y="148" width="21" height="38">
<path d="M177.324 148.239C177.324 148.239 179.487 160.321 179.802 163.415C180.117 166.509 188.111 188.51 190.505 184.919C193.116 181.006 196.217 168.686 196.805 165.893C197.393 163.1 197.428 151.032 197.428 151.032C197.428 151.032 189.399 156.604 177.324 148.239Z" fill="white"/>
</mask>
<g mask="url(#mask4_2050_3897)">
<path d="M189.876 185.668C189.786 185.666 189.697 185.655 189.61 185.633C186.32 184.814 179.754 166.439 179.453 163.45C179.152 160.461 177.003 148.428 176.975 148.302C176.962 148.234 176.97 148.163 176.998 148.099C177.025 148.035 177.071 147.981 177.13 147.943C177.188 147.906 177.257 147.886 177.327 147.888C177.396 147.89 177.464 147.912 177.521 147.952C189.267 156.086 197.177 150.794 197.254 150.752C197.309 150.719 197.372 150.702 197.436 150.702C197.5 150.702 197.563 150.719 197.618 150.752C197.674 150.783 197.722 150.829 197.755 150.884C197.788 150.939 197.806 151.003 197.807 151.067C197.807 151.557 197.807 163.212 197.177 166.005C196.477 169.043 193.446 181.181 190.8 185.15C190.702 185.307 190.566 185.437 190.404 185.528C190.243 185.618 190.061 185.667 189.876 185.668ZM177.801 148.995C178.291 151.795 179.901 160.741 180.132 163.38C180.433 166.397 187.069 184.282 189.764 184.954C189.89 184.954 190.037 184.954 190.205 184.73C192.76 180.887 195.854 168.63 196.505 165.83C197.03 163.471 197.107 154.126 197.114 151.648C195.098 152.677 187.818 155.568 177.801 148.995Z" fill="white"/>
</g>
</mask>
<g mask="url(#mask3_2050_3897)">
<path d="M197.33 159.061C197.456 155.099 197.456 151.032 197.456 151.032C197.456 151.032 189.399 156.632 177.324 148.232C177.324 148.232 178.213 153.209 178.934 157.591C180.586 159.691 183.729 163.03 187.607 163.653C191.59 164.297 194.81 162.183 197.33 159.061Z" fill="#AF85C7"/>
<path opacity="0.5" d="M197.33 159.061C197.456 155.099 197.456 151.032 197.456 151.032C197.456 151.032 189.399 156.632 177.324 148.232C177.324 148.232 178.213 153.209 178.934 157.591C180.586 159.691 183.729 163.03 187.607 163.653C191.59 164.297 194.81 162.183 197.33 159.061Z" fill="white"/>
</g>
<path d="M203.957 136.164C203.957 136.164 207.359 131.824 207.359 136.78C207.359 141.736 203.957 142.38 203.957 142.38V136.164Z" fill="white"/>
<path d="M203.96 142.709C203.877 142.71 203.797 142.68 203.736 142.625C203.695 142.594 203.662 142.554 203.64 142.507C203.618 142.461 203.608 142.41 203.61 142.359V136.164C203.608 136.086 203.633 136.01 203.68 135.947C203.981 135.569 205.521 133.707 206.697 134.113C207.397 134.351 207.712 135.226 207.712 136.78C207.712 141.967 204.058 142.695 204.023 142.702L203.96 142.709ZM204.31 136.283V141.883C205.157 141.547 207.012 140.392 207.012 136.78C207.012 135.142 206.634 134.834 206.473 134.778C205.955 134.603 204.912 135.548 204.31 136.283Z" fill="#263238"/>
<path d="M170.199 125.944C170.199 125.944 174.224 144.193 174.224 146.692C174.224 151.949 184.136 157.843 188.469 159.082C192.802 160.321 203.337 150.717 203.96 148.239C204.583 145.761 204.884 124.082 203.645 119.749C202.406 115.416 195.301 112.623 190.639 112.623C185.977 112.623 172.369 115.101 170.199 125.944Z" fill="white"/>
<path d="M189.324 159.544C189.004 159.547 188.686 159.505 188.379 159.418C184.179 158.214 173.875 152.264 173.875 146.692C173.875 144.263 169.899 126.203 169.857 126.021C169.85 125.972 169.85 125.923 169.857 125.874C172.076 114.772 185.957 112.273 190.64 112.273C195.323 112.273 202.68 115.073 203.982 119.651C205.284 124.229 204.906 145.894 204.297 148.351C203.842 150.178 198.739 155.225 194.147 157.878C192.201 158.977 190.584 159.544 189.324 159.544ZM170.557 125.944C170.872 127.379 174.575 144.249 174.575 146.699C174.575 151.711 184.298 157.528 188.575 158.753C189.73 159.082 191.536 158.564 193.804 157.255C198.354 154.63 203.247 149.667 203.604 148.155C204.185 145.824 204.535 124.173 203.296 119.847C202.099 115.647 194.994 112.973 190.626 112.973C186.111 112.973 172.734 115.36 170.557 125.937V125.944Z" fill="#263238"/>
<mask id="mask5_2050_3897" style="mask-type:luminance" maskUnits="userSpaceOnUse" x="170" y="112" width="35" height="48">
<mask id="mask6_2050_3897" style="mask-type:luminance" maskUnits="userSpaceOnUse" x="170" y="112" width="35" height="48">
<path d="M170.199 125.944C170.199 125.944 174.224 144.193 174.224 146.692C174.224 151.949 184.136 157.843 188.469 159.082C192.802 160.321 203.337 150.717 203.96 148.239C204.583 145.761 204.884 124.082 203.645 119.749C202.406 115.416 195.301 112.623 190.639 112.623C185.977 112.623 172.369 115.101 170.199 125.944Z" fill="white"/>
</mask>
<g mask="url(#mask6_2050_3897)">
<path d="M189.324 159.544C189.004 159.547 188.686 159.505 188.379 159.418C184.179 158.214 173.875 152.264 173.875 146.692C173.875 144.263 169.899 126.203 169.857 126.021C169.85 125.972 169.85 125.923 169.857 125.874C172.076 114.772 185.957 112.273 190.64 112.273C195.323 112.273 202.68 115.073 203.982 119.651C205.284 124.229 204.906 145.894 204.297 148.351C203.842 150.178 198.739 155.225 194.147 157.878C192.201 158.977 190.584 159.544 189.324 159.544ZM170.557 125.944C170.872 127.379 174.575 144.249 174.575 146.699C174.575 151.711 184.298 157.528 188.575 158.753C189.73 159.082 191.536 158.564 193.804 157.255C198.354 154.63 203.247 149.667 203.604 148.155C204.185 145.824 204.535 124.173 203.296 119.847C202.099 115.647 194.994 112.973 190.626 112.973C186.111 112.973 172.734 115.36 170.557 125.937V125.944Z" fill="white"/>
</g>
</mask>
<g mask="url(#mask5_2050_3897)">
<path d="M190.639 112.623C185.998 112.623 172.369 115.101 170.199 125.923C170.199 125.923 172.607 136.843 173.699 142.947C173.699 140.147 174.189 134.785 177.199 132.447C181.357 129.213 188.294 128.744 192.221 126.896C196.148 125.048 197.072 120.197 197.072 120.197C197.072 120.197 197.303 128.744 199.172 130.83C201.041 132.916 202.875 134.33 203.106 137.991C203.337 141.652 204.03 145.383 202.182 148.393C200.334 151.403 192.704 157.171 189.239 158.326C188.707 158.508 188.189 158.662 187.699 158.809C187.972 158.907 188.238 158.998 188.483 159.068C192.823 160.307 203.351 150.703 203.974 148.225C204.597 145.747 204.898 124.068 203.659 119.735C202.42 115.402 195.301 112.623 190.639 112.623Z" fill="#AF85C7"/>
<path d="M184.208 157.248C182.521 155.547 177.908 150.836 175.808 148.407C175.201 147.715 174.657 146.97 174.184 146.181C174.184 146.384 174.184 146.566 174.184 146.692C174.226 150.577 179.63 154.805 184.208 157.248Z" fill="#AF85C7"/>
<g opacity="0.5">
<path d="M190.639 112.623C185.998 112.623 172.369 115.101 170.199 125.923C170.199 125.923 172.607 136.843 173.699 142.947C173.699 140.147 174.189 134.785 177.199 132.447C181.357 129.213 188.294 128.744 192.221 126.896C196.148 125.048 197.072 120.197 197.072 120.197C197.072 120.197 197.303 128.744 199.172 130.83C201.041 132.916 202.875 134.33 203.106 137.991C203.337 141.652 204.03 145.383 202.182 148.393C200.334 151.403 192.704 157.171 189.239 158.326C188.707 158.508 188.189 158.662 187.699 158.809C187.972 158.907 188.238 158.998 188.483 159.068C192.823 160.307 203.351 150.703 203.974 148.225C204.597 145.747 204.898 124.068 203.659 119.735C202.42 115.402 195.301 112.623 190.639 112.623Z" fill="white"/>
<path d="M184.208 157.248C182.521 155.547 177.908 150.836 175.808 148.407C175.201 147.715 174.657 146.97 174.184 146.181C174.184 146.384 174.184 146.566 174.184 146.692C174.226 150.577 179.63 154.805 184.208 157.248Z" fill="white"/>
</g>
</g>
<path d="M186.235 137.151C186.235 138.019 185.85 138.719 185.367 138.719C184.884 138.719 184.492 138.019 184.492 137.151C184.492 136.283 184.884 135.583 185.367 135.583C185.85 135.583 186.235 136.283 186.235 137.151Z" fill="#263238"/>
<path d="M196.434 137.151C196.434 138.019 196.042 138.719 195.559 138.719C195.076 138.719 194.684 138.019 194.684 137.151C194.684 136.283 195.076 135.583 195.559 135.583C196.042 135.583 196.434 136.283 196.434 137.151Z" fill="#263238"/>
<path d="M191.696 143.78C191.625 143.781 191.556 143.76 191.498 143.72C191.441 143.68 191.397 143.622 191.374 143.556C191.339 143.471 191.339 143.375 191.374 143.29C191.41 143.204 191.477 143.137 191.563 143.101C192.963 142.555 194.937 141.477 195.063 140.805C195.119 140.546 195.014 140.455 194.125 140.259C193.479 140.171 192.87 139.904 192.368 139.489C191.325 138.446 192.179 135.52 192.284 135.191C192.31 135.098 192.373 135.02 192.458 134.973C192.5 134.95 192.546 134.936 192.593 134.93C192.641 134.925 192.689 134.929 192.735 134.943C192.781 134.956 192.824 134.978 192.861 135.008C192.899 135.038 192.93 135.075 192.953 135.117C192.976 135.159 192.99 135.205 192.996 135.252C193.001 135.3 192.997 135.348 192.984 135.394C192.648 136.486 192.326 138.432 192.893 138.999C193.302 139.308 193.784 139.505 194.293 139.573C194.993 139.734 195.966 139.951 195.763 140.973C195.511 142.261 192.445 143.542 191.836 143.773C191.79 143.786 191.742 143.788 191.696 143.78Z" fill="#263238"/>
<path d="M188.592 148.442C187.874 148.484 187.156 148.341 186.509 148.026C185.862 147.711 185.306 147.235 184.896 146.643C184.87 146.605 184.852 146.562 184.843 146.517C184.834 146.472 184.834 146.426 184.843 146.381C184.852 146.336 184.87 146.293 184.896 146.255C184.922 146.217 184.955 146.185 184.994 146.16C185.071 146.109 185.165 146.091 185.256 146.11C185.346 146.128 185.426 146.181 185.477 146.258C187.157 148.785 191.077 147.301 191.077 147.287C191.163 147.253 191.26 147.254 191.345 147.291C191.431 147.328 191.498 147.397 191.532 147.483C191.566 147.569 191.565 147.666 191.528 147.751C191.492 147.836 191.422 147.904 191.336 147.938C190.455 148.256 189.528 148.426 188.592 148.442Z" fill="#263238"/>
<path d="M182.169 134.715C182.128 134.722 182.085 134.722 182.043 134.715C182 134.699 181.96 134.674 181.927 134.642C181.893 134.61 181.866 134.572 181.847 134.53C181.828 134.488 181.818 134.442 181.817 134.396C181.815 134.349 181.824 134.303 181.84 134.26C182.203 133.403 182.872 132.712 183.716 132.321C184.234 132.12 184.787 132.027 185.341 132.046C185.896 132.065 186.441 132.197 186.943 132.433C187.03 132.467 187.099 132.535 187.136 132.62C187.172 132.705 187.174 132.802 187.139 132.888C187.105 132.974 187.038 133.044 186.952 133.08C186.867 133.117 186.771 133.118 186.684 133.084C186.268 132.883 185.815 132.768 185.353 132.746C184.891 132.725 184.43 132.797 183.996 132.958C183.325 133.279 182.791 133.831 182.491 134.512C182.465 134.574 182.419 134.627 182.362 134.664C182.304 134.7 182.237 134.718 182.169 134.715Z" fill="#263238"/>
<path d="M197.127 133.567C197.074 133.566 197.021 133.554 196.973 133.531C196.924 133.508 196.882 133.475 196.847 133.434C196.147 132.559 195.51 132.132 194.88 132.16C194.576 132.212 194.286 132.327 194.029 132.498C193.772 132.669 193.554 132.893 193.389 133.154C193.339 133.232 193.261 133.287 193.17 133.308C193.08 133.328 192.986 133.314 192.906 133.266C192.867 133.242 192.832 133.211 192.804 133.174C192.777 133.136 192.758 133.094 192.747 133.048C192.737 133.003 192.735 132.957 192.744 132.911C192.752 132.865 192.769 132.822 192.794 132.783C193.017 132.426 193.315 132.122 193.669 131.893C194.022 131.665 194.421 131.517 194.838 131.46C195.734 131.411 196.581 131.936 197.4 133.007C197.457 133.08 197.482 133.173 197.47 133.265C197.458 133.357 197.411 133.44 197.337 133.497C197.277 133.543 197.203 133.568 197.127 133.567Z" fill="#263238"/>
<path d="M205.198 115.101C202.132 111.601 198.898 111.811 196.966 112.567C194.348 108.157 185.696 104.657 174.566 108.906C161.56 113.862 163.107 127.183 163.73 129.661C164.353 132.139 168.686 138.642 171.472 138.95C171.472 138.95 173.95 136.78 173.95 134.617C173.95 132.454 179.837 128.114 185.717 126.252C189.42 125.083 193.487 122.934 195.839 120.19C195.796 121.992 196.259 123.77 197.176 125.321C199.038 128.121 201.824 129.661 201.824 130.592C201.824 131.523 203.371 134.925 204.624 134.925C205.877 134.925 205.863 129.969 206.171 127.799C206.479 125.629 209.531 120.057 205.198 115.101Z" fill="#263238"/>
<path d="M171.437 139.3H171.395C168.35 138.957 163.982 132.237 163.352 129.745C163.317 129.591 159.894 114.114 174.412 108.584C185.129 104.496 194.012 107.345 197.113 112.14C198.695 111.608 202.153 111.09 205.457 114.87C209.076 119.007 207.704 123.55 206.857 126.273C206.686 126.789 206.548 127.315 206.444 127.848C206.367 128.373 206.311 129.08 206.248 129.822C205.982 133.119 205.716 135.275 204.547 135.275C203.007 135.275 201.411 131.579 201.411 130.592C201.411 130.298 200.711 129.64 200.011 129.01C198.812 127.978 197.745 126.803 196.833 125.51C195.991 124.166 195.509 122.628 195.433 121.044C193.207 123.305 189.658 125.342 185.731 126.581C179.795 128.457 174.209 132.692 174.209 134.61C174.209 136.906 171.717 139.111 171.612 139.209C171.564 139.256 171.503 139.287 171.437 139.3ZM184.275 107.345C180.981 107.385 177.722 108.025 174.657 109.235C160.706 114.555 163.996 129.423 164.031 129.577C164.647 132.041 168.763 138.075 171.325 138.579C171.801 138.131 173.565 136.339 173.565 134.617C173.565 132.188 179.627 127.799 185.577 125.916C189.742 124.607 193.466 122.374 195.538 119.959C195.586 119.905 195.649 119.867 195.719 119.849C195.789 119.832 195.863 119.836 195.93 119.861C195.996 119.887 196.053 119.932 196.093 119.991C196.133 120.049 196.155 120.119 196.154 120.19C196.11 121.925 196.554 123.637 197.435 125.132C198.317 126.375 199.349 127.503 200.508 128.492C201.488 129.395 202.139 129.99 202.139 130.592C202.139 131.495 203.651 134.575 204.575 134.575C205.191 134.575 205.464 131.208 205.583 129.766C205.639 129.01 205.702 128.296 205.779 127.75C205.886 127.181 206.031 126.62 206.213 126.07C207.039 123.326 208.313 119.175 204.932 115.332C201.824 111.783 198.688 112.28 197.092 112.896C197.014 112.925 196.929 112.926 196.85 112.898C196.772 112.869 196.706 112.814 196.665 112.742C195.02 109.984 190.547 107.345 184.275 107.345Z" fill="#263238"/>
<path d="M168.833 131.215H168.77C168.679 131.198 168.599 131.146 168.546 131.07C168.494 130.994 168.474 130.9 168.49 130.809C168.693 129.724 169.456 128.8 170.828 127.967C170.908 127.922 171.002 127.909 171.091 127.933C171.179 127.956 171.255 128.014 171.302 128.093C171.349 128.172 171.363 128.266 171.341 128.355C171.319 128.444 171.263 128.521 171.185 128.569C170.002 129.269 169.344 130.06 169.176 130.942C169.16 131.02 169.116 131.091 169.054 131.14C168.991 131.19 168.913 131.217 168.833 131.215Z" fill="white"/>
<path d="M173.265 127.54C173.194 127.54 173.125 127.518 173.066 127.478C173.008 127.438 172.962 127.382 172.936 127.316C172.904 127.23 172.907 127.134 172.945 127.05C172.983 126.967 173.053 126.901 173.139 126.868C175.568 126.007 178.052 125.305 180.573 124.768C182.449 124.334 184.227 123.914 185.704 123.445C191.248 121.681 194.356 116.851 194.391 116.809C194.414 116.769 194.446 116.735 194.483 116.707C194.521 116.68 194.563 116.66 194.608 116.65C194.653 116.639 194.7 116.638 194.746 116.646C194.791 116.654 194.835 116.672 194.874 116.697C194.952 116.747 195.006 116.826 195.026 116.917C195.046 117.007 195.029 117.102 194.979 117.18C192.77 120.411 189.579 122.843 185.879 124.117C184.381 124.593 182.589 125.013 180.699 125.454C178.21 125.972 175.757 126.65 173.356 127.484C173.328 127.507 173.297 127.526 173.265 127.54Z" fill="white"/>
<path d="M167.789 121.296C167.719 121.297 167.65 121.274 167.593 121.233C167.516 121.182 167.463 121.102 167.444 121.012C167.426 120.921 167.444 120.827 167.495 120.75C168.195 119.665 170.085 119.742 172.906 119.854C175.194 119.982 177.487 119.968 179.773 119.812C186.136 119.301 191.82 115.472 191.876 115.43C191.953 115.379 192.047 115.361 192.138 115.38C192.228 115.398 192.308 115.451 192.359 115.528C192.385 115.566 192.404 115.608 192.414 115.653C192.423 115.697 192.424 115.744 192.415 115.789C192.407 115.834 192.389 115.877 192.364 115.915C192.339 115.953 192.306 115.986 192.268 116.011C192.03 116.172 186.374 119.987 179.829 120.512C177.515 120.672 175.194 120.686 172.878 120.554C170.386 120.456 168.587 120.379 168.076 121.142C168.045 121.189 168.002 121.228 167.952 121.255C167.902 121.282 167.846 121.296 167.789 121.296Z" fill="white"/>
<path d="M205.393 124.95C205.347 124.948 205.302 124.937 205.26 124.918C205.218 124.899 205.181 124.872 205.149 124.838C205.118 124.804 205.094 124.764 205.078 124.721C205.062 124.678 205.055 124.632 205.057 124.586C205.088 123.721 205.025 122.855 204.868 122.003C204.858 121.958 204.857 121.911 204.865 121.866C204.873 121.82 204.891 121.777 204.916 121.738C204.942 121.7 204.975 121.667 205.013 121.641C205.052 121.616 205.095 121.598 205.141 121.59C205.186 121.581 205.233 121.581 205.279 121.59C205.324 121.599 205.368 121.617 205.406 121.644C205.444 121.67 205.477 121.703 205.503 121.742C205.528 121.781 205.545 121.824 205.554 121.87C205.719 122.775 205.787 123.695 205.757 124.614C205.755 124.66 205.744 124.705 205.725 124.747C205.706 124.789 205.678 124.826 205.644 124.858C205.611 124.889 205.571 124.913 205.528 124.929C205.485 124.945 205.439 124.952 205.393 124.95Z" fill="white"/>
<path d="M204.819 120.883C204.746 120.884 204.675 120.861 204.616 120.818C204.557 120.775 204.513 120.715 204.49 120.645C204.038 119.4 203.313 118.271 202.369 117.342C201.424 116.413 200.283 115.707 199.03 115.276C198.941 115.25 198.865 115.19 198.82 115.109C198.774 115.028 198.762 114.932 198.785 114.842C198.798 114.798 198.82 114.757 198.848 114.721C198.877 114.685 198.913 114.655 198.953 114.633C198.993 114.611 199.038 114.597 199.083 114.592C199.129 114.587 199.175 114.591 199.219 114.604C200.585 115.056 201.83 115.814 202.858 116.821C203.885 117.829 204.669 119.057 205.148 120.414C205.164 120.458 205.17 120.504 205.168 120.55C205.165 120.596 205.154 120.642 205.133 120.683C205.113 120.725 205.085 120.762 205.05 120.793C205.016 120.824 204.975 120.847 204.931 120.862C204.896 120.876 204.858 120.883 204.819 120.883Z" fill="white"/>
<path d="M182.307 152.656C181.396 152.692 180.49 152.504 179.668 152.11C177.001 150.71 172.262 144.41 172.066 144.116C172.01 144.042 171.986 143.948 172 143.857C172.013 143.765 172.062 143.682 172.136 143.626C172.21 143.57 172.304 143.546 172.396 143.56C172.487 143.573 172.57 143.622 172.626 143.696C172.675 143.759 177.463 150.157 179.997 151.494C182.531 152.831 187.284 150.969 187.333 150.948C187.376 150.931 187.422 150.924 187.469 150.925C187.515 150.926 187.56 150.936 187.603 150.955C187.645 150.974 187.683 151.001 187.715 151.035C187.747 151.068 187.772 151.108 187.788 151.151C187.805 151.194 187.813 151.24 187.811 151.287C187.81 151.333 187.8 151.378 187.781 151.421C187.762 151.463 187.735 151.501 187.701 151.533C187.668 151.565 187.628 151.589 187.585 151.606C185.892 152.232 184.111 152.586 182.307 152.656Z" fill="#263238"/>
<path d="M189.197 151.333C189.197 151.97 188.413 152.495 187.454 152.495C186.495 152.495 185.711 151.97 185.711 151.333C185.711 150.696 186.488 150.171 187.454 150.171C188.42 150.171 189.197 150.689 189.197 151.333Z" fill="#263238"/>
<path d="M169.616 135.044C169.616 135.044 163.869 120.162 169.616 111.286C169.616 111.286 160.733 120.421 168.573 137.137L169.616 135.044Z" fill="white"/>
<path d="M173.598 139.867C174.123 143.367 173.171 146.391 171.463 146.65C169.755 146.909 167.963 144.284 167.431 140.791C166.899 137.298 167.865 134.267 169.566 134.008C171.267 133.749 173.101 136.374 173.598 139.867Z" fill="white"/>
<path d="M171.254 147C169.427 147 167.642 144.389 167.11 140.833C166.837 139.246 166.921 137.617 167.355 136.066C167.796 134.666 168.573 133.791 169.539 133.651C171.457 133.364 173.41 136.059 173.97 139.797C174.24 141.385 174.156 143.012 173.725 144.564C173.277 145.964 172.507 146.839 171.541 146.979C171.446 146.993 171.35 147 171.254 147ZM169.854 134.33C169.791 134.323 169.728 134.323 169.665 134.33C168.965 134.428 168.405 135.135 168.048 136.262C167.648 137.712 167.574 139.232 167.831 140.714C168.314 143.948 169.973 146.503 171.464 146.272C172.164 146.174 172.731 145.467 173.088 144.34C173.485 142.89 173.559 141.37 173.305 139.888C172.808 136.808 171.261 134.344 169.826 134.344L169.854 134.33Z" fill="#263238"/>
<path d="M170.513 146.546C172.027 146.318 172.828 143.304 172.304 139.813C171.779 136.323 170.126 133.678 168.612 133.906C167.098 134.133 166.296 137.147 166.821 140.638C167.346 144.128 168.999 146.773 170.513 146.546Z" fill="white"/>
<path d="M170.317 146.916C169.519 146.916 168.7 146.307 167.993 145.18C167.191 143.803 166.672 142.28 166.467 140.7C165.9 136.955 166.824 133.826 168.567 133.567C170.31 133.308 172.067 136.031 172.662 139.769C172.928 141.34 172.88 142.948 172.522 144.501C172.144 145.901 171.451 146.769 170.569 146.902L170.317 146.916ZM168.777 134.246H168.658C167.524 134.414 166.628 137.046 167.16 140.546C167.347 142.024 167.823 143.451 168.56 144.746C169.176 145.719 169.848 146.23 170.429 146.146C171.01 146.062 171.514 145.369 171.829 144.256C172.165 142.797 172.208 141.286 171.955 139.811C171.444 136.5 169.904 134.246 168.777 134.246Z" fill="#263238"/>
<path d="M226.57 164.654L234.641 228.459L218.52 228.144L226.57 164.654Z" fill="#AF85C7"/>
<path d="M234.639 228.809L218.539 228.494C218.49 228.493 218.441 228.483 218.397 228.462C218.352 228.442 218.312 228.412 218.28 228.375C218.249 228.337 218.226 228.294 218.212 228.247C218.199 228.2 218.196 228.15 218.203 228.102L226.246 164.612C226.256 164.527 226.297 164.448 226.362 164.391C226.427 164.334 226.51 164.303 226.596 164.304C226.681 164.305 226.762 164.337 226.825 164.394C226.888 164.45 226.929 164.528 226.939 164.612L235.01 228.41C235.018 228.46 235.014 228.511 235 228.56C234.985 228.608 234.96 228.653 234.926 228.69C234.89 228.731 234.846 228.762 234.796 228.783C234.746 228.804 234.693 228.813 234.639 228.809ZM218.917 227.801L234.24 228.102L226.54 167.44L218.917 227.801Z" fill="#263238"/>
<mask id="mask7_2050_3897" style="mask-type:luminance" maskUnits="userSpaceOnUse" x="218" y="164" width="17" height="65">
<mask id="mask8_2050_3897" style="mask-type:luminance" maskUnits="userSpaceOnUse" x="218" y="164" width="17" height="65">
<path d="M226.57 164.654L234.641 228.459L218.52 228.144L226.57 164.654Z" fill="white"/>
</mask>
<g mask="url(#mask8_2050_3897)">
<path d="M234.639 228.809L218.539 228.494C218.49 228.494 218.441 228.483 218.397 228.462C218.352 228.442 218.312 228.412 218.28 228.375C218.249 228.337 218.226 228.294 218.212 228.247C218.199 228.2 218.196 228.15 218.203 228.102L226.246 164.612C226.256 164.527 226.297 164.448 226.362 164.391C226.427 164.335 226.51 164.303 226.596 164.304C226.681 164.305 226.762 164.337 226.825 164.394C226.888 164.45 226.929 164.528 226.939 164.612L235.01 228.41C235.018 228.46 235.014 228.511 235 228.56C234.985 228.608 234.96 228.653 234.926 228.69C234.89 228.731 234.846 228.763 234.796 228.783C234.746 228.804 234.693 228.813 234.639 228.809ZM218.917 227.801L234.24 228.102L226.54 167.44L218.917 227.801Z" fill="white"/>
</g>
</mask>
<g mask="url(#mask7_2050_3897)">
<path opacity="0.3" d="M230.966 199.451L222.573 204.491L222.713 195.062L218.52 228.144L234.641 228.459L233.318 218.036L226.283 218.267L232.527 211.778L232.478 211.351L223.896 214.291L231.659 204.89L230.966 199.451Z" fill="black"/>
</g>
<path d="M168.896 145.838C168.896 145.838 171.276 145.005 171.794 145.922C172.312 146.839 172.914 150.822 172.9 151.389C172.886 151.956 172.69 152.474 171.612 152.089C170.534 151.704 168.812 148.197 168.812 148.197L168.896 145.838Z" fill="white"/>
<path d="M172.25 152.6C171.991 152.593 171.735 152.541 171.494 152.446C170.346 152.019 168.806 148.988 168.512 148.379C168.501 148.326 168.501 148.271 168.512 148.218L168.582 145.866C168.583 145.795 168.606 145.727 168.647 145.669C168.689 145.612 168.746 145.568 168.813 145.544C169.261 145.39 171.501 144.669 172.131 145.789C172.684 146.762 173.307 150.85 173.286 151.438C173.296 151.627 173.262 151.816 173.186 151.99C173.111 152.163 172.997 152.317 172.852 152.439C172.673 152.555 172.462 152.611 172.25 152.6ZM169.177 148.148C169.828 149.457 171.06 151.536 171.732 151.788C172.215 151.963 172.383 151.886 172.432 151.858C172.481 151.83 172.558 151.655 172.565 151.417C172.565 150.934 171.984 146.993 171.501 146.132C171.27 145.712 170.101 145.873 169.254 146.132L169.177 148.148Z" fill="#263238"/>
<path d="M158.48 158.466C158.48 158.466 160.685 144.291 160.734 142.751C160.783 141.211 162.834 139.951 163.814 139.573C164.794 139.195 170.394 139.377 170.989 139.398C171.584 139.419 173.978 139.293 173.957 140.098C173.936 140.903 173.726 141.246 171.724 141.568C169.722 141.89 164.934 142.142 164.934 142.142L163.681 144.032L169.624 145.166C169.624 145.166 171.024 145.782 170.772 146.741C170.52 147.7 169.827 151.907 169.813 152.481C169.799 153.055 169.183 153.426 167.762 154.35C166.914 154.899 165.96 155.264 164.962 155.421C164.962 155.421 165.074 158.312 164.262 158.669L162.239 159.572L161.959 176.113L152.824 175.077L158.48 158.466Z" fill="white"/>
<path d="M161.951 176.4H161.909L152.809 175.364C152.756 175.358 152.706 175.34 152.661 175.313C152.616 175.285 152.578 175.247 152.55 175.203C152.527 175.156 152.516 175.105 152.516 175.053C152.516 175 152.527 174.949 152.55 174.902L158.206 158.354C158.318 157.654 160.404 144.179 160.446 142.716C160.495 140.952 162.742 139.573 163.757 139.216C164.772 138.859 169.189 138.964 171.058 139.02H171.373C172.535 139.02 173.704 139.055 174.173 139.531C174.239 139.598 174.292 139.678 174.326 139.766C174.361 139.854 174.378 139.948 174.376 140.042C174.376 141.148 173.802 141.533 171.849 141.855C170.043 142.149 166.095 142.373 165.199 142.422L164.338 143.724L169.763 144.76H169.84C169.903 144.76 171.478 145.509 171.184 146.734C170.939 147.763 170.246 151.9 170.232 152.411C170.232 153.111 169.581 153.552 168.209 154.441L168.027 154.56C167.216 155.078 166.316 155.441 165.374 155.631C165.374 156.583 165.304 158.529 164.464 158.907L162.651 159.719L162.371 176.036C162.369 176.085 162.358 176.133 162.338 176.178C162.317 176.222 162.288 176.262 162.252 176.295C162.213 176.335 162.166 176.366 162.114 176.384C162.061 176.402 162.006 176.408 161.951 176.4ZM153.299 174.748L161.608 175.7L161.881 159.544C161.883 159.478 161.904 159.414 161.941 159.36C161.978 159.305 162.03 159.262 162.091 159.236L164.107 158.333C164.457 158.172 164.646 156.667 164.597 155.414C164.592 155.326 164.622 155.239 164.679 155.171C164.736 155.104 164.817 155.061 164.905 155.05C165.855 154.903 166.764 154.557 167.572 154.035L167.761 153.916C168.958 153.132 169.448 152.803 169.462 152.453C169.462 151.809 170.225 147.553 170.435 146.636C170.575 146.048 169.735 145.572 169.518 145.481L163.617 144.354C163.56 144.343 163.506 144.318 163.461 144.281C163.416 144.245 163.38 144.197 163.358 144.144C163.332 144.093 163.318 144.037 163.318 143.98C163.318 143.922 163.332 143.866 163.358 143.815L164.604 141.925C164.636 141.88 164.678 141.843 164.726 141.816C164.775 141.79 164.828 141.774 164.884 141.771C164.926 141.771 169.672 141.526 171.632 141.204C173.592 140.882 173.557 140.581 173.571 140.063C173.508 139.958 173.13 139.762 171.317 139.762H170.939C168.139 139.678 164.59 139.671 163.897 139.916C162.952 140.252 161.097 141.47 161.048 142.779C160.999 144.319 158.885 157.955 158.794 158.536C158.794 158.536 158.794 158.578 158.794 158.592L153.299 174.748Z" fill="#263238"/>
<path d="M170.296 147.861H170.233L163.023 146.566C162.93 146.549 162.848 146.496 162.794 146.419C162.74 146.342 162.719 146.246 162.736 146.153C162.753 146.06 162.806 145.978 162.883 145.924C162.961 145.87 163.056 145.849 163.149 145.866L170.359 147.168C170.452 147.176 170.538 147.221 170.597 147.293C170.657 147.364 170.686 147.457 170.678 147.55C170.669 147.642 170.624 147.728 170.553 147.788C170.481 147.848 170.389 147.876 170.296 147.868V147.861Z" fill="#263238"/>
<path d="M169.475 151.095H169.398L163.462 149.653C163.369 149.632 163.289 149.574 163.238 149.494C163.188 149.413 163.171 149.315 163.193 149.223C163.214 149.13 163.271 149.049 163.352 148.999C163.433 148.948 163.53 148.932 163.623 148.953L169.566 150.395C169.611 150.405 169.653 150.424 169.691 150.45C169.728 150.477 169.759 150.511 169.783 150.551C169.807 150.59 169.822 150.634 169.828 150.679C169.834 150.725 169.831 150.771 169.818 150.815C169.803 150.895 169.761 150.967 169.698 151.018C169.635 151.069 169.556 151.096 169.475 151.095Z" fill="#263238"/>
<path d="M164.946 155.736C164.887 155.737 164.829 155.723 164.778 155.695C164.726 155.667 164.683 155.625 164.652 155.575C164.4 155.183 163.833 154.224 164.022 153.699C164.052 153.616 164.101 153.54 164.166 153.479C164.23 153.419 164.308 153.374 164.393 153.349C164.946 153.181 166.234 152.852 166.234 152.852L166.409 153.552C166.409 153.552 165.261 153.846 164.68 154.014C164.796 154.445 164.986 154.852 165.24 155.218C165.29 155.296 165.307 155.391 165.288 155.481C165.268 155.572 165.213 155.651 165.135 155.701C165.076 155.728 165.011 155.74 164.946 155.736Z" fill="#263238"/>
<path d="M153.643 166.509L163.513 170.233C163.513 170.233 156.639 213.381 154.987 216.769C153.335 220.157 149.471 224.091 144.487 224.567C139.503 225.043 135.898 219.667 135.751 214.018C135.604 208.369 153.643 166.509 153.643 166.509Z" fill="#AF85C7"/>
<path d="M143.85 224.945C142.128 224.928 140.474 224.272 139.209 223.104C136.941 221.088 135.471 217.616 135.38 214.004C135.226 208.369 152.586 168.056 153.321 166.341C153.358 166.259 153.425 166.194 153.508 166.16C153.592 166.126 153.685 166.126 153.769 166.159L163.639 169.876C163.715 169.903 163.778 169.955 163.819 170.024C163.86 170.094 163.876 170.175 163.863 170.254C163.583 172.018 156.961 213.5 155.295 216.888C153.517 220.528 149.485 224.413 144.494 224.889C144.284 224.938 144.067 224.945 143.85 224.945ZM153.832 166.957C152.194 170.779 135.94 208.782 136.08 214.011C136.164 217.406 137.543 220.689 139.678 222.579C140.31 223.172 141.06 223.625 141.879 223.907C142.698 224.189 143.568 224.295 144.431 224.217C149.149 223.769 152.971 220.073 154.672 216.615C156.219 213.458 162.526 174.195 163.128 170.457L153.832 166.957Z" fill="#263238"/>
<mask id="mask9_2050_3897" style="mask-type:luminance" maskUnits="userSpaceOnUse" x="135" y="166" width="29" height="59">
<mask id="mask10_2050_3897" style="mask-type:luminance" maskUnits="userSpaceOnUse" x="135" y="166" width="29" height="59">
<path d="M153.643 166.509L163.513 170.233C163.513 170.233 156.639 213.381 154.987 216.769C153.335 220.157 149.471 224.091 144.487 224.567C139.503 225.043 135.898 219.667 135.751 214.018C135.604 208.369 153.643 166.509 153.643 166.509Z" fill="white"/>
</mask>
<g mask="url(#mask10_2050_3897)">
<path d="M143.85 224.945C142.128 224.928 140.474 224.272 139.209 223.104C136.941 221.088 135.471 217.616 135.38 214.004C135.226 208.369 152.586 168.056 153.321 166.341C153.358 166.259 153.425 166.194 153.508 166.16C153.592 166.126 153.685 166.126 153.769 166.159L163.639 169.876C163.715 169.903 163.778 169.955 163.819 170.024C163.86 170.093 163.876 170.175 163.863 170.254C163.583 172.018 156.961 213.5 155.295 216.888C153.517 220.528 149.485 224.413 144.494 224.889C144.284 224.938 144.067 224.945 143.85 224.945ZM153.832 166.957C152.194 170.779 135.94 208.782 136.08 214.011C136.164 217.406 137.543 220.689 139.678 222.579C140.31 223.172 141.06 223.625 141.879 223.907C142.698 224.189 143.568 224.295 144.431 224.217C149.149 223.769 152.971 220.073 154.672 216.615C156.219 213.458 162.526 174.195 163.128 170.457L153.832 166.957Z" fill="white"/>
</g>
</mask>
<g mask="url(#mask9_2050_3897)">
<path opacity="0.3" d="M145.475 202.636C143.068 203.864 140.554 204.871 137.964 205.646C137.075 208.229 136.396 210.42 136.032 211.988L140.701 211.4C144.028 211.017 147.31 210.313 150.501 209.3C150.501 209.3 142.801 214.067 135.934 214.865H135.773C136.228 220.171 139.7 225.043 144.46 224.588C149.465 224.112 153.322 220.171 154.96 216.79C155.772 215.124 157.844 203.882 159.741 192.871C155.344 196.62 150.562 199.893 145.475 202.636Z" fill="black"/>
</g>
</g>
<path d="M251.111 92.4V90.482C251.111 90.211 251.003 89.951 250.811 89.7594C250.62 89.5677 250.36 89.46 250.089 89.46H248.612C248.387 88.4936 248.004 87.5711 247.478 86.73L248.521 85.68C248.712 85.4873 248.819 85.2269 248.819 84.9555C248.819 84.6842 248.712 84.4238 248.521 84.231L247.17 82.88C246.977 82.689 246.716 82.5818 246.445 82.5818C246.174 82.5818 245.913 82.689 245.721 82.88L244.671 83.923C243.83 83.3967 242.907 83.0135 241.941 82.789V81.312C241.941 81.041 241.833 80.781 241.641 80.5894C241.45 80.3977 241.19 80.29 240.919 80.29H239.001C238.73 80.29 238.47 80.3977 238.278 80.5894C238.086 80.781 237.979 81.041 237.979 81.312V82.789C237.012 83.0135 236.09 83.3967 235.249 83.923L234.199 82.88C234.006 82.689 233.745 82.5818 233.474 82.5818C233.203 82.5818 232.942 82.689 232.75 82.88L231.399 84.231C231.208 84.4238 231.1 84.6842 231.1 84.9555C231.1 85.2269 231.208 85.4873 231.399 85.68L232.442 86.73C231.915 87.57 231.534 88.493 231.315 89.46H229.831C229.56 89.46 229.3 89.5677 229.108 89.7594C228.916 89.951 228.809 90.211 228.809 90.482V92.4C228.809 92.6711 228.916 92.931 229.108 93.1227C229.3 93.3144 229.56 93.422 229.831 93.422H231.315C231.534 94.3891 231.915 95.3121 232.442 96.152L231.399 97.202C231.208 97.3948 231.1 97.6552 231.1 97.9265C231.1 98.1979 231.208 98.4583 231.399 98.651L232.75 100.002C232.942 100.193 233.203 100.3 233.474 100.3C233.745 100.3 234.006 100.193 234.199 100.002L235.249 98.959C236.094 99.493 237.024 99.8789 238 100.1V101.584C238 101.855 238.107 102.115 238.299 102.307C238.491 102.498 238.751 102.606 239.022 102.606H240.94C241.211 102.606 241.471 102.498 241.662 102.307C241.854 102.115 241.962 101.855 241.962 101.584V100.1C242.929 99.881 243.852 99.5 244.692 98.973L245.742 100.016C245.934 100.207 246.195 100.314 246.466 100.314C246.737 100.314 246.998 100.207 247.191 100.016L248.5 98.7C248.691 98.5073 248.798 98.2469 248.798 97.9755C248.798 97.7042 248.691 97.4438 248.5 97.251L247.457 96.201C247.983 95.36 248.366 94.4375 248.591 93.471H250.068C250.208 93.4741 250.347 93.4482 250.477 93.3951C250.607 93.342 250.724 93.2628 250.822 93.1623C250.92 93.0619 250.996 92.9423 251.046 92.8112C251.095 92.6801 251.117 92.5401 251.111 92.4ZM240.408 95.802C239.506 95.8983 238.597 95.7126 237.806 95.2707C237.015 94.8288 236.38 94.1524 235.989 93.3346C235.598 92.5168 235.47 91.5979 235.623 90.7045C235.776 89.8111 236.203 88.9872 236.844 88.3463C237.485 87.7053 238.309 87.2789 239.202 87.1258C240.095 86.9727 241.014 87.1003 241.832 87.4912C242.65 87.8821 243.326 88.517 243.768 89.3084C244.21 90.0998 244.396 91.0087 244.3 91.91C244.197 92.9092 243.754 93.8427 243.046 94.5548C242.337 95.267 241.406 95.7146 240.408 95.823V95.802Z" fill="#263238"/>
<path d="M71.9117 176.022V174.58C71.9117 174.374 71.8298 174.176 71.6841 174.031C71.5384 173.885 71.3407 173.803 71.1347 173.803H70.0007C69.8321 173.074 69.5435 172.379 69.1467 171.745L69.9377 170.961C70.0096 170.889 70.0667 170.804 70.1057 170.711C70.1447 170.617 70.1647 170.517 70.1647 170.415C70.1647 170.314 70.1447 170.213 70.1057 170.119C70.0667 170.026 70.0096 169.941 69.9377 169.869L68.9157 168.847C68.8441 168.775 68.759 168.718 68.6653 168.679C68.5716 168.64 68.4711 168.62 68.3697 168.62C68.2682 168.62 68.1677 168.64 68.074 168.679C67.9803 168.718 67.8952 168.775 67.8237 168.847L67.0327 169.631C66.3997 169.234 65.7037 168.948 64.9747 168.784V167.664C64.9747 167.46 64.8935 167.264 64.7491 167.12C64.6047 166.975 64.4089 166.894 64.2047 166.894H62.7837C62.5788 166.894 62.3822 166.975 62.2367 167.119C62.0912 167.263 62.0085 167.459 62.0067 167.664V168.784C61.2776 168.948 60.5817 169.234 59.9487 169.631L59.1577 168.847C59.0861 168.775 59.001 168.718 58.9073 168.679C58.8136 168.64 58.7131 168.62 58.6117 168.62C58.5102 168.62 58.4097 168.64 58.316 168.679C58.2223 168.718 58.1372 168.775 58.0657 168.847L57.0507 169.869C56.9778 169.94 56.92 170.025 56.8805 170.119C56.841 170.213 56.8206 170.313 56.8206 170.415C56.8206 170.517 56.841 170.618 56.8805 170.711C56.92 170.805 56.9778 170.89 57.0507 170.961L57.8347 171.745C57.4378 172.379 57.1492 173.074 56.9807 173.803H55.8677C55.6628 173.805 55.467 173.888 55.3228 174.033C55.1786 174.179 55.0976 174.375 55.0977 174.58V176.022C55.0977 176.226 55.1788 176.422 55.3232 176.567C55.4676 176.711 55.6634 176.792 55.8677 176.792H56.9807C57.1467 177.521 57.4354 178.217 57.8347 178.85L57.0507 179.641C56.9778 179.712 56.92 179.797 56.8805 179.891C56.841 179.985 56.8206 180.085 56.8206 180.187C56.8206 180.289 56.841 180.39 56.8805 180.483C56.92 180.577 56.9778 180.662 57.0507 180.733L58.1007 181.755C58.1722 181.827 58.2573 181.884 58.351 181.923C58.4447 181.962 58.5452 181.982 58.6467 181.982C58.7481 181.982 58.8486 181.962 58.9423 181.923C59.036 181.884 59.1211 181.827 59.1927 181.755L59.9837 180.964C60.6163 181.363 61.3122 181.652 62.0417 181.818V182.931C62.0417 183.137 62.1235 183.335 62.2692 183.48C62.4149 183.626 62.6126 183.708 62.8187 183.708H64.2607C64.4655 183.706 64.6614 183.624 64.8056 183.478C64.9498 183.333 65.0307 183.136 65.0307 182.931V181.818C65.7601 181.652 66.456 181.363 67.0887 180.964L67.8797 181.755C67.9512 181.827 68.0363 181.884 68.13 181.923C68.2237 181.962 68.3242 181.982 68.4257 181.982C68.5271 181.982 68.6276 181.962 68.7213 181.923C68.815 181.884 68.9001 181.827 68.9717 181.755L69.9937 180.733C70.0656 180.661 70.1227 180.576 70.1617 180.483C70.2007 180.389 70.2207 180.289 70.2207 180.187C70.2207 180.086 70.2007 179.985 70.1617 179.891C70.1227 179.798 70.0656 179.713 69.9937 179.641L69.2027 178.85C69.6019 178.217 69.8907 177.521 70.0567 176.792H71.1697C71.3684 176.783 71.5561 176.698 71.6942 176.555C71.8322 176.412 71.9101 176.221 71.9117 176.022ZM63.8407 178.584C63.1618 178.654 62.4779 178.512 61.8829 178.178C61.2879 177.844 60.811 177.334 60.5177 176.717C60.2245 176.101 60.1292 175.409 60.2451 174.737C60.361 174.064 60.6823 173.444 61.1649 172.961C61.6474 172.479 62.2676 172.157 62.9402 172.042C63.6127 171.926 64.3047 172.021 64.9209 172.314C65.5371 172.607 66.0475 173.084 66.3817 173.679C66.716 174.274 66.8578 174.958 66.7877 175.637C66.7097 176.392 66.3741 177.097 65.8374 177.634C65.3007 178.171 64.5956 178.506 63.8407 178.584Z" fill="#263238"/>
<path d="M286.525 156.8V155.358C286.525 155.152 286.443 154.954 286.297 154.809C286.152 154.663 285.954 154.581 285.748 154.581H284.635C284.469 153.852 284.18 153.156 283.781 152.523L284.572 151.739C284.644 151.667 284.701 151.582 284.74 151.489C284.779 151.395 284.799 151.294 284.799 151.193C284.799 151.092 284.779 150.991 284.74 150.897C284.701 150.804 284.644 150.719 284.572 150.647L283.55 149.625C283.478 149.553 283.393 149.496 283.3 149.457C283.206 149.418 283.105 149.398 283.004 149.398C282.902 149.398 282.802 149.418 282.708 149.457C282.615 149.496 282.53 149.553 282.458 149.625L281.667 150.409C281.033 150.013 280.337 149.724 279.609 149.555V148.4C279.609 148.299 279.589 148.199 279.55 148.105C279.512 148.012 279.455 147.927 279.383 147.856C279.312 147.784 279.227 147.727 279.134 147.689C279.04 147.65 278.94 147.63 278.839 147.63H277.39C277.186 147.63 276.99 147.711 276.845 147.856C276.701 148 276.62 148.196 276.62 148.4V149.513C275.891 149.682 275.196 149.971 274.562 150.367L273.771 149.583C273.699 149.511 273.614 149.454 273.521 149.415C273.427 149.376 273.326 149.356 273.225 149.356C273.123 149.356 273.023 149.376 272.929 149.415C272.836 149.454 272.751 149.511 272.679 149.583L271.664 150.605C271.591 150.676 271.533 150.761 271.494 150.855C271.454 150.949 271.434 151.049 271.434 151.151C271.434 151.253 271.454 151.353 271.494 151.447C271.533 151.541 271.591 151.626 271.664 151.697L272.448 152.481C272.049 153.114 271.76 153.81 271.594 154.539H270.481C270.276 154.541 270.08 154.624 269.936 154.769C269.792 154.915 269.711 155.111 269.711 155.316V156.8C269.711 157.004 269.792 157.2 269.936 157.344C270.081 157.489 270.277 157.57 270.481 157.57H271.601C271.767 158.299 272.056 158.995 272.455 159.628L271.671 160.419C271.598 160.49 271.54 160.575 271.501 160.669C271.461 160.763 271.441 160.863 271.441 160.965C271.441 161.067 271.461 161.167 271.501 161.261C271.54 161.355 271.598 161.44 271.671 161.511L272.686 162.533C272.757 162.605 272.843 162.662 272.936 162.701C273.03 162.74 273.13 162.76 273.232 162.76C273.333 162.76 273.434 162.74 273.528 162.701C273.621 162.662 273.706 162.605 273.778 162.533L274.569 161.742C275.202 162.141 275.898 162.43 276.627 162.596V163.709C276.627 163.914 276.708 164.11 276.852 164.256C276.996 164.401 277.192 164.484 277.397 164.486H278.846C279.051 164.484 279.247 164.401 279.391 164.256C279.535 164.11 279.616 163.914 279.616 163.709V162.596C280.345 162.43 281.041 162.141 281.674 161.742L282.465 162.533C282.536 162.605 282.622 162.662 282.715 162.701C282.809 162.74 282.909 162.76 283.011 162.76C283.112 162.76 283.213 162.74 283.307 162.701C283.4 162.662 283.485 162.605 283.557 162.533L284.579 161.511C284.651 161.439 284.708 161.354 284.747 161.261C284.786 161.167 284.806 161.066 284.806 160.965C284.806 160.864 284.786 160.763 284.747 160.669C284.708 160.576 284.651 160.491 284.579 160.419L283.781 159.6C284.18 158.967 284.469 158.271 284.635 157.542H285.748C285.948 157.542 286.141 157.465 286.285 157.327C286.43 157.189 286.516 157 286.525 156.8ZM278.454 159.362C277.775 159.432 277.091 159.29 276.496 158.956C275.901 158.622 275.424 158.111 275.131 157.495C274.838 156.879 274.743 156.187 274.858 155.515C274.974 154.842 275.296 154.222 275.778 153.739C276.261 153.257 276.881 152.935 277.553 152.819C278.226 152.704 278.918 152.799 279.534 153.092C280.15 153.385 280.661 153.862 280.995 154.457C281.329 155.052 281.471 155.736 281.401 156.415C281.32 157.167 280.983 157.869 280.447 158.403C279.91 158.937 279.207 159.271 278.454 159.348V159.362Z" fill="#263238"/>
<path d="M168.555 62.86V62.118C168.555 62.0659 168.545 62.0144 168.525 61.9664C168.505 61.9184 168.475 61.8748 168.438 61.8383C168.401 61.8018 168.357 61.7731 168.308 61.7538C168.26 61.7345 168.208 61.7251 168.156 61.726H167.589C167.501 61.3519 167.352 60.9947 167.148 60.669L167.554 60.27C167.628 60.1954 167.669 60.0948 167.669 59.99C167.669 59.8852 167.628 59.7847 167.554 59.71L167.029 59.185C166.956 59.1119 166.856 59.0709 166.753 59.0709C166.649 59.0709 166.55 59.1119 166.476 59.185L166.07 59.591C165.745 59.387 165.387 59.238 165.013 59.15V58.583C165.013 58.4784 164.972 58.378 164.899 58.3033C164.826 58.2287 164.726 58.1859 164.621 58.184H163.879C163.775 58.1859 163.675 58.2287 163.602 58.3033C163.528 58.378 163.487 58.4784 163.487 58.583V59.15C163.113 59.2371 162.756 59.3862 162.43 59.591L162.024 59.185C161.95 59.1115 161.849 59.0703 161.744 59.0703C161.64 59.0703 161.539 59.1115 161.464 59.185L160.946 59.71C160.873 59.7847 160.832 59.8852 160.832 59.99C160.832 60.0948 160.873 60.1954 160.946 60.27L161.345 60.669C161.144 60.9952 160.997 61.3523 160.911 61.726H160.337C160.233 61.726 160.134 61.7673 160.06 61.8408C159.987 61.9143 159.945 62.0141 159.945 62.118V62.86C159.945 62.9646 159.986 63.0651 160.06 63.1397C160.133 63.2143 160.233 63.2572 160.337 63.259H160.911C160.996 63.6309 161.143 63.9859 161.345 64.309L160.946 64.715C160.873 64.7897 160.832 64.8902 160.832 64.995C160.832 65.0998 160.873 65.2004 160.946 65.275L161.464 65.8C161.539 65.8735 161.64 65.9148 161.744 65.9148C161.849 65.9148 161.95 65.8735 162.024 65.8L162.43 65.394C162.754 65.5996 163.112 65.7465 163.487 65.828V66.402C163.487 66.506 163.529 66.6057 163.602 66.6792C163.676 66.7527 163.775 66.794 163.879 66.794H164.621C164.725 66.794 164.825 66.7527 164.898 66.6792C164.972 66.6057 165.013 66.506 165.013 66.402V65.8C165.388 65.7172 165.746 65.5703 166.07 65.366L166.476 65.772C166.55 65.8451 166.649 65.8861 166.753 65.8861C166.856 65.8861 166.956 65.8451 167.029 65.772L167.554 65.247C167.628 65.1724 167.669 65.0718 167.669 64.967C167.669 64.8622 167.628 64.7617 167.554 64.687L167.148 64.281C167.353 63.9582 167.502 63.6033 167.589 63.231H168.156C168.257 63.2313 168.355 63.1931 168.429 63.1242C168.503 63.0554 168.548 62.9609 168.555 62.86ZM164.425 64.176C164.077 64.2193 163.723 64.1531 163.414 63.9867C163.105 63.8204 162.855 63.562 162.699 63.2474C162.543 62.9327 162.489 62.5774 162.544 62.2305C162.598 61.8836 162.76 61.5624 163.005 61.3112C163.25 61.06 163.568 60.8912 163.913 60.8283C164.259 60.7654 164.615 60.8114 164.933 60.96C165.252 61.1086 165.516 61.3524 165.689 61.6576C165.863 61.9629 165.937 62.3146 165.902 62.664C165.863 63.0457 165.695 63.4028 165.427 63.6773C165.159 63.9518 164.806 64.1275 164.425 64.176Z" fill="#263238"/>
<path d="M78.5061 111.874H73.7461V116.634H78.5061V111.874ZM74.7121 112.84H77.5121V115.675H74.7121V112.84Z" fill="#263238"/>
<path d="M270.781 204.897H266V209.657H270.76L270.781 204.897ZM266.98 205.863H269.815V208.698H266.98V205.863Z" fill="#263238"/>
<path d="M199.369 68.544H194.602V73.304H199.362L199.369 68.544ZM195.568 69.503H198.403V72.303H195.568V69.503Z" fill="#263238"/>
<path d="M75.7053 187.887H70.9453V192.654H75.7053V187.887ZM71.9043 188.853H74.7043V191.653H71.9043V188.853Z" fill="#263238"/>
<path opacity="0.9" d="M214.69 101.5C214.124 101.499 213.57 101.665 213.098 101.979C212.626 102.293 212.258 102.74 212.04 103.263C211.822 103.786 211.765 104.361 211.874 104.917C211.984 105.473 212.256 105.984 212.656 106.385C213.057 106.786 213.567 107.059 214.122 107.17C214.678 107.282 215.254 107.225 215.777 107.009C216.301 106.792 216.748 106.425 217.063 105.954C217.378 105.483 217.546 104.93 217.546 104.363C217.546 103.605 217.246 102.878 216.71 102.341C216.175 101.804 215.448 101.502 214.69 101.5ZM214.69 106.078C214.351 106.078 214.02 105.977 213.738 105.789C213.455 105.601 213.236 105.333 213.106 105.019C212.976 104.706 212.942 104.361 213.008 104.028C213.074 103.696 213.238 103.39 213.478 103.15C213.717 102.91 214.023 102.747 214.356 102.681C214.688 102.615 215.033 102.649 215.347 102.779C215.66 102.908 215.928 103.128 216.116 103.41C216.305 103.692 216.405 104.024 216.405 104.363C216.398 104.813 216.214 105.242 215.893 105.558C215.572 105.873 215.14 106.05 214.69 106.05V106.078Z" fill="#263238"/>
<path d="M163.8 114.926L157.388 106.05C158.564 106.046 159.691 105.578 160.523 104.746C161.354 103.915 161.823 102.788 161.826 101.612V77.448C161.821 76.2727 161.352 75.1471 160.521 74.316C159.689 73.4849 158.564 73.0155 157.388 73.01H101.668C100.493 73.0137 99.3659 73.4825 98.5344 74.3139C97.7029 75.1454 97.2342 76.2721 97.2305 77.448V101.612C97.2323 102.788 97.7005 103.916 98.5324 104.748C99.3643 105.58 100.492 106.048 101.668 106.05H149.849L163.8 114.926Z" fill="#263238"/>
<path d="M115.745 88.543C115.745 88.0059 115.585 87.4807 115.287 87.0341C114.988 86.5875 114.564 86.2393 114.068 86.0338C113.572 85.8282 113.025 85.7744 112.499 85.8792C111.972 85.984 111.488 86.2427 111.108 86.6225C110.728 87.0024 110.469 87.4863 110.365 88.0132C110.26 88.54 110.314 89.0861 110.519 89.5824C110.725 90.0787 111.073 90.5029 111.52 90.8013C111.966 91.0997 112.491 91.259 113.029 91.259C113.385 91.259 113.738 91.1888 114.068 91.0523C114.397 90.9158 114.697 90.7157 114.949 90.4635C115.201 90.2113 115.401 89.9119 115.538 89.5824C115.674 89.2529 115.745 88.8997 115.745 88.543Z" fill="#945CB4"/>
<path d="M131.768 88.543C131.768 88.0055 131.608 87.4802 131.31 87.0334C131.011 86.5866 130.586 86.2385 130.09 86.0331C129.593 85.8277 129.047 85.7744 128.519 85.8797C127.992 85.9851 127.509 86.2445 127.129 86.625C126.749 87.0055 126.491 87.4901 126.387 88.0175C126.283 88.5448 126.338 89.0911 126.545 89.5872C126.751 90.0834 127.101 90.5071 127.548 90.8047C127.996 91.1023 128.521 91.2604 129.059 91.259C129.415 91.259 129.768 91.1887 130.097 91.0521C130.426 90.9156 130.725 90.7154 130.977 90.4631C131.229 90.2108 131.428 89.9113 131.564 89.5819C131.699 89.2524 131.769 88.8994 131.768 88.543Z" fill="#945CB4"/>
<path d="M147.799 88.543C147.799 88.0059 147.64 87.4807 147.341 87.0341C147.043 86.5875 146.619 86.2393 146.123 86.0338C145.626 85.8282 145.08 85.7744 144.553 85.8792C144.026 85.984 143.543 86.2427 143.163 86.6225C142.783 87.0024 142.524 87.4863 142.419 88.0132C142.315 88.54 142.368 89.0861 142.574 89.5824C142.779 90.0787 143.128 90.5029 143.574 90.8013C144.021 91.0997 144.546 91.259 145.083 91.259C145.44 91.259 145.793 91.1888 146.123 91.0523C146.452 90.9158 146.751 90.7157 147.004 90.4635C147.256 90.2113 147.456 89.9119 147.592 89.5824C147.729 89.2529 147.799 88.8997 147.799 88.543Z" fill="#945CB4"/>
</svg>
