<svg width="294" height="294" viewBox="0 0 294 294" fill="none" xmlns="http://www.w3.org/2000/svg">
<path d="M61.5856 259.896C108.961 284.868 185.771 284.868 233.146 259.896C280.522 234.924 280.527 194.446 233.146 169.479C185.765 144.513 108.961 144.507 61.5797 169.479C14.1987 194.452 14.2046 234.912 61.5856 259.896Z" fill="#F5F5F5"/>
<path d="M41.2729 228.644L43.472 229.908C43.8665 230.108 44.3027 230.212 44.745 230.212C45.1873 230.212 45.6234 230.108 46.018 229.908L147.636 171.243C147.791 171.193 147.925 171.095 148.02 170.963C148.116 170.832 148.167 170.674 148.167 170.511C148.167 170.349 148.116 170.191 148.02 170.059C147.925 169.928 147.791 169.83 147.636 169.779L145.455 168.533C145.06 168.333 144.624 168.229 144.182 168.229C143.739 168.229 143.303 168.333 142.909 168.533L41.2729 227.174C41.1193 227.226 40.9859 227.325 40.8914 227.457C40.7969 227.589 40.7461 227.747 40.7461 227.909C40.7461 228.071 40.7969 228.229 40.8914 228.361C40.9859 228.493 41.1193 228.592 41.2729 228.644Z" fill="#E0E0E0"/>
<path d="M187.972 249.777C205.099 249.777 218.983 242.166 218.983 232.778C218.983 223.389 205.099 215.778 187.972 215.778C170.845 215.778 156.961 223.389 156.961 232.778C156.961 242.166 170.845 249.777 187.972 249.777Z" fill="#E0E0E0"/>
<path d="M223.801 203.519C237.015 203.519 247.726 197.646 247.726 190.401C247.726 183.155 237.015 177.282 223.801 177.282C210.587 177.282 199.875 183.155 199.875 190.401C199.875 197.646 210.587 203.519 223.801 203.519Z" fill="#E0E0E0"/>
<path d="M235.5 177.217C235.465 174.213 237.564 167.968 240.634 164.028C243.703 160.089 248.566 157.178 252.064 158.331C255.322 159.401 255.004 163.658 251.118 166.522C247.231 169.385 241.351 172.99 239.675 177.894L236.118 183.915L235.5 177.217Z" fill="#BA68C8"/>
<path opacity="0.1" d="M235.5 177.217C235.465 174.213 237.564 167.968 240.634 164.028C243.703 160.089 248.566 157.178 252.064 158.331C255.322 159.401 255.004 163.658 251.118 166.522C247.231 169.385 241.351 172.99 239.675 177.894L236.118 183.915L235.5 177.217Z" fill="black"/>
<path d="M235.328 181.333C235.376 181.328 235.421 181.307 235.456 181.274C235.491 181.241 235.514 181.198 235.522 181.151C237.41 170.873 245.607 162.441 250.546 160.542C250.601 160.521 250.646 160.478 250.67 160.424C250.694 160.37 250.696 160.309 250.675 160.254C250.665 160.227 250.649 160.203 250.629 160.182C250.61 160.161 250.586 160.145 250.56 160.133C250.534 160.122 250.505 160.116 250.477 160.115C250.448 160.114 250.42 160.12 250.393 160.13C245.354 162.065 237.004 170.638 235.105 181.075C235.1 181.103 235.1 181.132 235.107 181.16C235.113 181.188 235.124 181.214 235.141 181.238C235.157 181.261 235.178 181.281 235.202 181.297C235.226 181.312 235.253 181.322 235.281 181.327L235.328 181.333Z" fill="white"/>
<path d="M236.962 187.878C237.426 186.184 239.455 183.374 242.759 181.028C246.423 178.44 251.079 177.212 252.132 175.218C253.396 172.819 251.362 170.597 247.575 171.102C243.788 171.608 237.191 176.871 236.215 184.667L236.962 187.878Z" fill="#BA68C8"/>
<path d="M236.182 186.114C236.225 186.11 236.265 186.094 236.298 186.068C236.331 186.041 236.356 186.007 236.371 185.967C239.405 177.147 246.073 173.983 249.171 173.542C249.229 173.534 249.28 173.503 249.315 173.457C249.35 173.411 249.366 173.353 249.36 173.295C249.356 173.267 249.347 173.239 249.332 173.214C249.318 173.189 249.299 173.167 249.276 173.149C249.253 173.132 249.226 173.119 249.198 173.112C249.17 173.105 249.141 173.103 249.113 173.107C245.685 173.595 239.058 176.817 235.953 185.826C235.944 185.853 235.94 185.881 235.942 185.91C235.944 185.938 235.951 185.966 235.964 185.992C235.976 186.018 235.994 186.04 236.015 186.059C236.036 186.078 236.061 186.093 236.088 186.102C236.118 186.114 236.151 186.119 236.182 186.114Z" fill="white"/>
<path d="M44.01 227.162L43.5631 226.903C43.1873 226.659 42.8743 226.329 42.6496 225.941C42.4249 225.552 42.2947 225.117 42.2695 224.669V73.9882C42.2951 73.5396 42.4255 73.1034 42.6502 72.7143C42.8748 72.3253 43.1875 71.9943 43.5631 71.7479L140.654 15.6997C141.055 15.4967 141.498 15.3909 141.947 15.3909C142.397 15.3909 142.84 15.4967 143.241 15.6997L143.682 15.9584C144.059 16.2035 144.373 16.5341 144.597 16.9235C144.822 17.3128 144.952 17.7498 144.975 18.1987V168.874C144.952 169.323 144.822 169.76 144.597 170.149C144.373 170.538 144.059 170.869 143.682 171.114L46.5972 227.162C46.1962 227.365 45.7531 227.471 45.3036 227.471C44.8542 227.471 44.411 227.365 44.01 227.162Z" fill="#BA68C8"/>
<path opacity="0.4" d="M144.964 17.9929C144.876 17.3226 144.335 17.0756 143.688 17.4461L46.5919 73.5001C46.2118 73.7397 45.8983 74.0714 45.6805 74.4644L42.6523 72.7004C42.873 72.3076 43.1883 71.9761 43.5696 71.7361L140.654 15.6997C141.055 15.4967 141.498 15.3909 141.948 15.3909C142.397 15.3909 142.841 15.4967 143.242 15.6997L143.688 15.9584C144.032 16.1886 144.324 16.4889 144.544 16.8395C144.763 17.19 144.907 17.5831 144.964 17.9929Z" fill="white"/>
<path opacity="0.1" d="M46.3815 227.262C46.0046 227.412 45.6002 227.481 45.1948 227.464C44.7895 227.447 44.3923 227.344 44.0295 227.162L43.5768 226.903C43.2009 226.658 42.8884 226.327 42.6646 225.937C42.4409 225.548 42.3122 225.112 42.2891 224.663V73.9881C42.3027 73.5393 42.4323 73.1018 42.6654 72.718L45.6936 74.482C45.4533 74.8587 45.3099 75.289 45.2761 75.7345V226.415C45.2761 227.156 45.77 227.503 46.3815 227.262Z" fill="black"/>
<path d="M56.7522 172.666L56.3053 172.407C55.9295 172.163 55.6165 171.833 55.3918 171.445C55.1671 171.057 55.0369 170.621 55.0117 170.173V143.09C55.0369 142.641 55.167 142.205 55.3917 141.816C55.6164 141.426 55.9294 141.096 56.3053 140.85L144.452 89.9111C144.852 89.7081 145.295 89.6023 145.743 89.6023C146.192 89.6023 146.634 89.7081 147.034 89.9111L147.481 90.1698C147.858 90.4148 148.171 90.7455 148.396 91.1348C148.621 91.5241 148.75 91.9611 148.774 92.4101V119.493C148.75 119.942 148.621 120.378 148.396 120.766C148.171 121.154 147.857 121.484 147.481 121.728L59.3394 172.666C58.9384 172.869 58.4953 172.975 58.0458 172.975C57.5963 172.975 57.1532 172.869 56.7522 172.666Z" fill="#EBEBEB"/>
<path d="M148.763 92.2043C148.675 91.534 148.134 91.2871 147.481 91.6575L59.3341 142.602C58.954 142.841 58.6405 143.173 58.4227 143.566L55.3945 141.802C55.6125 141.406 55.9283 141.072 56.3118 140.832L144.453 89.8935C144.853 89.6905 145.295 89.5847 145.744 89.5847C146.192 89.5847 146.634 89.6905 147.034 89.8935L147.481 90.1522C147.83 90.3818 148.125 90.6839 148.346 91.0381C148.568 91.3923 148.71 91.7901 148.763 92.2043Z" fill="#FAFAFA"/>
<path d="M59.1159 172.772C58.7388 172.922 58.334 172.99 57.9285 172.972C57.523 172.954 57.1261 172.85 56.7639 172.666L56.3053 172.413C55.9321 172.165 55.622 171.834 55.3995 171.445C55.1769 171.056 55.0482 170.621 55.0234 170.173V143.09C55.0371 142.641 55.1667 142.204 55.3998 141.82L58.428 143.584C58.1974 143.969 58.066 144.405 58.0458 144.854V171.943C58.0399 172.66 58.5103 173.007 59.1159 172.772Z" fill="#E0E0E0"/>
<path d="M71.7996 140.785C76.827 137.88 80.9018 140.138 80.9018 145.83C80.9018 151.522 76.8211 158.437 71.7878 161.277C66.7545 164.117 62.6797 161.865 62.6797 156.232C62.6797 150.599 66.7722 143.69 71.7996 140.785Z" fill="#BA68C8"/>
<path d="M56.7522 209.369L56.3053 209.11C55.9295 208.866 55.6165 208.536 55.3918 208.148C55.1671 207.759 55.0369 207.324 55.0117 206.876V179.793C55.0369 179.344 55.167 178.908 55.3917 178.518C55.6164 178.129 55.9294 177.798 56.3053 177.552L144.452 126.614C144.852 126.411 145.295 126.305 145.743 126.305C146.192 126.305 146.634 126.411 147.034 126.614L147.481 126.873C147.858 127.117 148.172 127.448 148.397 127.837C148.622 128.227 148.751 128.664 148.774 129.113V156.196C148.75 156.644 148.621 157.081 148.396 157.469C148.171 157.857 147.857 158.187 147.481 158.431L59.3394 209.369C58.9384 209.572 58.4953 209.678 58.0458 209.678C57.5963 209.678 57.1532 209.572 56.7522 209.369Z" fill="#EBEBEB"/>
<path d="M148.763 128.901C148.675 128.231 148.134 127.99 147.481 128.36L59.3341 179.305C58.9555 179.544 58.6423 179.873 58.4227 180.263L55.3945 178.499C55.6175 178.119 55.933 177.801 56.3118 177.576L144.453 126.637C144.853 126.434 145.295 126.329 145.744 126.329C146.192 126.329 146.634 126.434 147.034 126.637L147.481 126.896C147.825 127.12 148.117 127.415 148.338 127.76C148.559 128.106 148.704 128.495 148.763 128.901Z" fill="#FAFAFA"/>
<path d="M59.1159 209.469C58.7392 209.62 58.3347 209.689 57.9292 209.672C57.5237 209.655 57.1265 209.551 56.7639 209.369L56.3053 209.11C55.9312 208.863 55.6203 208.532 55.3976 208.143C55.175 207.754 55.0468 207.318 55.0234 206.87V179.793C55.0363 179.344 55.166 178.906 55.3998 178.522L58.428 180.286C58.198 180.674 58.0667 181.112 58.0458 181.562V208.652C58.0399 209.363 58.5103 209.71 59.1159 209.469Z" fill="#E0E0E0"/>
<path d="M71.7996 177.488C76.827 174.583 80.9018 176.841 80.9018 182.533C80.9018 188.225 76.8211 195.139 71.7878 197.979C66.7545 200.82 62.6797 198.567 62.6797 192.934C62.6797 187.301 66.7722 180.387 71.7996 177.488Z" fill="#BA68C8"/>
<path d="M56.7522 111.291L56.3053 111.032C55.9294 110.786 55.6164 110.455 55.3917 110.066C55.167 109.677 55.0369 109.24 55.0117 108.792V81.7319C55.0369 81.2841 55.1671 80.8485 55.3918 80.4603C55.6165 80.0722 55.9295 79.7423 56.3053 79.4975L144.452 28.5356C144.852 28.3326 145.295 28.2268 145.743 28.2268C146.192 28.2268 146.634 28.3326 147.034 28.5356L147.481 28.7943C147.857 29.038 148.171 29.3676 148.396 29.756C148.621 30.1444 148.75 30.5805 148.774 31.0287V58.112C148.75 58.5609 148.621 58.9979 148.396 59.3872C148.171 59.7766 147.858 60.1072 147.481 60.3523L59.3394 111.291C58.9384 111.494 58.4953 111.6 58.0458 111.6C57.5963 111.6 57.1532 111.494 56.7522 111.291Z" fill="#EBEBEB"/>
<path d="M148.763 30.823C148.675 30.1526 148.134 29.9116 147.481 30.282L59.3341 81.2263C58.9529 81.4621 58.639 81.7922 58.4227 82.1848L55.3945 80.4208C55.6112 80.025 55.9274 79.6926 56.3118 79.4564L144.453 28.518C144.853 28.315 145.295 28.2092 145.744 28.2092C146.192 28.2092 146.634 28.315 147.034 28.518L147.481 28.7767C147.83 29.0051 148.125 29.3062 148.346 29.6594C148.568 30.0126 148.71 30.4096 148.763 30.823Z" fill="#FAFAFA"/>
<path d="M59.1179 111.391C58.7412 111.542 58.3366 111.611 57.9311 111.594C57.5257 111.576 57.1285 111.473 56.7659 111.291L56.3073 111.032C55.9305 110.785 55.6175 110.452 55.3937 110.06C55.17 109.669 55.0418 109.23 55.0195 108.78V81.732C55.0322 81.2812 55.1618 80.8415 55.3959 80.4561L58.4241 82.2201C58.1932 82.6073 58.0619 83.0456 58.0419 83.496V110.544C58.0419 111.285 58.5123 111.626 59.1179 111.391Z" fill="#E0E0E0"/>
<path d="M71.7996 79.4095C76.827 76.5048 80.9018 78.7627 80.9018 84.4486C80.9018 90.1346 76.8211 97.0554 71.7878 99.9013C66.7545 102.747 62.6797 100.489 62.6797 94.8562C62.6797 89.2232 66.7722 82.3201 71.7996 79.4095Z" fill="#BA68C8"/>
<path d="M62.9514 145.677L62.5045 145.418C62.1276 145.173 61.8139 144.843 61.5891 144.453C61.3643 144.064 61.2347 143.627 61.2109 143.178V116.095C61.2356 115.646 61.3656 115.209 61.5903 114.82C61.8151 114.431 62.1282 114.1 62.5045 113.854L150.646 62.916C151.047 62.713 151.49 62.6072 151.939 62.6072C152.389 62.6072 152.832 62.713 153.233 62.916L153.68 63.1689C154.055 63.4153 154.368 63.7463 154.593 64.1353C154.817 64.5244 154.948 64.9606 154.973 65.4091V92.4924C154.948 92.941 154.818 93.3775 154.593 93.7666C154.369 94.1557 154.056 94.4866 153.68 94.7327L65.5327 145.677C65.1328 145.88 64.6906 145.986 64.2421 145.986C63.7936 145.986 63.3514 145.88 62.9514 145.677Z" fill="#37474F"/>
<path d="M154.962 65.2092C154.874 64.5389 154.333 64.2919 153.68 64.6683L65.5333 115.613C65.1518 115.85 64.8363 116.179 64.6161 116.571L61.5938 114.807C61.8097 114.411 62.1235 114.077 62.5052 113.837L150.646 62.916C151.047 62.713 151.49 62.6072 151.94 62.6072C152.389 62.6072 152.833 62.713 153.234 62.916L153.68 63.1689C154.028 63.3971 154.322 63.6975 154.543 64.0495C154.765 64.4016 154.907 64.7971 154.962 65.2092Z" fill="#455A64"/>
<path d="M65.3151 145.777C64.9382 145.927 64.5338 145.996 64.1284 145.979C63.7231 145.962 63.3259 145.859 62.9631 145.677L62.5104 145.418C62.1352 145.172 61.8231 144.841 61.5995 144.452C61.3758 144.063 61.2467 143.626 61.2227 143.178V116.095C61.2383 115.646 61.37 115.208 61.6049 114.825L64.6272 116.589C64.3982 116.974 64.2688 117.411 64.2509 117.859V144.948C64.2391 145.665 64.6801 146.012 65.3151 145.777Z" fill="#263238"/>
<path d="M77.9988 113.79C83.0262 110.891 87.101 113.149 87.101 118.835C87.101 124.521 83.0203 131.442 77.987 134.288C72.9538 137.134 68.873 134.876 68.8789 129.243C68.8848 123.61 72.9714 116.695 77.9988 113.79Z" fill="#F5F5F5"/>
<path d="M78.2045 130.154C78.0454 130.274 77.8535 130.344 77.6541 130.354C77.4547 130.363 77.257 130.312 77.0873 130.207L73.0889 127.184C72.5538 126.779 72.6185 125.667 73.2359 124.691C73.8533 123.715 74.7882 123.257 75.3174 123.662L78.1045 125.773L85.8485 109.139C86.3306 108.098 87.2538 107.375 87.9124 107.58C88.5709 107.786 88.712 108.756 88.224 109.78L79.3805 128.772C79.1359 129.318 78.7427 129.785 78.2456 130.119L78.2045 130.154Z" fill="#BA68C8"/>
<path d="M154.953 105.428L152.396 103.953C151.284 103.317 149.926 103.953 149.209 104.388L147.592 103.488C145.657 102.312 142.964 104.764 142.364 105.346L141.67 104.952C139.618 103.717 135.885 107.028 135.885 107.028V94.668L137.507 93.886L134.926 92.3924C134.556 92.2283 134.15 92.1642 133.747 92.2065C133.345 92.2488 132.961 92.3961 132.633 92.6335C131.678 93.2554 130.883 94.0939 130.313 95.0809C129.743 96.0679 129.413 97.1755 129.352 98.3136V126.873C127 125.109 124.483 124.05 122.296 124.444C120.553 124.852 119.029 125.902 118.027 127.384C116.945 129.301 118.733 130.501 121.038 133.135C123.343 135.769 125.342 138.897 127.423 140.838C128.451 141.879 129.671 142.71 131.016 143.284V147L133.544 148.464L150.291 135.875V132.153C150.291 132.153 152.678 122.616 153.442 118.629C154.177 114.795 154.853 108.674 153.589 105.499L154.959 105.405L154.953 105.428Z" fill="#BA68C8"/>
<path opacity="0.4" d="M154.953 105.428L152.396 103.953C151.284 103.317 149.926 103.953 149.209 104.388L147.592 103.488C145.657 102.312 142.964 104.764 142.364 105.346L141.67 104.952C139.618 103.717 135.885 107.028 135.885 107.028V94.668L137.507 93.886L134.926 92.3924C134.556 92.2283 134.15 92.1642 133.747 92.2065C133.345 92.2488 132.961 92.3961 132.633 92.6335C131.678 93.2554 130.883 94.0939 130.313 95.0809C129.743 96.0679 129.413 97.1755 129.352 98.3136V126.873C127 125.109 124.483 124.05 122.296 124.444C120.553 124.852 119.029 125.902 118.027 127.384C116.945 129.301 118.733 130.501 121.038 133.135C123.343 135.769 125.342 138.897 127.423 140.838C128.451 141.879 129.671 142.71 131.016 143.284V147L133.544 148.464L150.291 135.875V132.153C150.291 132.153 152.678 122.616 153.442 118.629C154.177 114.795 154.853 108.674 153.589 105.499L154.959 105.405L154.953 105.428Z" fill="white"/>
<path d="M136.071 138.25L123.405 130.942L117.86 127.737C117.155 129.466 118.866 130.677 121.03 133.153C123.317 135.769 125.334 138.915 127.415 140.855C128.443 141.896 129.663 142.727 131.008 143.301V147L133.537 148.464L137.235 145.683C136.759 142.543 136.071 138.25 136.071 138.25Z" fill="#BA68C8"/>
<path d="M131.884 99.7893L129.355 98.3252V128.284L131.884 128.348V99.7893Z" fill="#BA68C8"/>
<path d="M151.753 107.351L153.717 105.905C153.67 105.775 153.635 105.646 153.582 105.522L154.299 105.475L152.723 105.405L150.095 103.952C149.788 104.076 149.491 104.223 149.207 104.393L150.03 104.87L151.753 107.351Z" fill="#BA68C8"/>
<path d="M144.798 106.922L146.638 105.522L144.098 103.982C143.485 104.376 142.912 104.829 142.387 105.334L144.151 106.357L144.798 106.922Z" fill="#BA68C8"/>
<path d="M140.95 106.786L138.434 105.316L138.445 105.293V108.474L141.374 107.404L140.95 106.786Z" fill="#BA68C8"/>
<g opacity="0.15">
<path d="M136.071 138.25L123.405 130.942L117.86 127.737C117.155 129.466 118.866 130.677 121.03 133.153C123.317 135.769 125.334 138.915 127.415 140.855C128.443 141.896 129.663 142.727 131.008 143.301V147L133.537 148.464L137.235 145.683C136.759 142.543 136.071 138.25 136.071 138.25Z" fill="black"/>
<path d="M131.884 99.7893L129.355 98.3252V128.284L131.884 128.348V99.7893Z" fill="black"/>
<path d="M151.753 107.351L153.717 105.905C153.67 105.775 153.635 105.646 153.582 105.522L154.299 105.475L152.723 105.405L150.095 103.952C149.788 104.076 149.491 104.223 149.207 104.393L150.03 104.87L151.753 107.351Z" fill="black"/>
<path d="M144.798 106.922L146.638 105.522L144.098 103.982C143.485 104.376 142.912 104.829 142.387 105.334L144.151 106.357L144.798 106.922Z" fill="black"/>
<path d="M140.95 106.786L138.434 105.316L138.445 105.293V108.474L141.374 107.404L140.95 106.786Z" fill="black"/>
</g>
<path d="M133.535 148.488V144.765C132.191 144.183 130.972 143.344 129.948 142.296C127.867 140.355 125.832 137.204 123.563 134.593C121.293 131.982 119.447 130.753 120.552 128.842C121.554 127.36 123.079 126.31 124.821 125.902C127.02 125.508 129.525 126.585 131.877 128.331V99.7894C131.938 98.6518 132.266 97.5445 132.835 96.5576C133.404 95.5707 134.198 94.7319 135.152 94.1093C136.963 93.0627 138.433 93.9094 138.433 96.0027V108.474C138.433 108.474 142.955 104.464 144.778 106.922C144.778 106.922 149.223 102.271 151.246 106.199C151.246 106.199 154.503 103.57 155.95 106.622C157.396 109.674 156.714 116.13 155.95 120.117C155.185 124.103 152.792 133.641 152.792 133.641V137.363L133.535 148.488Z" fill="#BA68C8"/>
<path d="M138.446 113.831C138.446 113.831 138.857 108.139 140.95 106.775H140.874C140.008 107.242 139.194 107.8 138.446 108.439V108.333C138.438 108.35 138.434 108.368 138.434 108.386C138.434 108.404 138.438 108.422 138.446 108.439V113.831Z" fill="#455A64"/>
<path d="M144.797 106.922V112.131C144.797 112.131 145.385 106.775 146.561 105.481C145.922 105.895 145.33 106.378 144.797 106.922Z" fill="#455A64"/>
<path d="M151.242 106.199V111.426C151.242 111.426 151.56 106.163 152.695 105.387C152.173 105.585 151.684 105.859 151.242 106.199Z" fill="#455A64"/>
<path d="M132.62 89.0467C132.208 89.2819 131.879 89.1466 131.879 88.735V84.619C131.901 84.3784 131.979 84.1464 132.108 83.942C132.237 83.7375 132.412 83.5666 132.62 83.443C133.026 83.2078 133.355 83.3489 133.355 83.7547V87.8707C133.334 88.1109 133.257 88.3427 133.129 88.5472C133.001 88.7516 132.827 88.9228 132.62 89.0467Z" fill="#EBEBEB"/>
<path d="M126.423 95.5675C126.135 96.0614 125.671 96.3319 125.383 96.1555L122.99 94.7736C122.701 94.609 122.701 94.068 122.99 93.5976C123.278 93.0978 123.742 92.8274 124.03 93.0096L126.423 94.3915C126.735 94.5267 126.735 95.0677 126.423 95.5675Z" fill="#EBEBEB"/>
<path d="M123.888 104.111V104.229C123.863 104.484 123.778 104.73 123.64 104.947C123.502 105.163 123.315 105.344 123.094 105.475L119.825 107.363C119.39 107.615 119.031 107.468 119.031 107.027V106.91C119.058 106.655 119.143 106.409 119.281 106.193C119.419 105.977 119.605 105.795 119.825 105.663L123.094 103.776C123.535 103.523 123.888 103.67 123.888 104.111Z" fill="#EBEBEB"/>
<path d="M141.344 94.1502V94.0326C141.368 93.7761 141.453 93.5289 141.59 93.3112C141.728 93.0936 141.916 92.9116 142.138 92.7802L145.407 90.8927C145.842 90.6399 146.201 90.7927 146.201 91.2279V91.3455C146.174 91.6006 146.089 91.8461 145.951 92.0625C145.813 92.2788 145.627 92.4601 145.407 92.592L142.138 94.4795C141.708 94.7323 141.344 94.5853 141.344 94.1502Z" fill="#EBEBEB"/>
<path d="M138.771 88.4351C138.483 88.2704 138.483 87.7353 138.771 87.2591L141.164 83.1431C141.452 82.6433 141.917 82.3728 142.205 82.5551C142.493 82.7256 142.493 83.2607 142.205 83.7605L139.812 87.8765C139.547 88.3351 139.077 88.6056 138.771 88.4351Z" fill="#EBEBEB"/>
<path d="M231.804 185.35V184.679C231.539 185.461 230.316 188.842 228.464 190.559C226.988 191.906 224.971 193.458 224.459 194.957C223.948 196.457 227.264 197.045 228.64 196.804C230.245 196.516 232.315 195.628 233.444 194.222C234.238 193.246 234.743 192.094 235.308 191.324C235.872 190.553 237.178 189.707 237.489 188.819C237.654 188.331 237.454 187.261 237.219 186.361C236.984 185.461 236.766 184.626 236.484 184.703V185.22C235.813 185.744 234.983 186.023 234.132 186.008C233.438 186.008 231.798 185.867 231.804 185.35Z" fill="#263238"/>
<path d="M227.124 191.718C227.582 191.312 228.047 190.912 228.464 190.542C229.758 189.366 230.746 187.355 231.316 185.985C231.638 185.203 231.804 184.366 231.804 183.521V180.857H236.508V185.197V185.314C236.285 186.284 234.156 188.842 232.916 190.559C232.098 191.688 230.564 193.123 228.688 193.376C226.883 193.611 225.983 193.052 227.124 191.718Z" fill="#FFA8A7"/>
<path d="M213.555 180.734V180.063C213.291 180.851 212.062 184.232 210.21 185.943C208.734 187.29 206.717 188.848 206.205 190.348C205.694 191.847 209.01 192.435 210.386 192.188C211.991 191.906 214.061 191.012 215.19 189.613C215.984 188.637 216.49 187.478 217.054 186.714C217.619 185.949 218.93 185.091 219.236 184.203C219.4 183.715 219.2 182.651 218.965 181.751C218.73 180.851 218.512 179.987 218.23 180.087V180.599C217.561 181.126 216.73 181.407 215.878 181.392C215.208 181.392 213.55 181.257 213.555 180.734Z" fill="#263238"/>
<path d="M208.878 187.108C209.331 186.696 209.796 186.302 210.213 185.932C211.507 184.756 212.495 182.739 213.065 181.369C213.39 180.59 213.557 179.755 213.559 178.911V176.241H218.233V180.581V180.698C218.01 181.675 215.881 184.256 214.641 185.943C213.823 187.072 212.289 188.513 210.413 188.76C208.631 188.995 207.732 188.442 208.878 187.108Z" fill="#FFA8A7"/>
<path d="M235.554 112.631C239.182 120.552 235.419 148.464 235.419 148.464C235.53 149.746 237 152.28 237.547 157.937C238.194 164.622 236.53 181.41 236.53 181.41C235.82 181.82 235.021 182.052 234.201 182.085C233.382 182.117 232.567 181.95 231.826 181.598C231.826 181.598 227.369 156.314 226.534 149.67C225.793 143.866 224.37 131.124 224.37 131.124L220.378 149.646C220.96 151.516 221.383 153.432 221.642 155.373C222.024 159.283 218.231 177.488 218.231 177.488C218.231 177.488 216.62 178.076 213.557 177.629C213.557 177.629 212.216 153.468 211.863 148.758C211.275 140.85 213.369 116.165 214.803 111.485L235.554 112.631Z" fill="#37474F"/>
<path d="M224.369 131.124L223.193 123.763C223.193 123.763 218.207 122.734 215.949 120.605C217.505 122.433 219.542 123.79 221.829 124.521L223.152 130.189L220.841 147.341L224.369 131.124Z" fill="#263238"/>
<path d="M221.413 84.8896C220.275 84.7919 219.131 84.9857 218.089 85.4527C217.047 85.9198 216.141 86.6448 215.456 87.5592C213.586 90.0052 206.419 99.3192 206.419 99.3192C206.419 99.3192 195.835 94.0272 195.335 93.4039C194.835 92.7806 195.112 91.5105 195.253 90.8167C195.394 90.1228 195.635 88.5646 195.788 88.1295C196.058 87.371 194.935 87.5768 194.271 88.2883C193.606 88.9997 193.318 90.3874 192.983 90.6403C192.648 90.8931 190.143 87.9884 188.92 86.5948C187.697 85.2013 187.156 84.2428 186.315 84.8014C185.727 85.213 186.103 86.0421 186.979 87.2358C187.387 87.7417 187.764 88.2719 188.108 88.8234C188.208 89.035 187.891 89.2056 187.762 89.3232C187.526 89.5348 187.103 89.9112 187.074 90.211C187.08 90.3921 187.068 90.5733 187.038 90.752C186.927 91.1518 186.45 91.34 186.297 91.7281C186.197 92.0044 186.297 92.3161 186.25 92.6159C186.215 92.8041 186.109 92.9746 186.074 93.1687C186.062 93.3575 186.091 93.5468 186.159 93.7234C186.227 93.9 186.332 94.0598 186.468 94.1918C187.321 95.2149 188.491 95.603 189.614 96.2263C190.549 96.7437 191.513 96.9672 192.589 97.4434C193.665 97.9197 206.142 106.575 208.118 105.481C210.094 104.388 220.29 92.5454 220.29 92.5454C223.23 87.6591 221.413 84.8896 221.413 84.8896Z" fill="#FFA8A7"/>
<path d="M229.157 85.1073C233.803 85.4307 234.132 87.6768 235.296 90.1288C236.148 92.0231 236.226 94.1754 235.514 96.1264L232.262 105.499C232.262 105.499 233.779 109.168 235.543 112.632C227.411 117.171 217.256 114.784 214.81 111.456C214.704 110.75 215.334 105.258 215.722 101.671C214.287 98.0786 213.911 95.7912 214.516 93.4392C215.639 89.0292 219.991 84.7368 221.919 84.8897L229.157 85.1073Z" fill="#F5F5F5"/>
<path d="M224.684 81.2559H226.489C227.738 81.2559 228.976 81.0096 230.13 80.531C231.284 80.0524 232.333 79.351 233.216 78.4669C234.099 77.5828 234.799 76.5332 235.276 75.3783C235.754 74.2234 235.998 72.9857 235.997 71.7362C235.995 69.2015 234.987 66.7711 233.194 64.9794C231.402 63.1877 228.971 62.1812 226.436 62.1812H224.737C222.208 62.1889 219.785 63.1991 217.999 64.9901C216.214 66.7812 215.211 69.2071 215.211 71.7362C215.206 74.2542 216.201 76.6712 217.977 78.4562C219.754 80.2411 222.166 81.2481 224.684 81.2559Z" fill="#263238"/>
<path d="M241.08 86.2655C239.591 86.264 238.164 85.6718 237.111 84.6191C236.059 83.5663 235.466 82.1389 235.465 80.6501V68.6196C236.203 68.6196 236.933 68.7651 237.615 69.0476C238.297 69.3302 238.916 69.7444 239.438 70.2664C239.959 70.7885 240.373 71.4082 240.654 72.0902C240.936 72.7722 241.081 73.503 241.08 74.2409V86.2655Z" fill="#263238"/>
<path d="M236.495 66.4912L235.09 68.7491C235.233 68.8493 235.396 68.9193 235.567 68.9549C235.738 68.9906 235.915 68.9911 236.086 68.9565C236.258 68.9218 236.421 68.8528 236.565 68.7535C236.709 68.6542 236.831 68.5267 236.924 68.3787C237.108 68.069 237.166 67.7005 237.087 67.3493C237.007 66.998 236.795 66.6909 236.495 66.4912Z" fill="#263238"/>
<path d="M218.598 66.4028C217.498 67.0496 216.14 69.8132 216.275 75.6109C216.387 80.5266 217.98 81.7379 218.78 82.0789C219.58 82.42 221.132 82.2142 222.62 81.9613V84.9013C222.62 84.9013 220.55 87.3062 220.679 88.6586C220.808 90.011 223.672 90.3286 225.612 89.0114C226.868 88.1043 227.946 86.9742 228.794 85.6775V78.5744C228.951 78.7678 229.144 78.9279 229.364 79.0455C229.584 79.1631 229.824 79.2358 230.072 79.2593C230.32 79.2828 230.57 79.2568 230.808 79.1826C231.046 79.1084 231.267 78.9876 231.457 78.8273C233.115 77.7277 233.18 75.0053 232.216 74.0292C231.251 73.0531 229.176 73.3648 228.794 74.7113C228.794 74.7113 226.4 74.7995 223.219 73.0531C221.98 72.386 220.916 71.4362 220.113 70.2807C219.31 69.1252 218.791 67.7966 218.598 66.4028Z" fill="#FFA8A7"/>
<path d="M222.305 74.3762C222.3 74.4979 222.33 74.6185 222.393 74.7229C222.456 74.8272 222.548 74.9107 222.658 74.9627C222.768 75.0148 222.891 75.0331 223.012 75.0154C223.132 74.9977 223.245 74.9448 223.335 74.8633C223.426 74.7818 223.49 74.6753 223.52 74.5573C223.55 74.4393 223.545 74.315 223.505 74.2001C223.464 74.0852 223.391 73.9848 223.294 73.9115C223.196 73.8382 223.08 73.7953 222.958 73.7882C222.795 73.7847 222.636 73.8436 222.515 73.9528C222.394 74.0621 222.319 74.2135 222.305 74.3762Z" fill="#263238"/>
<path d="M221.595 78.5452L220.16 78.9979C220.186 79.0937 220.231 79.1834 220.292 79.2616C220.352 79.3398 220.429 79.4049 220.515 79.4532C220.602 79.5014 220.697 79.5318 220.796 79.5425C220.894 79.5532 220.994 79.5439 221.089 79.5154C221.283 79.4506 221.444 79.3133 221.538 79.1323C221.632 78.9514 221.653 78.7409 221.595 78.5452Z" fill="#F28F8F"/>
<path d="M217.242 72.4828L218.489 71.6125C218.437 71.5288 218.368 71.4565 218.287 71.4002C218.205 71.3439 218.114 71.3046 218.017 71.2848C217.92 71.265 217.82 71.2651 217.724 71.285C217.627 71.305 217.535 71.3444 217.454 71.4008C217.287 71.5196 217.171 71.6981 217.132 71.8995C217.093 72.1009 217.132 72.3097 217.242 72.4828Z" fill="#263238"/>
<path d="M217.56 73.9292C217.554 74.012 217.564 74.0953 217.591 74.1741C217.617 74.2529 217.659 74.3257 217.713 74.3882C217.768 74.4506 217.835 74.5015 217.91 74.5378C217.984 74.5741 218.065 74.5951 218.148 74.5995C218.276 74.6099 218.403 74.5821 218.514 74.5196C218.626 74.4571 218.716 74.3628 218.773 74.2488C218.83 74.1347 218.853 74.0062 218.836 73.8796C218.82 73.753 218.767 73.6341 218.682 73.5381C218.598 73.4421 218.487 73.3735 218.364 73.341C218.24 73.3085 218.11 73.3135 217.99 73.3555C217.869 73.3976 217.764 73.4746 217.687 73.5768C217.611 73.679 217.567 73.8017 217.56 73.9292Z" fill="#263238"/>
<path d="M220.55 73.5767L220.45 77.2987L218.492 76.6931L220.55 73.5767Z" fill="#F28F8F"/>
<path d="M222.617 81.9733C224.199 81.7675 227.451 80.8326 227.956 79.5508C227.752 80.2009 227.354 80.7732 226.815 81.1913C225.845 82.0204 222.617 82.9553 222.617 82.9553V81.9733Z" fill="#F28F8F"/>
<path opacity="0.1" d="M227.076 113.514C227.713 113.367 228.315 113.094 228.845 112.712C229.376 112.33 229.825 111.845 230.165 111.287C230.506 110.729 230.732 110.108 230.829 109.462C230.927 108.815 230.894 108.156 230.734 107.522C230.639 107.135 230.417 106.792 230.104 106.548C229.79 106.303 229.403 106.172 229.005 106.175C229.527 105.83 229.975 105.384 230.324 104.864C230.673 104.345 230.916 103.761 231.039 103.147L232.027 97.2672C232.147 96.3094 232.06 95.3372 231.774 94.4154L235.044 90.6345L235.632 91.052C236.128 92.7127 236.081 94.4887 235.496 96.1206L232.262 105.499C232.262 105.499 233.779 109.168 235.543 112.632C232.899 114.058 229.98 114.901 226.983 115.104C223.986 115.306 220.98 114.865 218.168 113.808C221.129 114.272 224.152 114.172 227.076 113.514Z" fill="black"/>
<path d="M243.873 108.445C239.651 91.1873 236.529 85.4308 231.401 85.5131C229.902 87.2771 230.319 92.7102 232.683 95.9912C232.683 95.9912 237.975 107.122 238.804 111.079C239.539 114.554 240.38 118.929 240.327 121.916C240.311 122.446 240.102 122.952 239.739 123.339C238.775 124.386 238.775 125.227 238.146 126.379C237.658 127.285 237.123 127.626 237.275 127.826C237.477 128.041 237.752 128.172 238.046 128.194C238.34 128.216 238.632 128.126 238.863 127.943C239.308 127.607 239.703 127.212 240.039 126.767C239.873 127.875 239.552 128.953 239.086 129.972C238.005 132.412 238.269 133.659 241.562 132.788C243.626 132.241 244.925 130.524 245.237 125.556C245.386 123.729 245.404 121.894 245.29 120.064C244.872 115.36 244.555 111.22 243.873 108.445Z" fill="#FFA8A7"/>
<path d="M201.985 157.784C202.438 140.985 201.092 136.963 196.623 133.888L194.888 143.619C194.888 143.619 196.923 155.085 196.705 158.907C196.517 162.265 196.188 166.463 195.394 169.174C195.254 169.662 194.938 170.081 194.506 170.35C193.365 171.061 192.907 171.79 192.048 172.702C191.378 173.407 190.808 173.578 190.872 173.801C191.002 174.048 191.22 174.237 191.482 174.33C191.745 174.424 192.033 174.416 192.289 174.307C192.858 174.077 193.399 173.784 193.9 173.431C193.506 174.46 192.948 175.419 192.248 176.271C190.649 178.229 190.578 179.434 193.806 179.464C195.823 179.464 197.434 178.235 198.957 173.783C199.548 172.151 200.021 170.479 200.374 168.78C201.174 164.34 201.915 160.489 201.985 157.784Z" fill="#B16668"/>
<path d="M192.863 132.612C194.998 132.3 197.897 132.747 199.772 136.099C201.648 139.45 202.124 145.218 202.318 150.951C202.318 150.951 198.596 154.062 194.127 152.533L192.863 132.612Z" fill="#BA68C8"/>
<path opacity="0.1" d="M192.863 132.612C194.998 132.3 197.897 132.747 199.772 136.099C201.648 139.45 202.124 145.218 202.318 150.951C202.318 150.951 198.596 154.062 194.127 152.533L192.863 132.612Z" fill="black"/>
<path d="M199.139 224.992C199.474 225.122 199.562 225.769 199.615 227.05C199.65 228.021 199.862 229.72 198.721 230.055C197.581 230.39 195.917 230.22 195.193 229.308C194.282 228.132 193.671 227.156 192.371 225.78C191.242 224.569 190.019 223.428 189.572 221.747C189.161 220.212 189.502 219.548 190.548 219.101C191.983 218.513 194.247 220.494 195.37 220.806C196.334 221.088 198.798 224.863 199.139 224.992Z" fill="#263238"/>
<path d="M199.137 223.805V225.38C198.544 225.759 197.86 225.969 197.158 225.988C196.455 226.006 195.761 225.833 195.15 225.486C195.085 225.333 194.738 223.234 194.738 223.234L199.137 223.805Z" fill="#B16668"/>
<path d="M186.395 234.077C186.67 234.921 186.901 235.779 187.089 236.647C187.283 237.599 187.559 239.193 187.23 239.91C186.901 240.627 185.595 241.086 183.572 241.086C182.267 241.086 180.233 241.962 178.839 242.738C177.446 243.514 174.4 243.861 172.877 243.685C171.083 243.473 169.225 242.433 168.931 241.686C168.637 240.939 169.025 240.175 173.259 238.369C173.3 238.369 179.139 236.453 181.185 234.195L186.395 234.077Z" fill="#263238"/>
<path d="M186.396 232.372C186.396 232.372 186.396 233.548 186.396 234.212C186.396 234.877 185.614 235.876 183.568 235.8C182.133 235.753 181.133 235.365 181.216 234.183V232.478L186.396 232.372Z" fill="#B16668"/>
<path d="M200.161 202.89C199.812 200.091 199.19 197.334 198.303 194.658C198.303 194.658 198.861 187.602 199.132 180.863C199.426 173.607 199.132 164.493 199.255 162.682C199.255 162.682 175.853 157.978 175.435 166.328C175.018 174.677 176.359 196.057 176.611 199.738C176.864 203.419 177.523 206.682 178.287 212.674C179.052 218.666 181.139 232.478 181.139 232.478C181.949 232.89 182.848 233.096 183.757 233.077C184.666 233.059 185.556 232.817 186.349 232.372C186.349 232.372 187.995 215.608 187.825 211.357C187.692 208.209 187.15 205.092 186.213 202.084C186.213 202.084 186.654 195.169 187.048 189.148C187.442 183.127 187.854 180.246 187.942 177.635L188.448 177.382C188.448 177.382 188.959 187.754 189.236 191.441C189.512 195.128 190.1 198.656 191.164 205.494C192.093 211.433 194.845 223.987 194.845 223.987C197.515 225.434 199.114 223.799 199.114 223.799C199.114 223.799 200.884 208.04 200.161 202.89Z" fill="#37474F"/>
<path d="M187.965 177.641C187.965 177.641 193.645 174.842 196.485 172.319C196.485 172.319 193.845 176.035 190.382 177.682C190.382 177.682 189.153 190.571 189.158 190.312L188.447 177.617L187.965 177.641Z" fill="#263238"/>
<path d="M182.914 129.954L184.302 137.575L191.181 137.075L189.741 128.431L182.914 129.954Z" fill="#B16668"/>
<path d="M198.456 136.516C197.774 134.446 195.146 132.188 192.517 132.676C188.608 133.34 184.755 134.302 180.992 135.552C178.582 136.416 176.388 138.492 176.188 146.418C176.188 146.418 175.383 164.893 175.371 168.462C181.416 170.855 187.719 170.785 191.182 170.026C198.427 168.444 199.297 165.44 199.297 165.44C199.297 165.44 199.391 152.157 199.173 146.418C198.991 141.543 198.926 137.939 198.456 136.516Z" fill="#BA68C8"/>
<path d="M177.606 120.681C177.606 120.681 175.842 123.468 176.071 123.733C176.301 123.997 177.618 124.209 177.618 124.209L177.606 120.681Z" fill="#B16668"/>
<path d="M182.45 112.984C178.81 113.837 177.793 115.466 177.575 121.287C177.352 127.367 178.016 129.26 178.833 130.06C179.38 130.601 182.361 130.648 183.878 130.183C185.754 129.595 189.994 128.008 191.922 124.891C194.192 121.246 194.703 116.365 192.14 114.419C188.529 111.72 183.931 112.631 182.45 112.984Z" fill="#B16668"/>
<path d="M182.993 130.371C184.228 129.378 184.116 128.737 184.116 128.737C183.234 129.566 179.953 130.271 178.824 130.06C179.289 130.536 181.423 130.607 182.993 130.371Z" fill="#9A4A4D"/>
<path d="M177.616 114.495C178.686 116.324 181.003 117.2 181.003 117.2C181.702 117.994 181.314 121.099 182.543 121.587C182.543 121.587 183.072 119.329 184.972 119.57C186.871 119.811 187.194 122.233 186.024 123.733C184.854 125.232 183.731 124.697 183.731 124.697C183.731 124.697 183.86 127.902 185.325 129.689C185.325 129.689 186.953 130.177 189.911 129.472C191.734 129.043 194.268 126.696 195.297 124.256C197.484 119.082 197.537 114.472 194.239 113.167C193.833 110.815 191.951 109.797 189.823 109.356C185.242 108.415 182.29 111.273 178.762 111.026C176.74 110.885 176.363 112.349 177.616 114.495Z" fill="#263238"/>
<path d="M194.316 113.954L196.474 112.614C196.296 112.328 196.012 112.124 195.684 112.047C195.356 111.971 195.011 112.027 194.725 112.205C194.439 112.383 194.235 112.667 194.158 112.995C194.082 113.323 194.138 113.668 194.316 113.954Z" fill="#263238"/>
<path d="M181.181 135.522C181.181 135.522 177.758 136.157 175.971 138.862C174.183 141.567 166.445 151.269 166.445 151.269C166.445 151.269 155.32 145.701 154.773 145.036C154.227 144.372 154.532 143.043 154.685 142.308C154.838 141.573 155.085 139.956 155.273 139.485C155.556 138.68 154.374 138.897 153.674 139.644C152.974 140.391 152.668 141.855 152.322 142.108C151.975 142.361 149.323 139.315 148.041 137.845C146.759 136.375 146.153 135.346 145.289 135.951C144.672 136.392 145.071 137.263 145.989 138.521C146.42 139.049 146.813 139.607 147.165 140.191C147.276 140.414 146.935 140.597 146.806 140.714C146.553 140.938 146.112 141.302 146.077 141.655C146.096 141.851 146.096 142.048 146.077 142.243C145.953 142.661 145.436 142.831 145.289 143.266C145.183 143.566 145.289 143.895 145.242 144.207C145.201 144.407 145.095 144.583 145.054 144.795C145.042 144.995 145.074 145.194 145.146 145.381C145.218 145.568 145.329 145.737 145.471 145.877C146.371 146.953 147.606 147.365 148.788 148.017C149.77 148.564 150.787 148.799 151.922 149.305C153.057 149.811 166.392 159.665 168.474 158.519C170.555 157.372 181.222 144.907 181.222 144.907C182.123 143.506 182.599 141.874 182.591 140.208C182.584 138.543 182.094 136.915 181.181 135.522Z" fill="#B16668"/>
<path d="M182.375 135.123C180.905 135.287 178.847 135.017 175.96 138.11C173.643 140.764 171.483 143.552 169.492 146.459C169.872 147.987 170.684 149.372 171.831 150.45C172.978 151.527 174.412 152.25 175.96 152.533C175.96 152.533 181.005 147.365 182.428 144.513C183.851 141.661 184.104 137.039 182.375 135.123Z" fill="#BA68C8"/>
<path opacity="0.1" d="M182.375 135.123C180.905 135.287 178.847 135.017 175.96 138.11C173.643 140.764 171.483 143.552 169.492 146.459C169.872 147.987 170.684 149.372 171.831 150.45C172.978 151.527 174.412 152.25 175.96 152.533C175.96 152.533 181.005 147.365 182.428 144.513C183.851 141.661 184.104 137.039 182.375 135.123Z" fill="black"/>
</svg>
