<svg width="310" height="310" viewBox="0 0 310 310" fill="none" xmlns="http://www.w3.org/2000/svg">
<path d="M310 237.088H0V237.243H310V237.088Z" fill="#EBEBEB"/>
<path d="M107.395 241.044H93.0234V241.199H107.395V241.044Z" fill="#EBEBEB"/>
<path d="M284.436 244.367H249.301V244.522H284.436V244.367Z" fill="#EBEBEB"/>
<path d="M61.6237 244.367H26.4883V244.522H61.6237V244.367Z" fill="#EBEBEB"/>
<path d="M146.941 209.436H27.2254C26.2876 209.434 25.3887 209.061 24.7261 208.397C24.0635 207.733 23.6914 206.834 23.6914 205.896V37.6092C23.6996 36.6767 24.0753 35.7851 24.737 35.1281C25.3987 34.471 26.2929 34.1016 27.2254 34.1H146.941C147.88 34.1 148.781 34.473 149.445 35.1369C150.108 35.8008 150.481 36.7013 150.481 37.6402V205.896C150.481 206.835 150.108 207.735 149.445 208.399C148.781 209.063 147.88 209.436 146.941 209.436ZM27.2254 34.224C26.3287 34.2256 25.4692 34.583 24.8357 35.2177C24.2022 35.8523 23.8464 36.7124 23.8464 37.6092V205.896C23.8464 206.793 24.2022 207.653 24.8357 208.287C25.4692 208.922 26.3287 209.279 27.2254 209.281H146.941C147.838 209.278 148.697 208.92 149.331 208.286C149.965 207.652 150.323 206.793 150.326 205.896V37.6092C150.323 36.7124 149.965 35.8532 149.331 35.2191C148.697 34.5849 147.838 34.2272 146.941 34.224H27.2254Z" fill="#EBEBEB"/>
<path d="M281.051 209.436H161.329C160.391 209.433 159.493 209.059 158.83 208.395C158.166 207.732 157.792 206.834 157.789 205.896V37.6092C157.799 36.6761 158.176 35.7846 158.839 35.1277C159.501 34.4708 160.396 34.1016 161.329 34.1H281.051C281.983 34.1032 282.875 34.4734 283.536 35.1302C284.196 35.7871 284.571 36.6778 284.579 37.6092V205.896C284.58 206.36 284.489 206.82 284.312 207.249C284.136 207.678 283.876 208.068 283.548 208.397C283.221 208.725 282.832 208.986 282.403 209.165C281.975 209.343 281.515 209.435 281.051 209.436ZM161.329 34.224C160.432 34.2272 159.573 34.5849 158.939 35.2191C158.305 35.8532 157.947 36.7124 157.944 37.6092V205.896C157.947 206.793 158.305 207.652 158.939 208.286C159.573 208.92 160.432 209.278 161.329 209.281H281.051C281.948 209.278 282.807 208.92 283.441 208.286C284.075 207.652 284.433 206.793 284.436 205.896V37.6092C284.433 36.7124 284.075 35.8532 283.441 35.2191C282.807 34.5849 281.948 34.2272 281.051 34.224H161.329Z" fill="#EBEBEB"/>
<path d="M61.1957 80.8543H112.842C113.361 80.8534 113.876 80.9552 114.356 81.1537C114.837 81.3522 115.273 81.6435 115.641 82.011C116.008 82.3785 116.299 82.8149 116.498 83.2951C116.696 83.7754 116.798 84.2902 116.797 84.8098V236.945H57.2773V84.8036C57.2789 83.762 57.6913 82.7631 58.4249 82.0237C59.1585 81.2843 60.1542 80.864 61.1957 80.8543Z" fill="#F5F5F5"/>
<path d="M69.8631 90.0736H62.1875V107.161H69.8631V90.0736Z" fill="#EBEBEB"/>
<path d="M111.836 90.0736H104.16V107.161H111.836V90.0736Z" fill="#EBEBEB"/>
<path d="M83.8475 90.0736H76.1719V107.161H83.8475V90.0736Z" fill="#EBEBEB"/>
<path d="M97.8436 90.0736H90.168V107.161H97.8436V90.0736Z" fill="#EBEBEB"/>
<path d="M69.8631 117.05H62.1875V134.137H69.8631V117.05Z" fill="#EBEBEB"/>
<path d="M111.836 117.05H104.16V134.137H111.836V117.05Z" fill="#EBEBEB"/>
<path d="M83.8475 117.05H76.1719V134.137H83.8475V117.05Z" fill="#EBEBEB"/>
<path d="M97.8436 117.05H90.168V134.137H97.8436V117.05Z" fill="#EBEBEB"/>
<path d="M69.8631 144.02H62.1875V161.107H69.8631V144.02Z" fill="#EBEBEB"/>
<path d="M111.836 144.02H104.16V161.107H111.836V144.02Z" fill="#EBEBEB"/>
<path d="M83.8475 144.02H76.1719V161.107H83.8475V144.02Z" fill="#EBEBEB"/>
<path d="M97.8436 144.02H90.168V161.107H97.8436V144.02Z" fill="#EBEBEB"/>
<path d="M69.8631 170.996H62.1875V188.083H69.8631V170.996Z" fill="#EBEBEB"/>
<path d="M111.836 170.996H104.16V188.083H111.836V170.996Z" fill="#EBEBEB"/>
<path d="M83.8475 170.996H76.1719V188.083H83.8475V170.996Z" fill="#EBEBEB"/>
<path d="M97.8436 170.996H90.168V188.083H97.8436V170.996Z" fill="#EBEBEB"/>
<path d="M69.8631 197.966H62.1875V215.053H69.8631V197.966Z" fill="#EBEBEB"/>
<path d="M111.836 197.966H104.16V215.053H111.836V197.966Z" fill="#EBEBEB"/>
<path d="M83.8475 197.966H76.1719V215.053H83.8475V197.966Z" fill="#EBEBEB"/>
<path d="M97.8436 197.966H90.168V215.053H97.8436V197.966Z" fill="#EBEBEB"/>
<path d="M244.244 95.0336H281.221C282.074 95.0352 282.892 95.3748 283.495 95.9779C284.098 96.581 284.437 97.3985 284.439 98.2514V236.945H241.039V98.2576C241.039 97.4057 241.376 96.5885 241.977 95.9844C242.577 95.3803 243.393 95.0385 244.244 95.0336Z" fill="#F5F5F5"/>
<path d="M253.53 103.422H246.555V118.953H253.53V103.422Z" fill="#EBEBEB"/>
<path d="M266.252 103.422H259.277V118.953H266.252V103.422Z" fill="#EBEBEB"/>
<path d="M278.967 103.422H271.992V118.953H278.967V103.422Z" fill="#EBEBEB"/>
<path d="M253.53 127.943H246.555V143.474H253.53V127.943Z" fill="#EBEBEB"/>
<path d="M266.252 127.943H259.277V143.474H266.252V127.943Z" fill="#EBEBEB"/>
<path d="M278.967 127.943H271.992V143.474H278.967V127.943Z" fill="#EBEBEB"/>
<path d="M253.53 152.47H246.555V168.001H253.53V152.47Z" fill="#EBEBEB"/>
<path d="M266.252 152.47H259.277V168.001H266.252V152.47Z" fill="#EBEBEB"/>
<path d="M278.967 152.47H271.992V168.001H278.967V152.47Z" fill="#EBEBEB"/>
<path d="M253.53 176.985H246.555V192.516H253.53V176.985Z" fill="#EBEBEB"/>
<path d="M266.252 176.985H259.277V192.516H266.252V176.985Z" fill="#EBEBEB"/>
<path d="M278.967 176.985H271.992V192.516H278.967V176.985Z" fill="#EBEBEB"/>
<path d="M253.53 201.512H246.555V217.043H253.53V201.512Z" fill="#EBEBEB"/>
<path d="M266.252 201.512H259.277V217.043H266.252V201.512Z" fill="#EBEBEB"/>
<path d="M278.967 201.512H271.992V217.043H278.967V201.512Z" fill="#EBEBEB"/>
<path d="M159.532 55.3412H219.597C220.817 55.3412 221.988 55.8259 222.85 56.6886C223.713 57.5514 224.198 58.7215 224.198 59.9416V236.945H154.938V59.9416C154.937 58.7226 155.421 57.5534 156.283 56.6908C157.144 55.8282 158.313 55.3428 159.532 55.3412Z" fill="#F5F5F5"/>
<path d="M169.612 66.0734H160.684V85.9506H169.612V66.0734Z" fill="#EBEBEB"/>
<path d="M218.444 66.0734H209.516V85.9506H218.444V66.0734Z" fill="#EBEBEB"/>
<path d="M185.889 66.0734H176.961V85.9506H185.889V66.0734Z" fill="#EBEBEB"/>
<path d="M202.17 66.0734H193.242V85.9506H202.17V66.0734Z" fill="#EBEBEB"/>
<path d="M169.612 97.4578H160.684V117.335H169.612V97.4578Z" fill="#EBEBEB"/>
<path d="M218.444 97.4578H209.516V117.335H218.444V97.4578Z" fill="#EBEBEB"/>
<path d="M185.889 97.4578H176.961V117.335H185.889V97.4578Z" fill="#EBEBEB"/>
<path d="M202.17 97.4578H193.242V117.335H202.17V97.4578Z" fill="#EBEBEB"/>
<path d="M169.612 128.842H160.684V148.719H169.612V128.842Z" fill="#EBEBEB"/>
<path d="M218.444 128.842H209.516V148.719H218.444V128.842Z" fill="#EBEBEB"/>
<path d="M185.889 128.842H176.961V148.719H185.889V128.842Z" fill="#EBEBEB"/>
<path d="M202.17 128.842H193.242V148.719H202.17V128.842Z" fill="#EBEBEB"/>
<path d="M169.612 160.22H160.684V180.098H169.612V160.22Z" fill="#EBEBEB"/>
<path d="M218.444 160.22H209.516V180.098H218.444V160.22Z" fill="#EBEBEB"/>
<path d="M185.889 160.22H176.961V180.098H185.889V160.22Z" fill="#EBEBEB"/>
<path d="M202.17 160.22H193.242V180.098H202.17V160.22Z" fill="#EBEBEB"/>
<path d="M169.612 191.599H160.684V211.476H169.612V191.599Z" fill="#EBEBEB"/>
<path d="M218.444 191.599H209.516V211.476H218.444V191.599Z" fill="#EBEBEB"/>
<path d="M185.889 191.599H176.961V211.476H185.889V191.599Z" fill="#EBEBEB"/>
<path d="M202.17 191.599H193.242V211.476H202.17V191.599Z" fill="#EBEBEB"/>
<path d="M154.932 120.385H116.777V236.952H154.932V120.385Z" fill="#E6E6E6"/>
<path d="M241.061 132.866H224.203V236.945H241.061V132.866Z" fill="#E6E6E6"/>
<path d="M57.2369 236.945H23.8438V188.282L57.2369 176.985V236.945Z" fill="#E6E6E6"/>
<path d="M155.001 265.087C221.392 265.087 275.213 260.676 275.213 255.235C275.213 249.794 221.392 245.384 155.001 245.384C88.6097 245.384 34.7891 249.794 34.7891 255.235C34.7891 260.676 88.6097 265.087 155.001 265.087Z" fill="#F5F5F5"/>
<path d="M184.562 216.33H174.022C168.535 216.33 164.102 224.285 164.102 234.1C164.102 243.914 168.547 251.863 174.022 251.863H184.562C190.049 251.863 194.482 243.908 194.482 234.1C194.482 224.291 190.049 216.33 184.562 216.33Z" fill="#263238"/>
<mask id="mask0_2046_7343" style="mask-type:luminance" maskUnits="userSpaceOnUse" x="164" y="216" width="31" height="36">
<path d="M184.562 216.33H174.022C168.535 216.33 164.102 224.285 164.102 234.1C164.102 243.914 168.547 251.863 174.022 251.863H184.562C190.049 251.863 194.482 243.908 194.482 234.1C194.482 224.291 190.049 216.33 184.562 216.33Z" fill="white"/>
</mask>
<g mask="url(#mask0_2046_7343)">
<path opacity="0.05" d="M196.96 216.33H186.42C180.933 216.33 176.5 224.285 176.5 234.1C176.5 243.914 180.945 251.863 186.42 251.863H196.96C202.447 251.863 206.88 243.908 206.88 234.1C206.88 224.291 202.447 216.33 196.96 216.33Z" fill="white"/>
</g>
<path d="M269.943 220.137L85.375 220.007V102.114H269.943V220.137Z" fill="#7933A1"/>
<path opacity="0.3" d="M269.943 102.114H144.852V220.131H269.943V102.114Z" fill="#263238"/>
<path opacity="0.2" d="M144.852 102.114H85.375V222.462H144.852V102.114Z" fill="white"/>
<path opacity="0.1" d="M85.8203 107.595H269.942" stroke="white" stroke-width="2" stroke-linecap="round" stroke-linejoin="round"/>
<path opacity="0.1" d="M85.8203 112.697H269.942" stroke="white" stroke-width="2" stroke-linecap="round" stroke-linejoin="round"/>
<path opacity="0.1" d="M85.8203 117.794H269.942" stroke="white" stroke-width="2" stroke-linecap="round" stroke-linejoin="round"/>
<path opacity="0.1" d="M85.8203 122.89H269.942" stroke="white" stroke-width="2" stroke-linecap="round" stroke-linejoin="round"/>
<path opacity="0.1" d="M85.8203 127.993H269.942" stroke="white" stroke-width="2" stroke-linecap="round" stroke-linejoin="round"/>
<path opacity="0.1" d="M85.8203 133.089H269.942" stroke="white" stroke-width="2" stroke-linecap="round" stroke-linejoin="round"/>
<path opacity="0.1" d="M85.8203 138.186H269.942" stroke="white" stroke-width="2" stroke-linecap="round" stroke-linejoin="round"/>
<path opacity="0.1" d="M85.8203 143.282H269.942" stroke="white" stroke-width="2" stroke-linecap="round" stroke-linejoin="round"/>
<path opacity="0.1" d="M85.8203 148.385H269.942" stroke="white" stroke-width="2" stroke-linecap="round" stroke-linejoin="round"/>
<path opacity="0.1" d="M85.8203 153.481H269.942" stroke="white" stroke-width="2" stroke-linecap="round" stroke-linejoin="round"/>
<path opacity="0.1" d="M85.8203 158.577H269.942" stroke="white" stroke-width="2" stroke-linecap="round" stroke-linejoin="round"/>
<path opacity="0.1" d="M85.8203 163.68H269.942" stroke="white" stroke-width="2" stroke-linecap="round" stroke-linejoin="round"/>
<path opacity="0.1" d="M85.8203 168.776H269.942" stroke="white" stroke-width="2" stroke-linecap="round" stroke-linejoin="round"/>
<path opacity="0.1" d="M85.8203 173.873H269.942" stroke="white" stroke-width="2" stroke-linecap="round" stroke-linejoin="round"/>
<path opacity="0.1" d="M85.8203 178.969H269.942" stroke="white" stroke-width="2" stroke-linecap="round" stroke-linejoin="round"/>
<path opacity="0.1" d="M85.8203 184.072H269.942" stroke="white" stroke-width="2" stroke-linecap="round" stroke-linejoin="round"/>
<path opacity="0.1" d="M85.8203 189.168H269.942" stroke="white" stroke-width="2" stroke-linecap="round" stroke-linejoin="round"/>
<path opacity="0.1" d="M85.8203 194.265H269.942" stroke="white" stroke-width="2" stroke-linecap="round" stroke-linejoin="round"/>
<path opacity="0.1" d="M85.8203 199.367H269.942" stroke="white" stroke-width="2" stroke-linecap="round" stroke-linejoin="round"/>
<path opacity="0.1" d="M85.8203 204.464H269.942" stroke="white" stroke-width="2" stroke-linecap="round" stroke-linejoin="round"/>
<path opacity="0.1" d="M85.8203 209.56H269.942" stroke="white" stroke-width="2" stroke-linecap="round" stroke-linejoin="round"/>
<path opacity="0.1" d="M85.8203 214.663H269.942" stroke="white" stroke-width="2" stroke-linecap="round" stroke-linejoin="round"/>
<path d="M51.5042 218.649H41.7516C36.6676 218.649 32.5508 226.015 32.5508 235.104C32.5508 244.193 36.6676 251.553 41.7516 251.553H51.5042C56.5882 251.553 60.705 244.187 60.705 235.104C60.705 226.021 56.5882 218.649 51.5042 218.649Z" fill="#263238"/>
<path opacity="0.05" d="M63.9088 218.649H54.15C49.066 218.649 44.9492 226.015 44.9492 235.104C44.9492 244.193 49.066 251.553 54.15 251.553H63.9088C68.9866 251.553 73.1096 244.187 73.1096 235.104C73.1096 226.021 68.9866 218.649 63.9088 218.649Z" fill="white"/>
<path d="M46.0789 186.515H41.4661C40.5609 186.546 39.8169 185.578 39.7983 184.351C39.786 184.223 39.786 184.094 39.7983 183.966L41.0383 170.035C41.1933 168.603 42.0799 167.555 43.1463 167.487H47.8025C48.7015 167.487 49.4455 168.435 49.4641 169.663C49.4641 169.787 49.4641 169.911 49.4641 170.035L48.2241 183.966C48.0381 185.38 47.1205 186.477 46.0789 186.515Z" fill="#263238"/>
<path d="M50.69 140.498L41.793 188.48L138.656 226.424L137.98 131.862L116.677 131.242H58.3222C54.813 131.211 51.7192 134.98 50.69 140.498Z" fill="#7933A1"/>
<path d="M122.76 148.217C119.146 148.056 115.903 151.02 114.843 155.44L107.514 186.143H93.4094L92.6406 226.647H139.035" fill="#7933A1"/>
<path d="M52.0785 183.563C50.6587 183.563 49.5117 181.741 49.5117 179.496C49.5111 179.105 49.5485 178.715 49.6233 178.331L54.9491 150.158C55.3955 147.82 56.7595 146.221 58.3033 146.227H109.255C109.807 146.227 110.259 146.934 110.259 147.814C110.261 147.97 110.246 148.126 110.216 148.279C109.1 154.082 105.473 173.309 104.084 180.662C103.762 182.385 102.757 183.563 101.604 183.563H52.0785Z" fill="#263238"/>
<path d="M98.9664 196.05C98.9655 196.544 98.9303 197.037 98.861 197.526L98.5944 199.342L98.4394 200.415L97.2986 208.252L95.4386 220.993L94.924 224.533H22.8242V220.993L22.8738 208.252L22.942 200.632V197.532C22.322 193.44 24.2998 189.472 27.313 188.647C27.6665 188.551 28.0316 188.503 28.398 188.505H93.4112C96.4802 188.48 98.9664 191.878 98.9664 196.05Z" fill="#7933A1"/>
<path d="M135.612 150.04V180.24C135.612 182.069 134.676 183.557 133.517 183.563H115.896C114.737 183.563 113.801 182.075 113.801 180.24C113.8 179.941 113.825 179.642 113.875 179.347L119.306 148.471C119.567 146.99 120.435 145.991 121.402 146.047L133.591 146.717C134.72 146.785 135.612 148.254 135.612 150.04Z" fill="#263238"/>
<path opacity="0.1" d="M81.8032 146.227H72.0692L60.8906 183.563H70.6308L81.8032 146.227Z" fill="white"/>
<path opacity="0.1" d="M89.381 146.227H84.731L73.5586 183.563H78.2024L89.381 146.227Z" fill="white"/>
<path d="M117.646 208.252V220.993H22.8359L22.8855 208.252H117.646Z" fill="black"/>
<path d="M104.44 208.252H95.6728L79.9062 217.515V220.993H117.646V208.252H104.44Z" fill="white"/>
<path d="M39.1791 217.515V220.993H22.8359L22.8855 208.252H23.4187L39.1791 217.515Z" fill="white"/>
<path opacity="0.3" d="M138.7 226.647L137.981 131.862L124.961 131.242C121.712 131.08 117.961 134.856 117.012 139.233L107.576 188.48H103.899C99.7702 188.48 96.943 191.487 96.9492 194.68L97.005 226.66H138.7" fill="#263238"/>
<path d="M98.724 199.789C98.7227 199.906 98.6966 200.022 98.6475 200.129C98.5983 200.236 98.5272 200.331 98.4388 200.409C98.2872 200.55 98.0876 200.627 97.8808 200.626H22.9414V198.939H97.8994C98.0421 198.94 98.1824 198.976 98.3071 199.046C98.4318 199.115 98.5368 199.215 98.6124 199.336C98.6908 199.474 98.7294 199.631 98.724 199.789Z" fill="white"/>
<path d="M36.1573 198.946V200.632H22.9141L22.9203 198.946H36.1573Z" fill="#263238"/>
<path d="M98.7247 199.789C98.7234 199.906 98.6973 200.022 98.6482 200.129C98.599 200.236 98.5279 200.331 98.4395 200.409C98.2879 200.55 98.0884 200.627 97.8815 200.626H79.7031V198.939H97.8815C98.0242 198.94 98.1645 198.976 98.2892 199.046C98.4139 199.115 98.519 199.215 98.5945 199.336C98.6794 199.472 98.7245 199.629 98.7247 199.789Z" fill="#263238"/>
<path d="M273.253 223.2V223.535C273.253 224.357 272.926 225.145 272.345 225.727C271.764 226.308 270.975 226.635 270.153 226.635H23.8891C23.0669 226.635 22.2784 226.308 21.697 225.727C21.1157 225.145 20.7891 224.357 20.7891 223.535V223.2C20.7891 222.378 21.1157 221.589 21.697 221.008C22.2784 220.427 23.0669 220.1 23.8891 220.1H270.153C270.975 220.1 271.764 220.427 272.345 221.008C272.926 221.589 273.253 222.378 273.253 223.2Z" fill="#263238"/>
<path d="M78.497 222.648H41.793V224.44H78.497V222.648Z" fill="black"/>
<path d="M32.0304 223.541C32.0304 223.743 31.9705 223.941 31.8584 224.109C31.7463 224.277 31.5868 224.408 31.4003 224.486C31.2137 224.563 31.0083 224.584 30.8101 224.545C30.6118 224.506 30.4295 224.409 30.2862 224.267C30.1429 224.124 30.045 223.942 30.0048 223.744C29.9646 223.546 29.984 223.341 30.0605 223.154C30.137 222.967 30.2671 222.807 30.4345 222.694C30.6019 222.58 30.7991 222.519 31.0012 222.518C31.136 222.517 31.2697 222.543 31.3946 222.594C31.5194 222.645 31.6329 222.72 31.7286 222.816C31.8242 222.911 31.9001 223.024 31.9519 223.148C32.0037 223.273 32.0304 223.406 32.0304 223.541Z" fill="white"/>
<path d="M87.2648 223.541C87.2648 223.743 87.2048 223.941 87.0923 224.109C86.9799 224.278 86.8202 224.409 86.6332 224.486C86.4463 224.564 86.2406 224.584 86.0422 224.544C85.8437 224.505 85.6614 224.408 85.5184 224.264C85.3753 224.121 85.2779 223.939 85.2384 223.741C85.1989 223.542 85.2192 223.337 85.2966 223.15C85.374 222.963 85.5052 222.803 85.6734 222.69C85.8416 222.578 86.0394 222.518 86.2418 222.518C86.3761 222.518 86.5091 222.545 86.6332 222.596C86.7574 222.647 86.8701 222.723 86.9651 222.818C87.0601 222.913 87.1355 223.025 87.1869 223.15C87.2383 223.274 87.2648 223.407 87.2648 223.541Z" fill="white"/>
<path d="M116.926 233.697C116.926 223.832 121.396 215.834 126.914 215.834H116.318C110.806 215.834 106.336 223.832 106.336 233.697C106.336 243.561 110.806 251.553 116.318 251.553H126.914C121.396 251.571 116.926 243.579 116.926 233.697Z" fill="black"/>
<path opacity="0.7" d="M116.926 233.697C116.926 223.832 121.396 215.834 126.914 215.834H116.318C110.806 215.834 106.336 223.832 106.336 233.697C106.336 243.561 110.806 251.553 116.318 251.553H126.914C121.396 251.571 116.926 243.579 116.926 233.697Z" fill="#263238"/>
<path d="M126.914 251.577C132.43 251.577 136.902 243.58 136.902 233.715C136.902 223.85 132.43 215.853 126.914 215.853C121.398 215.853 116.926 223.85 116.926 233.715C116.926 243.58 121.398 251.577 126.914 251.577Z" fill="#263238"/>
<path d="M127.713 247.64C131.624 247.64 134.794 241.406 134.794 233.715C134.794 226.025 131.624 219.79 127.713 219.79C123.803 219.79 120.633 226.025 120.633 233.715C120.633 241.406 123.803 247.64 127.713 247.64Z" fill="white"/>
<path d="M127.07 245.768C130.812 245.768 133.846 240.372 133.846 233.715C133.846 227.059 130.812 221.662 127.07 221.662C123.327 221.662 120.293 227.059 120.293 233.715C120.293 240.372 123.327 245.768 127.07 245.768Z" fill="#263238"/>
<path d="M125.58 242.513C128.313 242.513 130.528 238.574 130.528 233.715C130.528 228.856 128.313 224.917 125.58 224.917C122.848 224.917 120.633 228.856 120.633 233.715C120.633 238.574 122.848 242.513 125.58 242.513Z" fill="black"/>
<path opacity="0.5" d="M273.254 223.2V223.535C273.254 224.357 272.927 225.146 272.346 225.727C271.764 226.308 270.976 226.635 270.154 226.635H144.852V220.1H270.154C270.976 220.1 271.764 220.427 272.346 221.008C272.927 221.589 273.254 222.378 273.254 223.2Z" fill="black"/>
<path d="M234.311 233.697C234.311 223.832 238.781 215.834 244.293 215.834H233.703C228.185 215.834 223.715 223.832 223.715 233.697C223.715 243.561 228.185 251.553 233.703 251.553H244.28C238.781 251.571 234.311 243.579 234.311 233.697Z" fill="black"/>
<path opacity="0.7" d="M234.311 233.697C234.311 223.832 238.781 215.834 244.293 215.834H233.703C228.185 215.834 223.715 223.832 223.715 233.697C223.715 243.561 228.185 251.553 233.703 251.553H244.28C238.781 251.571 234.311 243.579 234.311 233.697Z" fill="#263238"/>
<path d="M244.293 251.577C249.809 251.577 254.281 243.58 254.281 233.715C254.281 223.85 249.809 215.853 244.293 215.853C238.777 215.853 234.305 223.85 234.305 233.715C234.305 243.58 238.777 251.577 244.293 251.577Z" fill="#263238"/>
<path d="M245.1 247.64C249.01 247.64 252.18 241.406 252.18 233.715C252.18 226.025 249.01 219.79 245.1 219.79C241.19 219.79 238.02 226.025 238.02 233.715C238.02 241.406 241.19 247.64 245.1 247.64Z" fill="white"/>
<path d="M244.448 245.768C248.191 245.768 251.225 240.372 251.225 233.715C251.225 227.059 248.191 221.662 244.448 221.662C240.706 221.662 237.672 227.059 237.672 233.715C237.672 240.372 240.706 245.768 244.448 245.768Z" fill="#263238"/>
<path d="M242.959 242.513C245.692 242.513 247.907 238.574 247.907 233.715C247.907 228.856 245.692 224.917 242.959 224.917C240.227 224.917 238.012 228.856 238.012 233.715C238.012 238.574 240.227 242.513 242.959 242.513Z" fill="black"/>
<path d="M203.895 146.32C203.771 148.707 203.554 151.013 203.201 153.363C202.895 155.79 202.364 158.184 201.614 160.512C201.377 161.19 201.08 161.846 200.727 162.471C200.481 162.893 200.181 163.281 199.834 163.624L199.661 163.785L199.561 163.86L199.512 163.903L199.301 164.046L198.886 164.337C197.833 165.013 196.725 165.6 195.575 166.092C193.392 167.051 191.123 167.803 188.798 168.336L187.992 166.129C189.964 165.038 191.985 163.922 193.826 162.762C194.726 162.21 195.592 161.604 196.418 160.946L196.691 160.716L196.827 160.599C196.827 160.599 196.883 160.506 196.951 160.357C197.132 159.956 197.282 159.541 197.398 159.117C197.678 158.097 197.899 157.062 198.061 156.017C198.253 154.938 198.408 153.841 198.538 152.725C198.793 150.511 199.01 148.242 199.158 146.035L203.895 146.32Z" fill="#CE7A63"/>
<path d="M189.459 166.16L185.652 164.982L186.365 169.589C186.365 169.589 188.845 169.279 190.085 167.89L189.459 166.16Z" fill="#CE7A63"/>
<path d="M181.041 167.946L181.252 168.566C181.371 168.908 181.598 169.202 181.898 169.405C182.199 169.607 182.557 169.706 182.92 169.688L184.86 169.601L184.141 164.982L182.008 165.819C181.604 165.98 181.277 166.291 181.097 166.688C180.916 167.084 180.896 167.535 181.041 167.946Z" fill="#CE7A63"/>
<path d="M208.397 141.85C208.397 143.288 207.703 146.128 207.107 148.261C206.667 149.792 206.301 150.958 206.301 150.958L205.427 150.741L198.223 148.918C198.111 145.198 198.254 141.149 201.943 138.719C204.249 137.194 208.378 139.289 208.397 141.85Z" fill="#263238"/>
<path opacity="0.3" d="M208.388 142.098C207.917 141.602 206.85 141.515 204.525 142.253C201.196 143.307 200.266 146.952 200.223 149.426L205.424 150.741L205.871 150.858L206.299 150.958C206.299 150.958 206.478 150.375 206.739 149.488C206.844 149.129 206.974 148.707 207.098 148.248C207.719 146.243 208.151 144.184 208.388 142.098Z" fill="black"/>
<path d="M193.611 257.591L189.215 256.054L191.98 246.531L196.37 248.074L193.611 257.591Z" fill="#CE7A63"/>
<path d="M252.341 246.307L248.764 248.973L241.441 241.552L245.019 238.886L252.341 246.307Z" fill="#CE7A63"/>
<path d="M247.302 247.888L251.165 244.695C251.23 244.639 251.314 244.607 251.401 244.607C251.487 244.607 251.571 244.639 251.636 244.695L254.6 247.386C254.666 247.452 254.719 247.531 254.755 247.618C254.791 247.705 254.81 247.798 254.81 247.891C254.81 247.985 254.791 248.078 254.755 248.165C254.719 248.252 254.666 248.331 254.6 248.397L254.538 248.453C253.174 249.544 252.455 250.003 250.756 251.404C249.714 252.266 247.526 254.33 246.081 255.521C244.636 256.711 243.384 255.353 243.88 254.727C246.093 251.925 246.608 250.077 246.868 248.564C246.931 248.296 247.084 248.057 247.302 247.888Z" fill="#263238"/>
<path d="M188.916 254.677L193.802 256.717C193.889 256.755 193.962 256.821 194.009 256.903C194.056 256.986 194.074 257.082 194.062 257.176L193.511 261.485C193.489 261.658 193.4 261.814 193.263 261.921C193.126 262.028 192.952 262.076 192.779 262.055C192.715 262.049 192.652 262.032 192.593 262.006C190.863 261.305 190.051 260.958 187.906 260.059L181.321 257.3C179.536 256.55 179.92 254.591 180.701 254.733C184.316 255.39 186.647 255.173 188.073 254.634C188.21 254.585 188.354 254.564 188.499 254.571C188.644 254.579 188.786 254.615 188.916 254.677Z" fill="#263238"/>
<path opacity="0.2" d="M191.978 246.537L190.559 251.441L194.837 253.375L196.374 248.074L191.978 246.537Z" fill="black"/>
<path opacity="0.2" d="M245.025 238.886L241.441 241.552L245.217 245.377L248.795 242.711L245.025 238.886Z" fill="black"/>
<path d="M221.911 165.125L203.807 165.385C201.327 151.367 200.707 144.677 200.707 141.459C200.704 140.657 200.981 139.878 201.49 139.258C201.999 138.638 202.709 138.215 203.497 138.062C204.601 137.845 205.977 137.597 207.36 137.404C207.831 137.342 208.308 137.28 208.779 137.231C211.514 136.996 214.261 136.957 217.001 137.113C217.41 137.113 217.813 137.15 218.241 137.175C220.101 137.293 221.799 137.528 223.008 137.714C223.443 137.784 223.833 138.024 224.091 138.381C224.349 138.738 224.455 139.183 224.385 139.618C224.388 139.649 224.388 139.68 224.385 139.711C223.852 142.191 223.418 144.392 223.07 146.351C222.519 149.451 222.171 151.981 221.967 154.188C221.657 157.826 221.638 161.483 221.911 165.125Z" fill="#263238"/>
<path opacity="0.1" d="M221.96 154.206C221.049 151.472 221.098 145.799 222.078 143.964L223.076 146.363C222.512 149.482 222.165 151.999 221.96 154.206Z" fill="black"/>
<path d="M203.807 165.385C203.807 165.385 200.707 191.741 197.911 208.165C195.698 221.024 190.105 247.789 190.105 247.789L197.366 250.362C197.366 250.362 205.68 222.462 207.137 210.546C212.996 193.366 217.212 165.255 217.212 165.255L203.807 165.385Z" fill="#7933A1"/>
<path d="M188.926 249.587L197.327 252.545L198.449 249.848L189.335 246.363L188.926 249.587Z" fill="#263238"/>
<path opacity="0.1" d="M212.983 173.216L210.268 178.417C209.276 182.336 209.511 191.871 210.77 197.898C213.027 188.815 214.831 179.254 215.953 172.837L212.983 173.216Z" fill="black"/>
<path d="M207.738 165.385C207.738 165.385 210.981 194.885 217.038 211.265C220.076 219.48 242.613 243.834 242.613 243.834L247.697 239.766C247.697 239.766 233.406 215.196 227.157 208.766C224.608 194.506 227.814 173.129 221.893 165.131L207.738 165.385Z" fill="#7933A1"/>
<path d="M243.039 245.576L249.004 240.69L247.392 238.043L240.863 243.728L243.039 245.576Z" fill="#263238"/>
<path d="M222.197 164.064L223.034 165.67C223.096 165.794 222.954 165.931 222.743 165.931L203.746 166.203C203.579 166.203 203.448 166.123 203.43 166.024L203.25 164.405C203.25 164.294 203.38 164.195 203.554 164.195L221.893 163.928C221.951 163.925 222.009 163.935 222.062 163.959C222.115 163.983 222.161 164.019 222.197 164.064Z" fill="#263238"/>
<path d="M219.737 166.16H220.239C220.332 166.16 220.407 166.104 220.4 166.048L220.134 163.94C220.134 163.878 220.047 163.835 219.948 163.835H219.483C219.384 163.835 219.309 163.891 219.322 163.947L219.582 166.048C219.551 166.098 219.644 166.16 219.737 166.16Z" fill="#7933A1"/>
<path d="M205.112 166.358H205.608C205.707 166.358 205.775 166.303 205.769 166.241L205.515 164.139C205.515 164.077 205.415 164.027 205.316 164.027H204.82C204.721 164.027 204.647 164.083 204.653 164.145L204.913 166.247C204.926 166.309 205.012 166.358 205.112 166.358Z" fill="#7933A1"/>
<path d="M212.425 166.241H212.921C213.02 166.241 213.095 166.185 213.089 166.123L212.828 164.021C212.828 163.953 212.735 163.903 212.636 163.909H212.14C212.041 163.909 211.973 163.965 211.973 164.027L212.233 166.129C212.227 166.203 212.326 166.241 212.425 166.241Z" fill="#7933A1"/>
<path d="M179.578 146.828L206.449 143.139L210.169 169.52L183.782 173.141L179.578 146.828Z" fill="#7933A1"/>
<path opacity="0.8" d="M179.578 146.828L206.449 143.139L210.169 169.52L183.782 173.141L179.578 146.828Z" fill="white"/>
<path opacity="0.2" d="M206.816 141.865L199.641 142.88L203.489 170.096L210.665 169.081L206.816 141.865Z" fill="#7933A1"/>
<path d="M214.068 166.197L210.348 164.74L210.713 169.39C210.713 169.39 213.193 169.266 214.526 167.97L214.068 166.197Z" fill="#CE7A63"/>
<path d="M225.767 143.046C226.766 145.836 227.627 148.626 228.359 151.478C228.731 152.911 229.078 154.349 229.357 155.818C229.494 156.562 229.611 157.319 229.698 158.106C229.798 158.929 229.833 159.758 229.804 160.586C229.786 161.125 229.703 161.661 229.556 162.18C229.352 162.818 229.011 163.404 228.557 163.897C227.894 164.607 227.106 165.189 226.232 165.614C224.802 166.309 223.295 166.835 221.744 167.183C218.843 167.856 215.884 168.252 212.909 168.367L212.617 166.03C213.975 165.707 215.364 165.348 216.715 164.97C218.067 164.591 219.412 164.17 220.702 163.699C221.934 163.275 223.121 162.733 224.248 162.08C224.658 161.841 225.023 161.533 225.327 161.169C225.408 161.045 225.408 161.014 225.395 161.014C225.408 160.83 225.408 160.646 225.395 160.462C225.372 159.861 225.308 159.263 225.203 158.67C225.104 158.05 224.968 157.356 224.819 156.674C224.509 155.347 224.162 153.989 223.771 152.632C222.996 149.941 222.122 147.207 221.248 144.572L225.767 143.046Z" fill="#CE7A63"/>
<path d="M206.919 167.034L207.211 168.113C207.298 168.459 207.496 168.768 207.775 168.992C208.053 169.215 208.397 169.342 208.755 169.353L210.751 169.409L210.385 164.765L208.352 164.994C208.136 165.016 207.926 165.08 207.735 165.183C207.544 165.286 207.375 165.425 207.238 165.593C207.101 165.762 206.998 165.955 206.936 166.163C206.874 166.371 206.854 166.589 206.876 166.805C206.885 166.882 206.9 166.959 206.919 167.034Z" fill="#CE7A63"/>
<path d="M223.654 137.851C225.737 138.7 227.442 145.545 227.442 145.545L221.689 150.04C221.689 150.04 217.609 143.654 218.44 140.883C219.147 138.539 221 136.778 223.654 137.851Z" fill="#263238"/>
<path d="M245.893 249.823H245.818C245.714 249.816 245.614 249.782 245.526 249.726C245.438 249.67 245.366 249.592 245.316 249.5C245.279 249.448 245.257 249.386 245.251 249.322C245.246 249.257 245.257 249.193 245.285 249.135C245.539 248.639 247.145 248.44 247.319 248.422C247.339 248.418 247.36 248.42 247.379 248.429C247.398 248.438 247.414 248.453 247.424 248.471C247.436 248.489 247.442 248.509 247.442 248.53C247.442 248.551 247.436 248.572 247.424 248.589C247.089 249.042 246.438 249.786 245.893 249.823ZM247.102 248.663C246.482 248.756 245.607 248.961 245.483 249.234C245.468 249.257 245.461 249.284 245.461 249.311C245.461 249.339 245.468 249.366 245.483 249.389C245.513 249.452 245.559 249.507 245.617 249.546C245.675 249.586 245.742 249.608 245.812 249.612C246.122 249.612 246.618 249.277 247.114 248.663H247.102Z" fill="#263238"/>
<path d="M247.246 248.62C246.706 248.62 245.627 248.428 245.386 248C245.347 247.926 245.335 247.841 245.35 247.759C245.366 247.676 245.409 247.602 245.472 247.547C245.527 247.487 245.594 247.44 245.669 247.409C245.744 247.378 245.825 247.364 245.906 247.368C246.557 247.368 247.382 248.366 247.407 248.422C247.416 248.436 247.421 248.454 247.421 248.471C247.421 248.489 247.416 248.506 247.407 248.521C247.402 248.539 247.391 248.555 247.377 248.567C247.363 248.58 247.345 248.587 247.326 248.589L247.246 248.62ZM245.869 247.591C245.782 247.599 245.7 247.639 245.64 247.702C245.547 247.802 245.565 247.864 245.59 247.913C245.733 248.186 246.582 248.409 247.128 248.409C246.817 248.019 246.396 247.732 245.919 247.585L245.869 247.591Z" fill="#263238"/>
<path d="M186.417 254.578C186.072 254.466 185.771 254.249 185.555 253.958C185.506 253.872 185.476 253.777 185.467 253.678C185.459 253.58 185.472 253.481 185.505 253.388C185.522 253.334 185.553 253.286 185.594 253.248C185.636 253.21 185.686 253.183 185.741 253.171C186.311 253.065 187.657 254.51 187.917 254.801C187.929 254.82 187.936 254.841 187.936 254.863C187.936 254.886 187.929 254.907 187.917 254.925C187.907 254.945 187.89 254.96 187.87 254.969C187.85 254.978 187.827 254.98 187.806 254.975C187.33 254.89 186.865 254.757 186.417 254.578ZM185.989 253.413C185.925 253.382 185.855 253.369 185.784 253.375C185.784 253.375 185.729 253.375 185.704 253.45C185.679 253.514 185.669 253.584 185.676 253.653C185.682 253.721 185.704 253.788 185.741 253.847C185.933 254.181 186.597 254.498 187.539 254.702C187.097 254.195 186.578 253.76 186.001 253.413H185.989Z" fill="#263238"/>
<path d="M187.799 254.963H187.762C187.309 254.51 186.571 253.152 186.825 252.718C186.881 252.625 186.999 252.526 187.266 252.6C188.264 252.892 187.96 254.826 187.941 254.907C187.941 254.927 187.934 254.947 187.92 254.962C187.906 254.977 187.887 254.986 187.867 254.987C187.854 254.99 187.841 254.989 187.829 254.985C187.817 254.98 187.807 254.973 187.799 254.963ZM187.303 252.799H187.241C187.142 252.768 187.067 252.799 187.042 252.799C186.894 253.053 187.371 254.076 187.805 254.622C187.799 254.144 187.861 253.047 187.303 252.799Z" fill="#263238"/>
<path d="M206.511 118.563C206.511 118.563 204.031 122.71 205.891 124.527C207.751 126.344 208.297 119.902 208.297 119.902L206.511 118.563Z" fill="#263238"/>
<path d="M218.03 128.297C218.03 128.297 221.13 123.448 219.84 118.631C218.551 113.813 212.524 116.926 209.982 115.605C209.051 115.039 208.059 114.579 207.025 114.235C206.859 114.186 206.684 114.175 206.513 114.204C206.342 114.233 206.18 114.301 206.039 114.402C205.419 114.948 206.498 115.971 206.833 116.355C206.627 116.117 206.389 115.909 206.126 115.735C205.797 115.518 205.357 115.5 205.506 116.052C205.761 116.644 206.218 117.128 206.796 117.416C206.554 117.279 205.122 116.554 205.022 117.006C205.01 117.116 205.039 117.227 205.103 117.316C206.033 119.052 207.905 121.235 210.063 121.278C212.661 121.315 215.141 128.625 218.03 128.297Z" fill="#263238"/>
<path d="M219.129 128.514C218.968 130.15 216.537 130.169 216.537 130.169C216.14 131.106 215.478 131.907 214.634 132.475C214.559 133.464 214.593 134.458 214.733 135.439C215.142 136.983 215.663 137.516 216.314 137.863L215.793 138.378C214.797 138.953 213.67 139.266 212.52 139.289L211.838 138.892L210.945 139.035C208.465 138.223 209.085 136.555 209.085 136.555C209.537 135.422 209.562 134.164 209.153 133.015C206.772 132.271 205.799 130.2 205.464 126.716C205.129 123.231 207.089 119.896 207.089 119.896C209.779 122.493 215.111 120.826 215.111 120.826C214.882 125.711 217.164 127.515 217.164 127.515C217.914 126.846 219.284 126.883 219.129 128.514Z" fill="#CE7A63"/>
<path d="M210.471 128.96C211.111 128.781 211.664 128.376 212.028 127.819C212.057 127.775 212.068 127.722 212.059 127.67C212.05 127.618 212.021 127.571 211.978 127.54C211.957 127.525 211.933 127.513 211.907 127.507C211.882 127.501 211.855 127.5 211.829 127.504C211.803 127.508 211.778 127.517 211.756 127.53C211.734 127.544 211.714 127.562 211.699 127.584C211.49 127.96 211.165 128.259 210.774 128.437C210.382 128.616 209.944 128.664 209.523 128.576C209.473 128.56 209.418 128.565 209.372 128.589C209.325 128.614 209.29 128.656 209.275 128.706C209.259 128.757 209.264 128.812 209.288 128.859C209.312 128.907 209.354 128.943 209.405 128.96C209.755 129.051 210.122 129.051 210.471 128.96Z" fill="#263238"/>
<path d="M211.179 124.694C211.179 125.011 211.055 125.283 210.844 125.314C210.634 125.345 210.441 125.085 210.417 124.769C210.392 124.453 210.547 124.149 210.758 124.149C210.968 124.149 211.154 124.372 211.179 124.694Z" fill="#263238"/>
<path d="M207.384 124.533C207.384 124.849 207.26 125.122 207.049 125.153C206.839 125.184 206.652 124.924 206.628 124.608C206.603 124.291 206.752 124.019 206.963 123.988C207.173 123.957 207.365 124.211 207.384 124.533Z" fill="#263238"/>
<path d="M208.391 127.602L208.348 125.308L207.207 127.243C207.365 127.388 207.553 127.495 207.758 127.558C207.963 127.62 208.179 127.635 208.391 127.602Z" fill="#BA4D3C"/>
<path d="M212.911 122.76C212.938 122.753 212.963 122.74 212.985 122.723C213.016 122.705 213.042 122.681 213.063 122.653C213.084 122.625 213.099 122.593 213.107 122.558C213.115 122.524 213.116 122.489 213.11 122.454C213.104 122.42 213.091 122.386 213.072 122.357C212.866 122.011 212.566 121.73 212.208 121.546C211.849 121.361 211.446 121.282 211.045 121.315C211.01 121.319 210.976 121.33 210.946 121.347C210.915 121.364 210.888 121.387 210.867 121.415C210.845 121.443 210.83 121.475 210.821 121.509C210.812 121.543 210.81 121.578 210.815 121.613C210.825 121.683 210.861 121.746 210.917 121.789C210.973 121.832 211.043 121.851 211.113 121.842C211.413 121.824 211.712 121.888 211.978 122.028C212.243 122.168 212.465 122.378 212.62 122.636C212.649 122.685 212.692 122.724 212.745 122.746C212.797 122.768 212.856 122.773 212.911 122.76Z" fill="#263238"/>
<path d="M206.182 122.506C206.252 122.488 206.312 122.443 206.35 122.382C206.461 122.214 206.618 122.081 206.803 122.001C206.988 121.921 207.192 121.896 207.391 121.929C207.426 121.936 207.461 121.937 207.495 121.93C207.529 121.923 207.562 121.909 207.591 121.89C207.62 121.87 207.645 121.845 207.664 121.815C207.683 121.786 207.695 121.753 207.701 121.718C207.714 121.649 207.699 121.578 207.66 121.52C207.62 121.462 207.559 121.422 207.49 121.408C207.184 121.352 206.867 121.389 206.581 121.515C206.296 121.641 206.055 121.85 205.891 122.115C205.856 122.176 205.847 122.249 205.864 122.317C205.881 122.385 205.924 122.444 205.984 122.481C206.045 122.514 206.115 122.522 206.182 122.506Z" fill="#263238"/>
<path d="M217.323 138.08L215.99 139.382L213.615 141.713L212.723 140.294L211.836 138.892L214.936 135.197L217.193 137.925L217.323 138.08Z" fill="white"/>
<path d="M211.838 138.892L211.15 140.039L210.139 141.713L207.82 137.528L209.302 135.786L211.838 138.892Z" fill="white"/>
</svg>
