<svg width="298" height="298" viewBox="0 0 298 298" fill="none" xmlns="http://www.w3.org/2000/svg">
<path d="M298 227.91H0V228.059H298V227.91Z" fill="#EBEBEB"/>
<path d="M268.142 237.5H248.402V237.649H268.142V237.5Z" fill="#EBEBEB"/>
<path d="M197.406 239.121H192.227V239.27H197.406V239.121Z" fill="#EBEBEB"/>
<path d="M247.804 231.969H236.367V232.118H247.804V231.969Z" fill="#EBEBEB"/>
<path d="M57.0069 232.97H31.2656V233.119H57.0069V232.97Z" fill="#EBEBEB"/>
<path d="M66.0891 232.97H62.3164V233.119H66.0891V232.97Z" fill="#EBEBEB"/>
<path d="M134.189 235.486H78.3555V235.635H134.189V235.486Z" fill="#EBEBEB"/>
<path d="M141.252 201.329H26.1706C25.2691 201.327 24.405 200.968 23.7681 200.33C23.1312 199.692 22.7734 198.827 22.7734 197.926V36.1534C22.7813 35.257 23.1425 34.3999 23.7786 33.7683C24.4146 33.1367 25.2742 32.7816 26.1706 32.78H141.252C142.155 32.78 143.02 33.1386 143.659 33.7768C144.297 34.415 144.655 35.2806 144.655 36.1832V197.926C144.655 198.828 144.297 199.694 143.659 200.332C143.02 200.97 142.155 201.329 141.252 201.329ZM26.1706 32.8992C25.3086 32.9008 24.4824 33.2444 23.8735 33.8545C23.2645 34.4646 22.9224 35.2914 22.9224 36.1534V197.926C22.9224 198.788 23.2645 199.615 23.8735 200.225C24.4824 200.835 25.3086 201.178 26.1706 201.18H141.252C142.115 201.178 142.942 200.835 143.552 200.225C144.162 199.615 144.505 198.788 144.506 197.926V36.1534C144.505 35.2908 144.162 34.464 143.552 33.8541C142.942 33.2442 142.115 32.9008 141.252 32.8992H26.1706Z" fill="#EBEBEB"/>
<path d="M270.174 201.329H155.087C154.185 201.327 153.32 200.968 152.682 200.33C152.044 199.692 151.685 198.828 151.684 197.926V36.1534C151.693 35.2565 152.056 34.3994 152.693 33.768C153.33 33.1365 154.19 32.7815 155.087 32.78H270.174C271.07 32.7831 271.928 33.139 272.563 33.7704C273.197 34.4019 273.558 35.258 273.566 36.1534V197.926C273.566 198.826 273.209 199.69 272.573 200.328C271.937 200.966 271.075 201.326 270.174 201.329ZM155.087 32.8992C154.224 32.9008 153.397 33.2442 152.787 33.8541C152.178 34.464 151.834 35.2908 151.833 36.1534V197.926C151.834 198.788 152.178 199.615 152.787 200.225C153.397 200.835 154.224 201.178 155.087 201.18H270.174C271.037 201.178 271.864 200.835 272.474 200.225C273.084 199.615 273.427 198.788 273.429 197.926V36.1534C273.427 35.2908 273.084 34.464 272.474 33.8541C271.864 33.2442 271.037 32.9008 270.174 32.8992H155.087Z" fill="#EBEBEB"/>
<path d="M264.743 44.4915H166.73V131.46H264.743V44.4915Z" fill="#E6E6E6"/>
<path d="M262.156 46.8755H169.18V129.123H262.156V46.8755Z" fill="#F0F0F0"/>
<path d="M191.005 46.8755L169.18 128.945V90.3835L180.7 46.8755H191.005Z" fill="white"/>
<path d="M198.732 46.8755L176.721 129.123H173.211L195.221 46.8755H198.732Z" fill="white"/>
<path d="M262.158 98.7751V111.917L257.706 129.123H254.195L262.158 98.7751Z" fill="white"/>
<path d="M201.614 45.3973H200.047V130.959H201.614V45.3973Z" fill="#E6E6E6"/>
<path d="M231.962 45.3973H230.395V130.959H231.962V45.3973Z" fill="#E6E6E6"/>
<path d="M85.3049 179.426H31.2656V227.887H85.3049V179.426Z" fill="#F5F5F5"/>
<path d="M50.0754 179.426H31.2656V227.887H50.0754V179.426Z" fill="#EBEBEB"/>
<path d="M96.0588 131.96H42.0195V180.421H96.0588V131.96Z" fill="#EBEBEB"/>
<path d="M60.8293 131.96H42.0195V180.421H60.8293V131.96Z" fill="#E0E0E0"/>
<path d="M85.3049 83.6427H31.2656V132.103H85.3049V83.6427Z" fill="#F5F5F5"/>
<path d="M50.0754 83.6427H31.2656V132.103H50.0754V83.6427Z" fill="#EBEBEB"/>
<path d="M144.114 179.468H90.0742V227.928H144.114V179.468Z" fill="#EBEBEB"/>
<path d="M108.884 179.468H90.0742V227.928H108.884V179.468Z" fill="#E0E0E0"/>
<path d="M150.098 150.115H96.0586V180.469H150.098V150.115Z" fill="#F5F5F5"/>
<path d="M114.868 150.115H96.0586V180.469H114.868V150.115Z" fill="#E6E6E6"/>
<path d="M126.777 102.16H91.8633V150.621H126.777V102.16Z" fill="#EBEBEB"/>
<path d="M104.016 102.16H91.8633V150.621H104.016V102.16Z" fill="#E0E0E0"/>
<path d="M206.519 227.976H260.559V179.515H206.519V227.976Z" fill="#F5F5F5"/>
<path d="M241.749 227.976H260.559V179.515H241.749V227.976Z" fill="#E6E6E6"/>
<path d="M195.761 180.51H249.801V141.061H195.761V180.51Z" fill="#EBEBEB"/>
<path d="M230.999 180.51H249.809V141.061H230.999V180.51Z" fill="#E0E0E0"/>
<path d="M208.444 141.061H260.559V121.751H208.444V141.061Z" fill="#F5F5F5"/>
<path d="M242.43 141.061H260.566V121.751H242.43V141.061Z" fill="#E6E6E6"/>
<path d="M149 254.826C212.821 254.826 264.558 251.805 264.558 248.079C264.558 244.353 212.821 241.332 149 241.332C85.1787 241.332 33.4414 244.353 33.4414 248.079C33.4414 251.805 85.1787 254.826 149 254.826Z" fill="#F5F5F5"/>
<path d="M213.283 65.5302H196.696C195.205 65.5302 193.996 66.7389 193.996 68.23V83.2731C193.996 84.7642 195.205 85.973 196.696 85.973H213.283C214.774 85.973 215.983 84.7642 215.983 83.2731V68.23C215.983 66.7389 214.774 65.5302 213.283 65.5302Z" fill="#7933A1"/>
<path d="M202.84 83.3744C202.84 83.3744 204.229 90.0913 213.693 93.8163C213.693 93.8163 207.906 90.1151 208.263 83.3744H202.84Z" fill="#7933A1"/>
<path d="M200.23 75.1734L203.371 79.5361L209.749 71.9729" stroke="white" stroke-width="3" stroke-linecap="round" stroke-linejoin="round"/>
<path d="M233.95 89.0543C236.865 91.1463 239.499 94.7223 237.526 104.735C235.553 114.748 235.053 117.132 235.053 117.132L215.981 114.986C215.981 114.986 215.087 106.124 216.577 97.7857C218.591 87.016 225.416 82.9215 233.95 89.0543Z" fill="#263238"/>
<path d="M214.859 144.381C214.859 144.381 208.398 178.8 206.676 192.943C204.423 211.383 195.215 238.358 195.215 238.358L198.898 239.312C198.898 239.312 211.879 216.384 214.394 195.762C224.705 174.682 225.539 148.72 225.539 148.72L214.859 144.381Z" fill="#EEC1BB"/>
<path d="M188.338 246.702C188.933 246.428 189.574 246.267 190.228 246.225C190.228 246.225 192.492 244.89 194.733 239.717H197.26C197.686 239.723 198.1 239.859 198.447 240.108C198.793 240.356 199.055 240.704 199.197 241.106C199.239 241.219 199.263 241.337 199.269 241.457C199.241 242.057 199.175 242.654 199.072 243.245C198.703 245.26 198.211 247.25 197.6 249.205L197.171 249.092L197.946 245.331C198.208 244.05 196.861 245.284 196.241 246.577C195.621 247.87 194.686 249.128 191.914 248.532C188.648 247.757 187.343 247.286 188.338 246.702Z" fill="#263238"/>
<path d="M199.291 241.153C199.768 239.932 200.376 237.744 200.376 237.744L194.97 236.993C194.97 236.993 194.97 239.652 193.969 241.392C196.794 241.38 199.291 241.153 199.291 241.153Z" fill="#263238"/>
<path d="M221.566 143.833C221.566 143.833 222.371 178.848 223.605 193.032C225.22 211.544 221.787 239.842 221.787 239.842L225.589 240.009C225.589 240.009 233.546 214.894 231.758 194.189C237.486 171.433 232.95 145.865 232.95 145.865L221.566 143.833Z" fill="#EEC1BB"/>
<path d="M215.874 247.859C216.437 247.52 217.057 247.288 217.704 247.173C217.704 247.173 219.808 245.606 221.482 240.218L223.986 239.932C224.413 239.892 224.842 239.985 225.215 240.198C225.587 240.411 225.884 240.735 226.066 241.124C226.119 241.231 226.155 241.345 226.173 241.463C226.212 242.073 226.212 242.684 226.173 243.293C226.02 245.327 225.743 247.349 225.344 249.349L224.909 249.289L225.273 245.463C225.392 244.163 224.194 245.534 223.711 246.887C223.229 248.24 222.418 249.629 219.581 249.271C216.279 248.872 214.926 248.532 215.874 247.859Z" fill="#263238"/>
<path d="M226.142 241.153C226.481 239.89 226.851 237.649 226.851 237.649L221.397 237.488C221.397 237.488 221.684 240.128 220.879 241.97C223.68 241.642 226.142 241.153 226.142 241.153Z" fill="#263238"/>
<path d="M213.485 138.635L206.398 187.639C206.398 187.639 229.476 191.215 238.714 189.123C238.714 189.123 240.984 160.831 231.341 140.251L213.485 138.635Z" fill="#263238"/>
<path d="M192.153 121.31L185.984 115.219C185.984 115.219 185.776 113.586 185.174 113.133C184.572 112.68 180.352 111.142 179.81 111.482C179.267 111.822 178.57 115.243 179.297 115.868C180.024 116.494 183.868 117.293 184.262 117.227L190.955 125.16L192.153 121.31Z" fill="#EEC1BB"/>
<path d="M214.228 110.206C211.57 111.619 202.13 124.814 200.741 125.464C199.352 126.114 188.726 117.501 188.726 117.501L186.938 120.559C186.938 120.559 195.651 132.908 200.58 132.312C205.509 131.716 214.944 121.286 214.944 121.286L214.228 110.206Z" fill="#7933A1"/>
<path opacity="0.1" d="M214.228 110.206C211.57 111.619 202.13 124.814 200.741 125.464C199.352 126.114 188.726 117.501 188.726 117.501L186.938 120.559C186.938 120.559 195.651 132.908 200.58 132.312C205.509 131.716 214.944 121.286 214.944 121.286L214.228 110.206Z" fill="white"/>
<path d="M189.309 117.829L188.57 117.132L186.633 120.41L187.33 121.751L189.309 117.829Z" fill="#7933A1"/>
<path opacity="0.2" d="M211.152 125.106C213.357 123.002 214.942 121.256 214.942 121.256L214.775 118.634L213.965 116.089C212.822 117.266 211.971 118.695 211.482 120.262C210.994 121.828 210.88 123.488 211.152 125.106Z" fill="black"/>
<path d="M213.333 138.135C212.588 125.023 212.922 117.799 213.261 114.194C213.637 110.349 214.227 110.206 214.227 110.206C214.227 110.206 218.399 109.801 222.017 109.831C224.815 109.926 227.604 110.221 230.361 110.713C232.985 111.148 235.574 111.772 238.109 112.578C237.685 113.77 237.304 114.962 236.946 116.011C236.476 117.436 236.052 118.753 235.665 119.987C234.95 122.287 234.39 124.278 233.949 126.06C232.809 130.547 232.144 135.142 231.964 139.768C231.964 139.768 236.547 151.748 237.441 160.539L222.243 162.178L220.157 153.387L218.071 162.476L209.578 159.496L213.333 138.135Z" fill="#7933A1"/>
<path opacity="0.1" d="M213.333 138.135C212.588 125.023 212.922 117.799 213.261 114.194C213.637 110.349 214.227 110.206 214.227 110.206C214.227 110.206 218.399 109.801 222.017 109.831C224.815 109.926 227.604 110.221 230.361 110.713C232.985 111.148 235.574 111.772 238.109 112.578C237.685 113.77 237.304 114.962 236.946 116.011C236.476 117.436 236.052 118.753 235.665 119.987C234.95 122.287 234.39 124.278 233.949 126.06C232.809 130.547 232.144 135.142 231.964 139.768C231.964 139.768 236.547 151.748 237.441 160.539L222.243 162.178L220.157 153.387L218.071 162.476L209.578 159.496L213.333 138.135Z" fill="white"/>
<path opacity="0.2" d="M233.211 129.272C233.413 128.271 233.652 127.204 233.944 126.06C234.129 125.333 234.331 124.57 234.54 123.759C233.944 121.727 233.348 123.318 233.348 123.318C232.978 125.282 232.932 127.294 233.211 129.272Z" fill="black"/>
<path d="M222.228 110.629C222.411 110.537 222.6 110.455 222.794 110.385C223.223 110.045 223.747 109.229 223.724 107.244C223.704 106.457 223.631 105.673 223.503 104.896L229.028 103.865C229.028 103.865 227.145 107.584 228.712 110.349C229.254 110.588 229.576 110.945 229.517 111.38C229.105 114.569 222.24 117.656 222.24 117.656C222.24 117.656 218.896 112.459 222.228 110.629Z" fill="#EEC1BB"/>
<path opacity="0.2" d="M223.5 104.896C223.625 105.667 223.696 106.446 223.715 107.226C227.446 107.226 229.025 103.865 229.025 103.865L223.5 104.896Z" fill="black"/>
<path d="M226.559 89.4656C221.755 89.2033 220.068 91.6887 219.448 96.6176C218.668 102.78 219.8 107.25 225.879 106.261C234.134 104.896 234.539 89.9007 226.559 89.4656Z" fill="#EEC1BB"/>
<path d="M222.566 96.552C222.143 97.248 221.636 97.8904 221.059 98.4652C221.19 98.6691 221.376 98.8327 221.594 98.9378C221.813 99.043 222.057 99.0857 222.298 99.0612L222.566 96.552Z" fill="#D4827D"/>
<path d="M225.527 96.2897C225.527 96.6831 225.682 97.0228 225.945 97.0407C226.207 97.0586 226.445 96.7606 226.481 96.3672C226.517 95.9738 226.32 95.6341 226.058 95.6162C225.796 95.5984 225.557 95.8964 225.527 96.2897Z" fill="#263238"/>
<path d="M226.164 95.64L225.336 95.2407C225.336 95.2407 225.705 95.9917 226.164 95.64Z" fill="#263238"/>
<path d="M220.636 95.8249C220.606 96.2183 220.791 96.552 221.053 96.5759C221.315 96.5997 221.56 96.2957 221.59 95.8964C221.619 95.4971 221.429 95.1693 221.166 95.1455C220.904 95.1216 220.666 95.4315 220.636 95.8249Z" fill="#263238"/>
<path d="M221.274 95.1752L220.445 94.7699C220.445 94.7699 220.815 95.5268 221.274 95.1752Z" fill="#263238"/>
<path d="M225.762 92.976C226.143 92.9503 226.525 93.0127 226.879 93.1584C227.232 93.3041 227.548 93.5293 227.8 93.8163" stroke="#263238" stroke-width="0.686238" stroke-linecap="round" stroke-linejoin="round"/>
<path d="M222.308 92.5826C221.985 92.4806 221.642 92.4534 221.307 92.5029C220.971 92.5525 220.651 92.6776 220.371 92.8687" stroke="#263238" stroke-width="0.686238" stroke-linecap="round" stroke-linejoin="round"/>
<path d="M231.37 97.8513C231.37 97.8513 229.338 93.7806 229.845 90.7529C229.845 90.7529 220.541 86.3425 219.54 95.9739C219.54 95.9739 219.081 87.3438 227.347 87.6299C235.614 87.916 234.917 99.973 230.458 103.34C230.458 103.317 232.622 100.396 231.37 97.8513Z" fill="#263238"/>
<path d="M230.527 98.8228C230.607 98.2698 230.902 97.7711 231.349 97.4359C231.796 97.1007 232.358 96.9564 232.911 97.0348C234.389 97.2791 234.931 100.378 231.188 100.909C230.652 100.968 230.372 100.432 230.527 98.8228Z" fill="#EEC1BB"/>
<path d="M226.049 100.17C225.685 100.528 225.254 100.812 224.78 101.003C224.307 101.194 223.8 101.29 223.289 101.284" stroke="#263238" stroke-width="0.686238" stroke-linecap="round" stroke-linejoin="round"/>
<path d="M229.842 90.753C229.842 90.753 219.46 88.0531 218.59 97.7858" stroke="#263238" stroke-width="0.686238" stroke-linecap="round" stroke-linejoin="round"/>
<path d="M220.583 112.996C220.583 112.996 219.79 120.887 221.09 128.068C221.09 128.068 224.153 116.971 228.456 113.198L223.51 113.907L220.583 112.996Z" fill="#7933A1"/>
<path opacity="0.5" d="M220.583 112.996C220.583 112.996 219.79 120.887 221.09 128.068C221.09 128.068 224.153 116.971 228.456 113.198L223.51 113.907L220.583 112.996Z" fill="white"/>
<path d="M228.526 109.485L223.502 113.198V109.253C223.502 109.253 219.443 110.725 219.729 115.213L223.061 113.681V115.213L223.842 113.735L226.476 116.744C226.476 116.744 229.7 112.984 230.052 111.851C230.404 110.719 228.526 109.485 228.526 109.485Z" fill="#7933A1"/>
<path opacity="0.7" d="M228.526 109.485L223.502 113.198V109.253C223.502 109.253 219.443 110.725 219.729 115.213L223.061 113.681V115.213L223.842 113.735L226.476 116.744C226.476 116.744 229.7 112.984 230.052 111.851C230.404 110.719 228.526 109.485 228.526 109.485Z" fill="white"/>
<path d="M233.769 144.303L229.156 122.293C229.108 122.063 228.983 121.856 228.801 121.707C228.618 121.559 228.39 121.477 228.155 121.477H213.964C213.86 121.477 213.757 121.5 213.662 121.544C213.568 121.588 213.484 121.653 213.417 121.733C213.35 121.813 213.301 121.907 213.274 122.008C213.247 122.109 213.243 122.214 213.261 122.317L217.105 143.868C217.145 144.101 217.264 144.312 217.443 144.466C217.621 144.621 217.847 144.708 218.083 144.715L233.084 145.162C233.189 145.159 233.292 145.134 233.386 145.088C233.48 145.041 233.562 144.975 233.628 144.893C233.693 144.811 233.74 144.716 233.764 144.614C233.789 144.512 233.79 144.406 233.769 144.303Z" fill="#263238"/>
<path opacity="0.1" d="M233.769 144.303L229.156 122.293C229.108 122.063 228.983 121.856 228.801 121.707C228.618 121.559 228.39 121.477 228.155 121.477H213.964C213.86 121.477 213.757 121.5 213.662 121.544C213.568 121.588 213.484 121.653 213.417 121.733C213.35 121.813 213.301 121.907 213.274 122.008C213.247 122.109 213.243 122.214 213.261 122.317L217.105 143.868C217.145 144.101 217.264 144.312 217.443 144.466C217.621 144.621 217.847 144.708 218.083 144.715L233.084 145.162C233.189 145.159 233.292 145.134 233.386 145.088C233.48 145.041 233.562 144.975 233.628 144.893C233.693 144.811 233.74 144.716 233.764 144.614C233.789 144.512 233.79 144.406 233.769 144.303Z" fill="white"/>
<path d="M239.904 137.175L232.567 132.55C232.567 132.55 232.007 131.007 231.327 130.691C230.648 130.375 226.19 129.785 225.755 130.232C225.32 130.679 225.356 134.166 226.202 134.624C227.048 135.083 230.97 135.03 231.339 134.881L239.558 141.175L239.904 137.175Z" fill="#EEC1BB"/>
<path d="M238.109 112.578C238.109 112.578 233.341 119.54 234.014 125.5L240.374 136.025L236.1 133.844L234.163 137.491C234.163 137.491 239.08 145.066 245.338 143.278C251.596 141.49 238.109 112.578 238.109 112.578Z" fill="#7933A1"/>
<path opacity="0.1" d="M238.109 112.578C238.109 112.578 233.341 119.54 234.014 125.5L240.374 136.025L236.1 133.844L234.163 137.491C234.163 137.491 239.08 145.066 245.338 143.278C251.596 141.49 238.109 112.578 238.109 112.578Z" fill="white"/>
<path d="M236.546 133.641L234.115 138.165L233.566 136.871L235.503 133.194L236.546 133.641Z" fill="#7933A1"/>
<path d="M227.675 121.477C227.115 121.477 227.115 136.138 227.115 136.138L214.301 135.769C214.301 135.769 212.859 123.372 214.301 121.465L227.675 121.477Z" fill="white"/>
<path opacity="0.1" d="M227.675 121.477C227.115 121.477 227.115 136.138 227.115 136.138L214.301 135.769C214.301 135.769 212.859 123.372 214.301 121.465L227.675 121.477Z" fill="black"/>
<path d="M174.749 109.861L186.866 114.956C186.931 114.985 186.99 115.026 187.04 115.077C187.089 115.129 187.128 115.189 187.154 115.256C187.18 115.322 187.193 115.393 187.191 115.465C187.19 115.536 187.175 115.606 187.146 115.672C187.09 115.8 186.985 115.901 186.854 115.953C186.723 116.004 186.577 116.002 186.449 115.946L174.254 110.778L174.141 110.719L172.723 109.664L174.588 109.825C174.643 109.828 174.698 109.84 174.749 109.861Z" fill="#263238"/>
<path d="M134.548 134.976L122.777 136.025L118.057 133.361C118.057 133.361 102.919 124.927 98.985 122.263C97.793 121.447 96.6784 119.671 95.7189 117.585C94.9137 115.796 94.221 113.959 93.6448 112.084C93.3766 111.243 93.1382 110.439 92.9356 109.7C92.4826 108.108 92.2025 106.916 92.125 106.595C92.1284 106.569 92.1284 106.543 92.125 106.517H92.1548L95.8858 105.325L99.0028 104.336C99.0028 104.336 99.1459 105.075 99.3902 106.201L99.6048 107.196C99.6704 107.483 99.7359 107.792 99.8074 108.102C100.594 111.571 101.804 116.303 102.68 117.078C104.093 118.324 121.853 130.429 122.485 130.744C123.117 131.06 128.773 130.744 128.773 130.744L134.548 134.976Z" fill="#E4897B"/>
<path d="M92.0309 89.8052C97.4545 89.7218 100.905 106.529 100.905 106.529L93.7533 110.105C91.7217 106.587 90.6623 102.593 90.6839 98.5307C90.8508 92.082 92.0309 89.8052 92.0309 89.8052Z" fill="#7933A1"/>
<path opacity="0.5" d="M92.0309 89.8052C97.4545 89.7218 100.905 106.529 100.905 106.529L93.7533 110.105C91.7217 106.587 90.6623 102.593 90.6839 98.5307C90.8508 92.082 92.0309 89.8052 92.0309 89.8052Z" fill="white"/>
<path d="M101.696 106.857L99.7647 108.108L97.2436 109.741L93.62 112.084L92.9703 112.507L92.1836 110.117L92.9107 109.724L93.3875 109.461L96.7013 107.655L99.3475 106.207L100.671 105.486L100.903 105.361L101.696 106.857Z" fill="#7933A1"/>
<path opacity="0.2" d="M97.5669 112.507C97.578 114.37 96.9131 116.174 95.6954 117.585C94.8903 115.796 94.1975 113.959 93.6214 112.084L92.9717 112.507L92.185 110.123L92.9121 109.73C92.4592 108.138 92.179 106.946 92.1016 106.624V106.529L92.9598 99.973C94.0859 101.666 95.0479 103.462 95.8325 105.337C96.1424 106.07 96.4285 106.851 96.6908 107.661C96.7821 107.94 96.8656 108.226 96.9411 108.52C97.0543 108.925 97.1497 109.336 97.2331 109.747C97.4268 110.655 97.5385 111.579 97.5669 112.507Z" fill="black"/>
<path d="M91.2188 243.978L96.2073 244.509L97.143 233.751L92.1545 233.221L91.2188 243.978Z" fill="#E4897B"/>
<path d="M66.3359 243.615H71.1635L71.5629 232.422H66.7293L66.3359 243.615Z" fill="#E4897B"/>
<path d="M71.8378 243.055H65.9672C65.8712 243.056 65.7785 243.09 65.704 243.151C65.6294 243.211 65.5773 243.295 65.556 243.388L64.6024 247.692C64.5823 247.783 64.5806 247.878 64.5973 247.97C64.6141 248.062 64.649 248.15 64.6999 248.229C64.7509 248.308 64.817 248.376 64.8944 248.429C64.9718 248.482 65.0589 248.519 65.1507 248.538C65.202 248.547 65.2544 248.547 65.3057 248.538C67.2069 248.538 68.5896 248.395 70.9736 248.395C72.4458 248.395 76.88 248.544 78.9064 248.544C80.9328 248.544 81.201 246.541 80.3666 246.357C76.6416 245.546 73.8106 244.42 72.6186 243.377C72.4063 243.178 72.1287 243.063 71.8378 243.055Z" fill="#263238"/>
<path d="M72.1723 243.728C72.1489 243.722 72.1278 243.71 72.1119 243.691C72.0959 243.673 72.0858 243.651 72.0829 243.627C72.0802 243.606 72.0838 243.584 72.0934 243.565C72.1029 243.546 72.118 243.53 72.1366 243.52C72.3094 243.406 73.8709 242.447 74.4073 242.727C74.4683 242.753 74.5197 242.798 74.5548 242.854C74.59 242.911 74.6071 242.976 74.604 243.043C74.6159 243.154 74.6005 243.267 74.5589 243.37C74.5173 243.474 74.451 243.566 74.3656 243.639C74.0937 243.827 73.7653 243.915 73.4358 243.889C73.0099 243.884 72.586 243.83 72.1723 243.728ZM72.5001 243.567C73.0646 243.759 73.681 243.727 74.2226 243.478C74.2791 243.426 74.3226 243.362 74.3496 243.291C74.3765 243.219 74.3861 243.143 74.3775 243.067C74.3775 242.977 74.3358 242.936 74.3001 242.936C74.2567 242.911 74.2066 242.9 74.157 242.906C73.5672 243.017 73.0046 243.242 72.5001 243.567Z" fill="#7933A1"/>
<path d="M72.1162 243.764C72.099 243.752 72.0851 243.736 72.0757 243.717C72.0663 243.698 72.0618 243.678 72.0626 243.657C72.0626 243.591 72.1877 242.202 72.748 241.749C72.8126 241.691 72.8894 241.647 72.9728 241.621C73.0562 241.595 73.1443 241.588 73.2307 241.6C73.3172 241.6 73.4012 241.629 73.4686 241.684C73.5359 241.738 73.5824 241.814 73.6003 241.898C73.6956 242.411 72.7301 243.472 72.2354 243.746H72.1818C72.1621 243.758 72.1393 243.764 72.1162 243.764ZM72.891 241.881C72.5444 242.314 72.3367 242.841 72.295 243.394C72.7957 243.019 73.4095 242.202 73.3499 241.898C73.3499 241.869 73.3499 241.785 73.1831 241.785H73.1294C73.0494 241.791 72.9729 241.82 72.9089 241.869L72.891 241.881Z" fill="#7933A1"/>
<path d="M96.7313 242.906H90.8607C90.7652 242.906 90.6726 242.939 90.5979 242.998C90.5233 243.058 90.4709 243.141 90.4494 243.234L89.4958 247.537C89.4569 247.722 89.4927 247.914 89.5954 248.073C89.6982 248.231 89.8595 248.343 90.0441 248.383H90.2051C92.1003 248.347 93.4831 248.234 95.873 248.234C97.3392 248.234 101.773 248.389 103.8 248.389C105.826 248.389 106.094 246.38 105.266 246.196C101.541 245.385 98.71 244.265 97.518 243.216C97.3024 243.02 97.0226 242.909 96.7313 242.906Z" fill="#263238"/>
<path d="M97.067 243.573C97.0436 243.567 97.0225 243.554 97.0066 243.536C96.9906 243.518 96.9805 243.496 96.9776 243.472C96.9744 243.45 96.9785 243.428 96.9893 243.408C97.0001 243.389 97.0169 243.373 97.0372 243.365C97.21 243.251 98.7716 242.292 99.302 242.572C99.362 242.6 99.4125 242.644 99.4474 242.701C99.4824 242.757 99.5002 242.822 99.4987 242.888C99.5111 242.999 99.4959 243.112 99.4543 243.216C99.4127 243.32 99.3461 243.412 99.2603 243.484C98.9942 243.677 98.6711 243.776 98.3424 243.764C97.9114 243.749 97.4835 243.685 97.067 243.573ZM97.3948 243.412C97.9592 243.6 98.5736 243.571 99.1172 243.329C99.1742 243.278 99.218 243.214 99.2449 243.142C99.2719 243.071 99.2812 242.994 99.2722 242.918C99.2722 242.822 99.2305 242.78 99.2007 242.78C99.1552 242.756 99.1032 242.745 99.0517 242.751C98.4627 242.865 97.9006 243.089 97.3948 243.412Z" fill="#7933A1"/>
<path d="M97.0362 243.597C97.0187 243.586 97.0041 243.571 96.9937 243.554C96.9833 243.536 96.9774 243.516 96.9766 243.496C96.9766 243.424 97.1017 242.036 97.662 241.583C97.7266 241.524 97.8033 241.48 97.8868 241.454C97.9702 241.429 98.0582 241.422 98.1447 241.434C98.232 241.433 98.3167 241.464 98.3842 241.519C98.4516 241.575 98.4976 241.652 98.5142 241.738C98.6156 242.244 97.65 243.311 97.1494 243.579H97.0958C97.078 243.591 97.0573 243.597 97.0362 243.597ZM97.811 241.714C97.4617 242.145 97.2536 242.674 97.215 243.228C97.7096 242.852 98.3235 242.036 98.2639 241.738C98.2639 241.702 98.2639 241.618 98.097 241.618H98.0434C97.9577 241.624 97.8762 241.658 97.811 241.714Z" fill="#7933A1"/>
<path opacity="0.2" d="M92.1528 233.221L97.1413 233.751L96.6526 239.3L91.6641 238.769L92.1528 233.221Z" fill="black"/>
<path opacity="0.2" d="M66.7281 232.428H71.5617L71.3531 238.203H66.5195L66.7281 232.428Z" fill="black"/>
<path d="M68.7196 134.231H94.3476C96.7852 147.552 104.42 194.677 98.9427 236.666L90.259 235.587C90.259 235.587 91.0636 179.843 83.399 159.239C82.517 170.265 81.468 182 80.5621 188.247C78.3509 203.611 73.577 237.208 73.577 237.208H64.7383C64.7383 237.208 66.5263 205.06 67.3786 189.951C68.2904 173.549 68.6898 137.598 68.7196 134.231Z" fill="#7933A1"/>
<path opacity="0.2" d="M83.4414 159.239C84.7048 162.852 85.6637 166.564 86.3082 170.337C87.0234 160.521 84.1566 150.115 84.1566 150.115L83.4414 159.239Z" fill="black"/>
<path d="M99.9607 238.686L89.2148 237.089L89.5426 234.115L100.718 235.581L99.9607 238.686Z" fill="#7933A1"/>
<path opacity="0.6" d="M99.9607 238.686L89.2148 237.089L89.5426 234.115L100.718 235.581L99.9607 238.686Z" fill="white"/>
<path d="M74.6389 237.273H64.2148V234.156L75.0322 233.954L74.6389 237.273Z" fill="#7933A1"/>
<path opacity="0.6" d="M74.6389 237.273H64.2148V234.156L75.0322 233.954L74.6389 237.273Z" fill="white"/>
<path d="M68.6723 138.689L68.6484 134.976L94.789 133.361L94.9738 136.961L68.6723 138.689Z" fill="#263238"/>
<path d="M75.2895 134.034H74.1094V139.476H75.2895V134.034Z" fill="#7933A1"/>
<path d="M93.3527 132.227L92.1758 132.313L92.5715 137.74L93.7484 137.654L93.3527 132.227Z" fill="#7933A1"/>
<path d="M94.7652 133.361L68.6484 135.292C68.6484 133.003 68.5888 130.452 68.416 127.758C68.0942 122.782 67.4803 117.334 66.7949 112.227C65.3406 101.374 63.5586 92.0581 63.5586 92.0581C75.717 88.9887 92.0295 89.7873 92.0295 89.7873C96.2671 105.665 94.7652 133.361 94.7652 133.361Z" fill="#7933A1"/>
<path opacity="0.6" d="M94.7652 133.361L68.6484 135.292C68.6484 133.003 68.5888 130.452 68.416 127.758C68.0942 122.782 67.4803 117.334 66.7949 112.227C65.3406 101.374 63.5586 92.0581 63.5586 92.0581C75.717 88.9887 92.0295 89.7873 92.0295 89.7873C96.2671 105.665 94.7652 133.361 94.7652 133.361Z" fill="white"/>
<path d="M72.8398 90.431C75.2238 92.5707 80.9633 91.7839 80.9633 91.7839C80.9633 91.7839 84.5393 90.7946 83.8062 89.6681C81.6845 89.3225 80.6594 88.3331 80.2302 87.0636C79.9947 86.2801 79.9217 85.4566 80.0157 84.6439C80.0485 84.1897 80.1082 83.738 80.1945 83.2909L73.0425 78.0104C74.002 81.497 75.1464 87.904 72.8398 90.431Z" fill="#E4897B"/>
<path opacity="0.2" d="M74.7148 81.3658C74.995 85.6451 78.5114 86.8252 80.2338 87.0636C79.9983 86.28 79.9252 85.4566 80.0192 84.6438L74.7148 81.3658Z" fill="black"/>
<path d="M87.0163 67.8426C88.7507 69.4876 88.0295 74.4999 84.4952 77.0627C80.9609 79.6255 80.9609 67.2287 80.9609 67.2287C80.9609 67.2287 85.9137 66.7936 87.0163 67.8426Z" fill="#263238"/>
<path d="M74.2313 82.3552C74.9724 83.4523 76.0531 84.2756 77.3075 84.6988C78.562 85.1219 79.9206 85.1215 81.1747 84.6975C82.8057 84.1809 84.1783 83.0619 85.013 81.5685C85.1309 81.3615 85.2383 81.1486 85.3348 80.9308C87.0751 76.8839 87.6115 69.732 83.3263 67.0738C81.855 66.1517 80.0779 65.851 78.3851 66.2376C76.6923 66.6242 75.2221 67.6666 74.2969 69.136C73.7497 70.0081 73.413 70.9958 73.3135 72.0206C72.789 76.7648 72.2526 79.5421 74.2313 82.3552Z" fill="#E4897B"/>
<path d="M80.2543 74.5535C80.1649 74.929 80.3377 75.2807 80.594 75.3224C80.8503 75.3641 81.1006 75.084 81.19 74.7264C81.2794 74.3688 81.1006 73.9993 80.8563 73.9575C80.6119 73.9158 80.3258 74.1661 80.2543 74.5535Z" fill="#263238"/>
<path d="M84.5976 75.2926C84.5082 75.6681 84.687 76.0257 84.9314 76.0674C85.1757 76.1091 85.4439 75.829 85.5274 75.4714C85.6108 75.1138 85.438 74.7383 85.1876 74.6966C84.9373 74.6549 84.6632 74.929 84.5976 75.2926Z" fill="#263238"/>
<path d="M83.1865 75.245C83.4446 76.4901 83.8739 77.6935 84.4619 78.821C84.1656 78.9656 83.8412 79.0432 83.5116 79.0483C83.182 79.0535 82.8553 78.986 82.5547 78.8508L83.1865 75.245Z" fill="#DE5753"/>
<path d="M79.1422 72.9145C79.1828 72.9264 79.2257 72.9283 79.2673 72.92C79.3088 72.9117 79.3477 72.8935 79.3806 72.8669C79.5841 72.6638 79.8327 72.5116 80.1061 72.4225C80.3794 72.3335 80.6699 72.3101 80.954 72.3543C80.983 72.3614 81.0131 72.3627 81.0425 72.3582C81.072 72.3536 81.1003 72.3433 81.1258 72.3278C81.1513 72.3123 81.1734 72.2919 81.191 72.2678C81.2086 72.2437 81.2212 72.2164 81.2282 72.1874C81.241 72.129 81.2307 72.068 81.1997 72.0169C81.1686 71.9659 81.119 71.9287 81.0613 71.9133C80.7051 71.8475 80.3384 71.8673 79.9913 71.9709C79.6442 72.0745 79.3266 72.259 79.0647 72.5093C79.0232 72.5525 79 72.6102 79 72.6702C79 72.7302 79.0232 72.7878 79.0647 72.8311C79.0848 72.8637 79.1111 72.8921 79.1422 72.9145Z" fill="#263238"/>
<path d="M81.5878 80.7579C81.0239 80.7488 80.4707 80.603 79.9755 80.3331C79.4804 80.0632 79.0581 79.6773 78.7448 79.2083C78.7363 79.1947 78.7306 79.1795 78.728 79.1636C78.7255 79.1478 78.7262 79.1316 78.7301 79.116C78.734 79.1004 78.741 79.0857 78.7507 79.0729C78.7604 79.0601 78.7726 79.0494 78.7866 79.0414C78.8128 79.0255 78.8442 79.0203 78.8742 79.027C78.9042 79.0337 78.9304 79.0516 78.9475 79.0772C79.2475 79.504 79.6429 79.855 80.1022 80.1022C80.5616 80.3495 81.0723 80.4863 81.5937 80.5016C81.6243 80.5016 81.6538 80.5133 81.676 80.5344C81.6982 80.5555 81.7114 80.5843 81.7129 80.6149C81.7115 80.6444 81.6991 80.6724 81.6781 80.6933C81.6572 80.7143 81.6292 80.7267 81.5997 80.7281L81.5878 80.7579Z" fill="#263238"/>
<path d="M86.7205 74.1126C86.7602 74.1361 86.8055 74.1484 86.8517 74.1483C86.9087 74.1304 86.957 74.0916 86.9868 74.0397C87.0166 73.9878 87.0258 73.9266 87.0126 73.8682C86.9201 73.5165 86.7439 73.1924 86.499 72.9236C86.254 72.6548 85.9476 72.4493 85.606 72.3246C85.5491 72.3078 85.4879 72.314 85.4355 72.3418C85.3831 72.3697 85.3438 72.417 85.3259 72.4736C85.3089 72.5313 85.3149 72.5933 85.3427 72.6467C85.3705 72.7 85.4179 72.7405 85.4749 72.7597C85.7417 72.8664 85.9799 73.0341 86.1703 73.2494C86.3607 73.4646 86.4981 73.7215 86.5715 73.9993C86.5869 74.0277 86.6081 74.0525 86.6338 74.0721C86.6595 74.0916 86.6891 74.1054 86.7205 74.1126Z" fill="#263238"/>
<path d="M77.7842 66.7162V68.838C77.4095 68.9641 77.0959 69.2266 76.906 69.5734C76.716 69.9202 76.6636 70.3258 76.7591 70.7094C77.218 72.557 75.889 75.1675 74.4049 76.0734C74.4049 76.0734 74.4526 75.3046 73.8089 75.4059C73.1652 75.5072 72.8374 79.5064 73.8626 81.5507C73.8626 81.5507 72.1699 79.6077 71.6097 75.3046C71.0852 71.3233 71.3594 68.093 72.3308 66.6984L77.7842 66.7162Z" fill="#263238"/>
<path d="M70.5957 75.5251C70.9362 76.6816 71.7204 77.6564 72.7771 78.2369C74.1836 78.9938 75.2385 77.8137 75.1611 76.3058C75.0657 74.9589 74.2313 72.9086 72.6698 72.7894C71.1083 72.6702 70.1904 74.1006 70.5957 75.5251Z" fill="#E4897B"/>
<path d="M71.3736 70.3279C71.3736 70.3279 69.9015 66.7937 73.7576 64.2011C77.6137 61.6085 86.7623 64.6302 87.406 66.7341C88.0497 68.8379 81.1301 72.6583 71.3736 70.3279Z" fill="#263238"/>
<path d="M73.74 88.2318L79.5748 91.4263L80.3735 87.0636L84.462 89.7218V95.2944L80.1351 92.7137L77.0955 97.2671L71.0938 90.6754L73.74 88.2318Z" fill="#7933A1"/>
<path d="M86.9914 133.513L82.3973 133.767C82.0161 133.788 81.7241 134.114 81.7453 134.495L81.9173 137.602C81.9384 137.983 82.2646 138.275 82.6458 138.254L87.2399 137.999C87.6212 137.978 87.9131 137.652 87.892 137.271L87.72 134.165C87.6988 133.783 87.3727 133.491 86.9914 133.513Z" fill="white"/>
<path opacity="0.5" d="M73.74 88.2318L79.5748 91.4263L80.3735 87.0636L84.462 89.7218V95.2944L80.1351 92.7137L77.0955 97.2671L71.0938 90.6754L73.74 88.2318Z" fill="white"/>
<path opacity="0.2" d="M77.7832 126.626C76.0488 129.237 70.5001 129.219 68.4141 127.776C68.0922 122.8 67.4784 117.352 66.793 112.245L77.7832 126.626Z" fill="black"/>
<path d="M68.647 106.529C68.647 106.529 69.8807 114.563 71.0906 116.131C72.3004 117.698 97.3146 131.376 97.3146 131.376L105.963 130.75L109.938 135.31C109.938 135.31 98.4172 137.098 97.1596 136.752C96.3922 136.54 95.6476 136.252 94.9365 135.894C94.9365 135.894 68.7125 125.565 66.5073 123.205C64.3021 120.845 61.793 108.728 61.793 108.728L68.647 106.529Z" fill="#E4897B"/>
<path d="M63.5585 92.076C68.1358 91.1224 70.5019 110.117 70.5019 110.117L61.1387 112.501C61.1387 112.501 57.9263 93.2561 63.5585 92.076Z" fill="#7933A1"/>
<path opacity="0.5" d="M63.5585 92.076C68.1358 91.1224 70.5019 110.117 70.5019 110.117L61.1387 112.501C61.1387 112.501 57.9263 93.2561 63.5585 92.076Z" fill="white"/>
<path d="M60.5898 112.048L71.0914 109.533V111.339L61.0607 114.247L60.5898 112.048Z" fill="#7933A1"/>
<path d="M96.5538 230.652V148.952C96.5545 145.416 95.4707 141.965 93.4486 139.065L90.5938 134.976H141.313L144.168 139.065C146.19 141.965 147.274 145.416 147.273 148.952V229.877" stroke="#263238" stroke-width="6" stroke-linecap="round" stroke-linejoin="round"/>
<path d="M204.341 248.562C207.241 248.562 209.591 246.211 209.591 243.311C209.591 240.411 207.241 238.06 204.341 238.06C201.441 238.06 199.09 240.411 199.09 243.311C199.09 246.211 201.441 248.562 204.341 248.562Z" fill="#263238"/>
<path opacity="0.4" d="M206.968 243.311C206.969 242.791 206.816 242.282 206.528 241.849C206.239 241.416 205.829 241.078 205.349 240.879C204.869 240.679 204.34 240.626 203.83 240.727C203.32 240.827 202.851 241.077 202.483 241.444C202.115 241.812 201.864 242.28 201.762 242.79C201.66 243.3 201.712 243.829 201.91 244.31C202.109 244.79 202.446 245.201 202.878 245.49C203.311 245.779 203.819 245.933 204.339 245.933C204.684 245.934 205.026 245.867 205.345 245.736C205.664 245.604 205.953 245.411 206.197 245.167C206.442 244.924 206.635 244.635 206.767 244.316C206.9 243.997 206.968 243.656 206.968 243.311Z" fill="white"/>
<path d="M203.709 244.479C203.299 244.479 202.9 244.353 202.564 244.118C202.229 243.884 201.973 243.552 201.832 243.168L198.738 234.693H205.706V242.483C205.706 243.012 205.495 243.52 205.121 243.894C204.746 244.269 204.238 244.479 203.709 244.479Z" fill="#263238"/>
<path opacity="0.2" d="M203.709 244.479C203.299 244.479 202.9 244.353 202.564 244.118C202.229 243.884 201.973 243.552 201.832 243.168L198.738 234.693H205.706V242.483C205.706 243.012 205.495 243.52 205.121 243.894C204.746 244.269 204.238 244.479 203.709 244.479Z" fill="white"/>
<path d="M145.93 248.562C148.83 248.562 151.181 246.211 151.181 243.311C151.181 240.411 148.83 238.06 145.93 238.06C143.031 238.06 140.68 240.411 140.68 243.311C140.68 246.211 143.031 248.562 145.93 248.562Z" fill="#263238"/>
<path opacity="0.4" d="M148.561 243.311C148.563 242.791 148.409 242.282 148.121 241.849C147.833 241.416 147.423 241.078 146.943 240.879C146.463 240.679 145.934 240.626 145.424 240.727C144.914 240.827 144.445 241.077 144.077 241.444C143.708 241.812 143.458 242.28 143.356 242.79C143.254 243.3 143.305 243.829 143.504 244.31C143.703 244.79 144.04 245.201 144.472 245.49C144.905 245.779 145.413 245.933 145.933 245.933C146.278 245.934 146.62 245.867 146.938 245.736C147.257 245.604 147.547 245.411 147.791 245.167C148.035 244.924 148.229 244.635 148.361 244.316C148.493 243.997 148.561 243.656 148.561 243.311Z" fill="white"/>
<path d="M145.299 244.479C144.889 244.479 144.49 244.353 144.154 244.118C143.818 243.884 143.563 243.552 143.421 243.168L140.328 234.693H147.295V242.483C147.295 243.012 147.085 243.52 146.711 243.894C146.336 244.269 145.828 244.479 145.299 244.479Z" fill="#263238"/>
<path opacity="0.2" d="M145.299 244.479C144.889 244.479 144.49 244.353 144.154 244.118C143.818 243.884 143.563 243.552 143.421 243.168L140.328 234.693H147.295V242.483C147.295 243.012 147.085 243.52 146.711 243.894C146.336 244.269 145.828 244.479 145.299 244.479Z" fill="white"/>
<path d="M213.368 228.584V233.543C213.368 233.987 213.192 234.413 212.878 234.727C212.564 235.041 212.138 235.217 211.693 235.217H94.3232C93.879 235.217 93.453 235.041 93.139 234.727C92.8249 234.413 92.6484 233.987 92.6484 233.543V228.584H213.368Z" fill="#263238"/>
<path opacity="0.4" d="M213.368 228.584V233.543C213.368 233.987 213.192 234.413 212.878 234.727C212.564 235.041 212.138 235.217 211.693 235.217H94.3232C93.879 235.217 93.453 235.041 93.139 234.727C92.8249 234.413 92.6484 233.987 92.6484 233.543V228.584H213.368Z" fill="white"/>
<path opacity="0.2" d="M171.648 228.584V233.543C171.648 233.987 171.472 234.413 171.158 234.727C170.844 235.041 170.418 235.217 169.973 235.217H94.3232C93.879 235.217 93.453 235.041 93.139 234.727C92.8249 234.413 92.6484 233.987 92.6484 233.543V228.584H171.648Z" fill="white"/>
<path d="M162.024 248.562C164.924 248.562 167.275 246.211 167.275 243.311C167.275 240.411 164.924 238.06 162.024 238.06C159.124 238.06 156.773 240.411 156.773 243.311C156.773 246.211 159.124 248.562 162.024 248.562Z" fill="#263238"/>
<path opacity="0.6" d="M164.651 243.311C164.652 242.791 164.499 242.282 164.211 241.849C163.923 241.416 163.513 241.078 163.033 240.879C162.553 240.679 162.024 240.626 161.514 240.727C161.004 240.827 160.535 241.077 160.166 241.444C159.798 241.812 159.547 242.28 159.445 242.79C159.344 243.3 159.395 243.829 159.594 244.31C159.793 244.79 160.13 245.201 160.562 245.49C160.994 245.779 161.503 245.933 162.023 245.933C162.368 245.934 162.709 245.867 163.028 245.736C163.347 245.604 163.637 245.411 163.881 245.167C164.125 244.924 164.319 244.635 164.451 244.316C164.583 243.997 164.651 243.656 164.651 243.311Z" fill="white"/>
<path d="M161.393 244.479C160.983 244.479 160.584 244.353 160.248 244.118C159.912 243.884 159.656 243.552 159.515 243.168L156.422 234.693H163.389V242.483C163.389 243.012 163.179 243.52 162.804 243.894C162.43 244.269 161.922 244.479 161.393 244.479Z" fill="#263238"/>
<path opacity="0.4" d="M161.393 244.479C160.983 244.479 160.584 244.353 160.248 244.118C159.912 243.884 159.656 243.552 159.515 243.168L156.422 234.693H163.389V242.483C163.389 243.012 163.179 243.52 162.804 243.894C162.43 244.269 161.922 244.479 161.393 244.479Z" fill="white"/>
<path d="M103.618 248.562C106.518 248.562 108.869 246.211 108.869 243.311C108.869 240.411 106.518 238.06 103.618 238.06C100.718 238.06 98.3672 240.411 98.3672 243.311C98.3672 246.211 100.718 248.562 103.618 248.562Z" fill="#263238"/>
<path opacity="0.6" d="M106.245 243.311C106.246 242.791 106.093 242.282 105.805 241.849C105.517 241.416 105.107 241.078 104.627 240.879C104.146 240.679 103.618 240.626 103.108 240.727C102.597 240.827 102.128 241.077 101.76 241.444C101.392 241.812 101.141 242.28 101.039 242.79C100.937 243.3 100.989 243.829 101.188 244.31C101.387 244.79 101.723 245.201 102.156 245.49C102.588 245.779 103.097 245.933 103.617 245.933C103.962 245.934 104.303 245.867 104.622 245.736C104.941 245.604 105.231 245.411 105.475 245.167C105.719 244.924 105.913 244.635 106.045 244.316C106.177 243.997 106.245 243.656 106.245 243.311Z" fill="white"/>
<path d="M102.986 244.479C102.577 244.479 102.177 244.353 101.842 244.118C101.506 243.884 101.25 243.552 101.109 243.168L98.0156 234.693H104.983V242.483C104.983 243.012 104.773 243.52 104.398 243.894C104.024 244.269 103.516 244.479 102.986 244.479Z" fill="#263238"/>
<path opacity="0.4" d="M102.986 244.479C102.577 244.479 102.177 244.353 101.842 244.118C101.506 243.884 101.25 243.552 101.109 243.168L98.0156 234.693H104.983V242.483C104.983 243.012 104.773 243.52 104.398 243.894C104.024 244.269 103.516 244.479 102.986 244.479Z" fill="white"/>
<path d="M162.764 190.112H107.188V228.584H162.764V190.112Z" fill="#7933A1"/>
<path opacity="0.4" d="M162.764 190.112H107.188V228.584H162.764V190.112Z" fill="white"/>
<path opacity="0.2" d="M132.976 190.112H107.188V228.584H132.976V190.112Z" fill="white"/>
<path opacity="0.2" d="M130.538 220.448H127.314C127.011 220.448 126.766 220.694 126.766 220.997V225.401C126.766 225.704 127.011 225.95 127.314 225.95H130.538C130.841 225.95 131.087 225.704 131.087 225.401V220.997C131.087 220.694 130.841 220.448 130.538 220.448Z" fill="black"/>
<path opacity="0.2" d="M124.722 220.448H121.498C121.195 220.448 120.949 220.694 120.949 220.997V225.401C120.949 225.704 121.195 225.95 121.498 225.95H124.722C125.025 225.95 125.27 225.704 125.27 225.401V220.997C125.27 220.694 125.025 220.448 124.722 220.448Z" fill="black"/>
<path opacity="0.4" d="M150.813 190.112H147.672V194.123H150.813V190.112Z" fill="black"/>
<path opacity="0.2" d="M159.4 206.538H137.766V211.568H159.4V206.538Z" fill="black"/>
<path opacity="0.2" d="M116.264 192.115H108.867V199.511H116.264V192.115Z" fill="black"/>
<path d="M168.436 151.64H112.859V190.112H168.436V151.64Z" fill="#7933A1"/>
<path opacity="0.4" d="M168.436 151.64H112.859V190.112H168.436V151.64Z" fill="black"/>
<path opacity="0.2" d="M138.648 151.64H112.859V190.112H138.648V151.64Z" fill="white"/>
<path opacity="0.2" d="M136.218 181.977H132.994C132.691 181.977 132.445 182.222 132.445 182.525V186.929C132.445 187.232 132.691 187.478 132.994 187.478H136.218C136.521 187.478 136.766 187.232 136.766 186.929V182.525C136.766 182.222 136.521 181.977 136.218 181.977Z" fill="black"/>
<path opacity="0.2" d="M130.402 181.977H127.177C126.874 181.977 126.629 182.222 126.629 182.525V186.929C126.629 187.232 126.874 187.478 127.177 187.478H130.402C130.704 187.478 130.95 187.232 130.95 186.929V182.525C130.95 182.222 130.704 181.977 130.402 181.977Z" fill="black"/>
<path opacity="0.4" d="M156.489 151.64H153.348V155.651H156.489V151.64Z" fill="black"/>
<path opacity="0.2" d="M165.076 168.066H143.441V173.096H165.076V168.066Z" fill="black"/>
<path opacity="0.2" d="M121.943 153.643H114.547V161.039H121.943V153.643Z" fill="black"/>
<path d="M202.456 151.64H146.879V190.112H202.456V151.64Z" fill="#7933A1"/>
<path opacity="0.4" d="M202.456 151.64H146.879V190.112H202.456V151.64Z" fill="white"/>
<path opacity="0.2" d="M172.668 151.64H146.879V190.112H172.668V151.64Z" fill="white"/>
<path opacity="0.2" d="M170.238 181.977H167.013C166.71 181.977 166.465 182.222 166.465 182.525V186.929C166.465 187.232 166.71 187.478 167.013 187.478H170.238C170.54 187.478 170.786 187.232 170.786 186.929V182.525C170.786 182.222 170.54 181.977 170.238 181.977Z" fill="black"/>
<path opacity="0.2" d="M164.421 181.977H161.197C160.894 181.977 160.648 182.222 160.648 182.525V186.929C160.648 187.232 160.894 187.478 161.197 187.478H164.421C164.724 187.478 164.969 187.232 164.969 186.929V182.525C164.969 182.222 164.724 181.977 164.421 181.977Z" fill="black"/>
<path opacity="0.4" d="M190.508 151.64H187.367V155.651H190.508V151.64Z" fill="black"/>
<path opacity="0.2" d="M199.096 168.066H177.461V173.096H199.096V168.066Z" fill="black"/>
<path opacity="0.2" d="M155.963 153.643H148.566V161.039H155.963V153.643Z" fill="black"/>
<path d="M183.237 113.168H127.66V151.64H183.237V113.168Z" fill="#7933A1"/>
<path opacity="0.2" d="M153.449 113.168H127.66V151.64H153.449V113.168Z" fill="white"/>
<path opacity="0.2" d="M151.011 143.505H147.787C147.484 143.505 147.238 143.75 147.238 144.053V148.458C147.238 148.76 147.484 149.006 147.787 149.006H151.011C151.314 149.006 151.559 148.76 151.559 148.458V144.053C151.559 143.75 151.314 143.505 151.011 143.505Z" fill="black"/>
<path opacity="0.2" d="M145.198 143.505H141.974C141.671 143.505 141.426 143.75 141.426 144.053V148.458C141.426 148.76 141.671 149.006 141.974 149.006H145.198C145.501 149.006 145.747 148.76 145.747 148.458V144.053C145.747 143.75 145.501 143.505 145.198 143.505Z" fill="black"/>
<path opacity="0.4" d="M171.285 113.168H168.145V117.18H171.285V113.168Z" fill="black"/>
<path opacity="0.2" d="M179.873 129.594H158.238V134.624H179.873V129.594Z" fill="black"/>
<path opacity="0.2" d="M136.736 115.171H129.34V122.567H136.736V115.171Z" fill="black"/>
<path d="M198.132 190.112H142.555V228.584H198.132V190.112Z" fill="#263238"/>
<path opacity="0.2" d="M198.132 190.112H142.555V228.584H198.132V190.112Z" fill="white"/>
<path opacity="0.2" d="M168.344 190.112H142.555V228.584H168.344V190.112Z" fill="white"/>
<path opacity="0.2" d="M165.905 220.448H162.681C162.378 220.448 162.133 220.694 162.133 220.997V225.401C162.133 225.704 162.378 225.95 162.681 225.95H165.905C166.208 225.95 166.454 225.704 166.454 225.401V220.997C166.454 220.694 166.208 220.448 165.905 220.448Z" fill="black"/>
<path opacity="0.2" d="M160.089 220.448H156.865C156.562 220.448 156.316 220.694 156.316 220.997V225.401C156.316 225.704 156.562 225.95 156.865 225.95H160.089C160.392 225.95 160.637 225.704 160.637 225.401V220.997C160.637 220.694 160.392 220.448 160.089 220.448Z" fill="black"/>
<path opacity="0.4" d="M186.18 190.112H183.039V194.123H186.18V190.112Z" fill="black"/>
<path opacity="0.2" d="M194.768 206.538H173.133V211.568H194.768V206.538Z" fill="black"/>
<path opacity="0.2" d="M151.631 192.115H144.234V199.511H151.631V192.115Z" fill="black"/>
</svg>
