<svg width="296" height="296" viewBox="0 0 296 296" fill="none" xmlns="http://www.w3.org/2000/svg">
<path d="M296 226.381H0V226.529H296V226.381Z" fill="#EBEBEB"/>
<path d="M250.155 230.412H234.781V230.56H250.155V230.412Z" fill="#EBEBEB"/>
<path d="M186.871 231.478H181.727V231.626H186.871V231.478Z" fill="#EBEBEB"/>
<path d="M266.341 235.906H254.98V236.054H266.341V235.906Z" fill="#EBEBEB"/>
<path d="M40.6747 231.407H31.0547V231.555H40.6747V231.407Z" fill="#EBEBEB"/>
<path d="M65.6471 231.407H43.8438V231.555H65.6471V231.407Z" fill="#EBEBEB"/>
<path d="M174.841 233.905H119.383V234.053H174.841V233.905Z" fill="#EBEBEB"/>
<path d="M140.305 199.978H25.9955C25.1 199.976 24.2417 199.619 23.6091 198.986C22.9764 198.352 22.6211 197.493 22.6211 196.597V35.9108C22.6289 35.0204 22.9877 34.1691 23.6195 33.5417C24.2513 32.9143 25.1051 32.5616 25.9955 32.5601H140.305C141.201 32.5601 142.061 32.9162 142.695 33.5501C143.329 34.1841 143.685 35.0439 143.685 35.9404V196.597C143.685 197.494 143.329 198.354 142.695 198.988C142.061 199.622 141.201 199.978 140.305 199.978ZM25.9955 32.6785C25.1393 32.68 24.3186 33.0213 23.7137 33.6273C23.1088 34.2333 22.7691 35.0545 22.7691 35.9108V196.597C22.7691 197.454 23.1088 198.275 23.7137 198.881C24.3186 199.487 25.1393 199.828 25.9955 199.83H140.305C141.162 199.828 141.983 199.487 142.589 198.881C143.194 198.275 143.536 197.454 143.537 196.597V35.9108C143.536 35.054 143.194 34.2328 142.589 33.6269C141.983 33.0211 141.162 32.68 140.305 32.6785H25.9955Z" fill="#EBEBEB"/>
<path d="M268.36 199.978H154.044C153.148 199.976 152.289 199.619 151.656 198.986C151.022 198.352 150.666 197.493 150.664 196.597V35.9108C150.673 35.0199 151.033 34.1686 151.666 33.5414C152.299 32.9141 153.153 32.5616 154.044 32.5601H268.36C269.249 32.5631 270.101 32.9166 270.732 33.5438C271.362 34.171 271.72 35.0214 271.728 35.9108V196.597C271.728 197.492 271.374 198.35 270.742 198.983C270.111 199.617 269.254 199.975 268.36 199.978ZM154.044 32.6785C153.188 32.68 152.366 33.0211 151.761 33.6269C151.155 34.2328 150.814 35.054 150.812 35.9108V196.597C150.814 197.454 151.155 198.275 151.761 198.881C152.366 199.487 153.188 199.828 154.044 199.83H268.36C269.216 199.828 270.038 199.487 270.643 198.881C271.249 198.275 271.59 197.454 271.592 196.597V35.9108C271.59 35.054 271.249 34.2328 270.643 33.6269C270.038 33.0211 269.216 32.68 268.36 32.6785H154.044Z" fill="#EBEBEB"/>
<path d="M159.639 226.381H174.445V132.016H159.639V226.381Z" fill="#EBEBEB"/>
<path d="M162.457 226.381H159.645V213.671H165.405L162.457 226.381Z" fill="#F5F5F5"/>
<path d="M244.124 226.381H258.93V132.016H244.124V226.381Z" fill="#EBEBEB"/>
<path d="M159.637 218.584H246.578V132.016H159.637V218.584Z" fill="#F5F5F5"/>
<path d="M243.691 203.056H217.921C217.831 203.056 217.745 203.021 217.681 202.958C217.617 202.894 217.58 202.809 217.578 202.719V136.16C217.578 136.069 217.614 135.982 217.679 135.917C217.743 135.853 217.83 135.817 217.921 135.817H222.657C222.713 135.817 222.768 135.831 222.816 135.858C222.865 135.885 222.906 135.924 222.936 135.971C223.538 136.92 224.321 137.742 225.239 138.392C226.111 139.022 227.158 139.366 228.234 139.375H233.331C235.303 139.375 237.179 138.191 238.624 135.971C238.655 135.924 238.697 135.886 238.747 135.859C238.796 135.832 238.852 135.818 238.908 135.817H243.644C243.689 135.817 243.733 135.826 243.774 135.843C243.816 135.86 243.853 135.886 243.885 135.918C243.916 135.95 243.941 135.987 243.957 136.029C243.974 136.071 243.982 136.115 243.981 136.16V202.695C243.988 202.781 243.962 202.866 243.908 202.933C243.854 203 243.777 203.044 243.691 203.056ZM218.235 202.375H243.33V136.515H239.091C237.529 138.812 235.486 140.067 233.331 140.067H228.234C227.021 140.055 225.841 139.671 224.854 138.966C223.919 138.301 223.116 137.468 222.486 136.509H218.247L218.235 202.375Z" fill="#E6E6E6"/>
<path d="M215.996 203.056H190.226C190.136 203.056 190.05 203.021 189.985 202.958C189.921 202.894 189.884 202.809 189.883 202.719V136.16C189.883 136.069 189.919 135.982 189.983 135.917C190.048 135.853 190.135 135.817 190.226 135.817H194.725C194.782 135.818 194.837 135.832 194.886 135.859C194.936 135.886 194.978 135.924 195.01 135.971C195.609 136.921 196.389 137.744 197.306 138.392C198.18 139.021 199.226 139.364 200.302 139.375H205.423C207.388 139.375 209.271 138.191 210.715 135.971C210.745 135.924 210.786 135.885 210.835 135.858C210.883 135.831 210.938 135.817 210.994 135.817H216.02C216.064 135.817 216.109 135.826 216.15 135.843C216.191 135.86 216.229 135.886 216.26 135.918C216.292 135.95 216.316 135.987 216.333 136.029C216.35 136.071 216.358 136.115 216.357 136.16V202.695C216.361 202.743 216.354 202.792 216.337 202.837C216.32 202.883 216.293 202.924 216.259 202.958C216.225 202.992 216.184 203.019 216.138 203.036C216.093 203.053 216.044 203.06 215.996 203.056ZM190.54 202.375H215.635V136.515H211.13C209.567 138.812 207.53 140.067 205.375 140.067H200.278C199.065 140.055 197.885 139.671 196.898 138.966C195.963 138.301 195.16 137.468 194.53 136.509H190.564L190.54 202.375Z" fill="#E6E6E6"/>
<path d="M188.305 203.056H162.529C162.44 203.054 162.355 203.018 162.292 202.955C162.229 202.893 162.193 202.808 162.191 202.719V136.16C162.191 136.07 162.227 135.984 162.29 135.919C162.353 135.855 162.439 135.818 162.529 135.817H167.034C167.09 135.818 167.145 135.832 167.195 135.859C167.244 135.886 167.287 135.924 167.318 135.971C167.917 136.921 168.698 137.744 169.615 138.392C170.488 139.021 171.535 139.364 172.611 139.375H177.708C179.679 139.375 181.556 138.191 183.006 135.971C183.036 135.924 183.077 135.885 183.126 135.858C183.174 135.831 183.229 135.817 183.284 135.817H188.305C188.349 135.817 188.394 135.826 188.435 135.843C188.476 135.86 188.514 135.886 188.545 135.918C188.577 135.95 188.601 135.987 188.618 136.029C188.635 136.071 188.643 136.115 188.642 136.16V202.695C188.645 202.741 188.639 202.788 188.623 202.831C188.608 202.875 188.584 202.915 188.552 202.949C188.52 202.983 188.482 203.01 188.439 203.028C188.397 203.047 188.351 203.056 188.305 203.056ZM162.849 202.375H187.943V136.515H183.444C181.881 138.812 179.845 140.067 177.684 140.067H172.587C171.374 140.055 170.194 139.671 169.207 138.966C168.272 138.301 167.469 137.468 166.839 136.509H162.86L162.849 202.375Z" fill="#E6E6E6"/>
<path d="M243.768 226.381H246.58V213.671H240.82L243.768 226.381Z" fill="#F5F5F5"/>
<path d="M232.246 111.16H219.483C217.894 111.16 216.605 112.448 216.605 114.037V129.139C216.605 130.728 217.894 132.016 219.483 132.016H232.246C233.835 132.016 235.123 130.728 235.123 129.139V114.037C235.123 112.448 233.835 111.16 232.246 111.16Z" fill="#EBEBEB"/>
<path d="M240.932 115.973H231.116C229.894 115.973 228.902 116.964 228.902 118.187V129.802C228.902 131.025 229.894 132.016 231.116 132.016H240.932C242.155 132.016 243.146 131.025 243.146 129.802V118.187C243.146 116.964 242.155 115.973 240.932 115.973Z" fill="#F5F5F5"/>
<path d="M167.043 126.789C167.043 126.789 167.499 132.016 185.004 132.016C202.51 132.016 202.96 126.789 202.96 126.789H167.043Z" fill="#F0F0F0"/>
<path d="M99.6918 99.0476L239.066 99.0476V43.4351L99.6918 43.4351V99.0476Z" fill="#F0F0F0"/>
<path d="M89.9177 99.0476L237.367 99.0476V43.4351L89.9177 43.4351V99.0476Z" fill="#F5F5F5"/>
<path d="M94.3047 47.8159V94.6609L232.987 94.6609V47.8159L94.3047 47.8159Z" fill="white"/>
<path d="M88.3278 203.24H82.7867C82.8281 198.456 82.7867 174.024 82.4019 146.224C82.0585 120.454 81.4428 110.112 80.9219 106.187L85.3737 113.664C86.9188 119.519 89.5177 129.547 89.7131 135.704C90.4116 155.104 87.6944 182.893 88.3278 203.24Z" fill="#E6E6E6"/>
<path d="M92.5285 110.112C99.9108 96.1763 114.652 88.9006 129.718 82.0512C135.638 79.3635 119.032 112.717 106.961 127.836C97.5842 139.576 88.5207 139.315 85.7975 150.924C85.2765 137.468 86.1645 122.141 92.5285 110.112Z" fill="#E6E6E6"/>
<path d="M78.5162 133.709C72.0042 125.469 61.2061 123.355 50.26 121.609C45.968 120.916 60.916 140.849 70.7373 148.965C78.3859 155.276 84.4776 153.275 87.6093 160.805C86.4608 151.321 84.152 140.807 78.5162 133.709Z" fill="#E6E6E6"/>
<path d="M91.6896 149.462C96.7749 143.063 105.14 141.423 113.641 140.061C116.98 139.523 105.353 155.009 97.7339 161.32C91.8139 166.222 87.0779 164.665 84.6211 170.532C85.515 163.149 87.3088 154.98 91.6896 149.462Z" fill="#E6E6E6"/>
<path d="M81.2267 174.563C77.7221 170.236 72.0152 169.17 66.2136 168.3C63.9403 167.956 71.9382 178.423 77.1892 182.674C81.2622 185.971 84.4768 184.882 86.1699 188.86C85.5187 183.84 84.24 178.287 81.2267 174.563Z" fill="#E6E6E6"/>
<path d="M84.5305 110.651C80.4457 96.9874 64.3255 75.6814 47.7436 71.3006C41.2316 69.5778 64.6334 104.162 72.649 121.372C78.8887 134.769 84.7554 142.903 85.5902 152.505C89.7282 140.434 88.6094 124.32 84.5305 110.651Z" fill="#E6E6E6"/>
<path d="M84.1048 226.381C93.6537 226.381 101.551 224.966 102.096 215.429L103.688 199.131H64.5273L66.1198 215.429C66.6585 224.96 74.5499 226.381 84.1048 226.381Z" fill="#F0F0F0"/>
<path d="M61.9758 202.458H106.228L107.495 193.436H60.7148L61.9758 202.458Z" fill="#F0F0F0"/>
<path d="M148.002 253.116C211.394 253.116 262.785 250.115 262.785 246.414C262.785 242.713 211.394 239.713 148.002 239.713C84.6088 239.713 33.2188 242.713 33.2188 246.414C33.2188 250.115 84.6088 253.116 148.002 253.116Z" fill="#F5F5F5"/>
<path d="M179.97 155.773H259.89C264.307 155.736 268.543 154.009 271.727 150.948C274.912 147.886 276.805 143.722 277.016 139.309L278.745 96.3302C278.782 95.6402 278.677 94.9499 278.437 94.3019C278.198 93.654 277.827 93.0621 277.35 92.5628C276.872 92.0635 276.297 91.6674 275.66 91.399C275.024 91.1306 274.339 90.9955 273.648 91.0022H187.867C186.439 91.013 185.069 91.5719 184.041 92.5634C183.013 93.5549 182.406 94.9034 182.343 96.3302L180.609 139.309C180.399 143.721 178.508 147.886 175.324 150.947C172.14 154.009 167.905 155.736 163.488 155.773H179.97Z" fill="#7933A1"/>
<path opacity="0.7" d="M179.97 155.773H259.89C264.307 155.736 268.543 154.009 271.727 150.948C274.912 147.886 276.805 143.722 277.016 139.309L278.745 96.3302C278.782 95.6402 278.677 94.9499 278.437 94.3019C278.198 93.654 277.827 93.0621 277.35 92.5628C276.872 92.0635 276.297 91.6674 275.66 91.399C275.024 91.1306 274.339 90.9955 273.648 91.0022H187.867C186.439 91.013 185.069 91.5719 184.041 92.5634C183.013 93.5549 182.406 94.9034 182.343 96.3302L180.609 139.309C180.399 143.721 178.508 147.886 175.324 150.947C172.14 154.009 167.905 155.736 163.488 155.773H179.97Z" fill="white"/>
<path opacity="0.6" d="M265.276 109.976H194.585C194.356 109.978 194.129 109.933 193.918 109.843C193.707 109.753 193.517 109.621 193.36 109.454C193.202 109.287 193.081 109.09 193.004 108.874C192.926 108.658 192.895 108.429 192.91 108.2L193.1 103.6C193.121 103.133 193.321 102.692 193.658 102.368C193.995 102.044 194.444 101.862 194.911 101.86H265.602C265.828 101.858 266.051 101.902 266.26 101.99C266.468 102.077 266.656 102.207 266.812 102.37C266.968 102.533 267.09 102.726 267.169 102.937C267.248 103.149 267.282 103.374 267.271 103.6L267.088 108.2C267.072 108.672 266.876 109.12 266.538 109.451C266.201 109.782 265.749 109.97 265.276 109.976Z" fill="white"/>
<path opacity="0.6" d="M265.397 118.66H193.765C193.6 118.666 193.435 118.636 193.281 118.574C193.128 118.512 192.989 118.418 192.874 118.298C192.759 118.179 192.67 118.037 192.614 117.881C192.557 117.725 192.534 117.559 192.546 117.394L192.617 115.653C192.634 115.313 192.78 114.993 193.025 114.757C193.271 114.522 193.597 114.389 193.937 114.386H265.569C265.732 114.386 265.893 114.419 266.042 114.484C266.192 114.548 266.326 114.643 266.437 114.762C266.548 114.881 266.634 115.021 266.688 115.175C266.742 115.328 266.765 115.491 266.753 115.653L266.688 117.394C266.67 117.728 266.528 118.044 266.289 118.278C266.05 118.513 265.732 118.649 265.397 118.66Z" fill="white"/>
<path opacity="0.6" d="M265.138 125.161H193.506C193.34 125.165 193.175 125.135 193.022 125.072C192.869 125.009 192.731 124.914 192.616 124.794C192.502 124.674 192.414 124.532 192.358 124.375C192.302 124.219 192.28 124.053 192.292 123.888L192.363 122.147C192.379 121.808 192.523 121.488 192.768 121.252C193.012 121.016 193.338 120.883 193.678 120.88H265.31C265.472 120.88 265.633 120.913 265.783 120.978C265.932 121.042 266.067 121.137 266.178 121.256C266.289 121.375 266.374 121.515 266.429 121.669C266.483 121.822 266.505 121.985 266.494 122.147L266.423 123.888C266.409 124.223 266.269 124.541 266.031 124.777C265.793 125.013 265.473 125.15 265.138 125.161Z" fill="white"/>
<path d="M246.359 75.5392C245.889 74.4694 245.312 73.4499 244.637 72.4963L245.122 72.153C245.821 73.1388 246.416 74.1942 246.898 75.3024L246.359 75.5392Z" fill="#7933A1"/>
<path d="M247.791 83.2201L247.363 93.6365L247.955 93.6607L248.382 83.2444L247.791 83.2201Z" fill="#7933A1"/>
<path d="M244.04 139.309L246.301 83.2352C246.406 81.1014 246.074 78.9687 245.326 76.9677C244.577 74.9667 243.428 73.1395 241.949 71.5982C240.47 70.0568 238.691 68.8337 236.723 68.0038C234.754 67.1739 232.637 66.7546 230.5 66.7717H134.141C136.277 66.7537 138.395 67.1724 140.364 68.002C142.333 68.8317 144.112 70.0548 145.591 71.5963C147.07 73.1378 148.219 74.9653 148.967 76.9667C149.715 78.9681 150.047 81.1012 149.941 83.2352L147.686 139.309C147.319 148.403 158.732 155.773 167.814 155.773H259.84C257.703 155.791 255.586 155.372 253.617 154.543C251.648 153.713 249.869 152.49 248.39 150.948C246.91 149.407 245.761 147.579 245.013 145.578C244.265 143.577 243.934 141.443 244.04 139.309Z" fill="#7933A1"/>
<path d="M226.546 192.933H102.753C102.06 192.938 101.374 192.803 100.736 192.535C100.097 192.266 99.52 191.871 99.0393 191.372C98.5586 190.874 98.1843 190.283 97.9393 189.635C97.6944 188.987 97.5838 188.297 97.6143 187.605L101.107 100.942C101.181 99.5119 101.798 98.1641 102.832 97.1738C103.867 96.1836 105.24 95.6256 106.672 95.6139H230.465C231.158 95.6084 231.844 95.7439 232.482 96.0122C233.121 96.2805 233.698 96.6759 234.179 97.1743C234.659 97.6728 235.034 98.2638 235.279 98.9116C235.524 99.5593 235.634 100.25 235.604 100.942L232.117 187.605C232.04 189.035 231.421 190.382 230.386 191.372C229.351 192.362 227.978 192.92 226.546 192.933Z" fill="white"/>
<path d="M226.546 193.229H102.753C102.019 193.234 101.291 193.089 100.615 192.803C99.9385 192.518 99.3274 192.097 98.8189 191.567C98.3103 191.038 97.915 190.41 97.6571 189.723C97.3991 189.035 97.2839 188.303 97.3185 187.569L100.811 100.906C100.884 99.3962 101.531 97.971 102.621 96.9231C103.711 95.8751 105.16 95.2839 106.672 95.2705H230.465C231.2 95.2639 231.928 95.4076 232.605 95.6926C233.283 95.9776 233.894 96.398 234.403 96.928C234.912 97.4579 235.307 98.0863 235.565 98.7745C235.822 99.4627 235.936 100.196 235.9 100.93L232.413 187.593C232.34 189.104 231.692 190.53 230.601 191.578C229.51 192.626 228.059 193.217 226.546 193.229ZM106.672 95.8625C105.313 95.876 104.011 96.4081 103.032 97.3501C102.052 98.2921 101.47 99.5727 101.403 100.93L97.9105 187.593C97.8782 188.247 97.9799 188.9 98.2092 189.514C98.4385 190.127 98.7907 190.687 99.2441 191.159C99.6975 191.631 100.243 192.006 100.846 192.26C101.449 192.514 102.098 192.642 102.753 192.637H226.546C227.906 192.625 229.21 192.093 230.191 191.151C231.171 190.209 231.754 188.927 231.821 187.569L235.308 100.906C235.34 100.252 235.238 99.5988 235.009 98.9856C234.78 98.3723 234.428 97.8124 233.974 97.3401C233.521 96.8679 232.976 96.4932 232.372 96.2391C231.769 95.985 231.12 95.8568 230.465 95.8625H106.672Z" fill="#7933A1"/>
<path d="M226.979 100.32H109.763C108.75 100.328 107.78 100.723 107.05 101.425C106.32 102.126 105.886 103.08 105.838 104.091L103.008 174.492H227.766L230.602 104.091C230.626 103.602 230.55 103.113 230.378 102.655C230.207 102.196 229.943 101.777 229.604 101.424C229.265 101.071 228.857 100.791 228.405 100.601C227.954 100.411 227.468 100.316 226.979 100.32Z" fill="#7933A1"/>
<path opacity="0.3" d="M120.726 95.2705L117.926 164.913C117.904 165.375 117.976 165.835 118.139 166.268C118.302 166.7 118.551 167.094 118.871 167.427C119.191 167.759 119.576 168.023 120.002 168.202C120.428 168.38 120.886 168.47 121.347 168.465H210.574C211.528 168.459 212.444 168.087 213.133 167.427C213.823 166.766 214.233 165.867 214.28 164.913L217.086 95.2705H120.726Z" fill="black"/>
<path d="M214.035 66.7716H134.115C129.698 66.8075 125.462 68.5338 122.278 71.5957C119.094 74.6576 117.203 78.8226 116.995 83.2351L113.656 166.115C113.635 166.576 113.708 167.037 113.871 167.468C114.034 167.9 114.283 168.294 114.603 168.627C114.923 168.959 115.308 169.223 115.733 169.402C116.159 169.58 116.616 169.671 117.078 169.667H206.328C207.282 169.659 208.197 169.287 208.886 168.627C209.575 167.967 209.985 167.068 210.033 166.115L213.372 83.2351C213.584 78.8226 215.476 74.6583 218.661 71.5969C221.846 68.5354 226.081 66.8089 230.499 66.7716H214.035Z" fill="#7933A1"/>
<path opacity="0.7" d="M214.035 66.7716H134.115C129.698 66.8075 125.462 68.5338 122.278 71.5957C119.094 74.6576 117.203 78.8226 116.995 83.2351L113.656 166.115C113.635 166.576 113.708 167.037 113.871 167.468C114.034 167.9 114.283 168.294 114.603 168.627C114.923 168.959 115.308 169.223 115.733 169.402C116.159 169.58 116.616 169.671 117.078 169.667H206.328C207.282 169.659 208.197 169.287 208.886 168.627C209.575 167.967 209.985 167.068 210.033 166.115L213.372 83.2351C213.584 78.8226 215.476 74.6583 218.661 71.5969C221.846 68.5354 226.081 66.8089 230.499 66.7716H214.035Z" fill="white"/>
<path d="M232.654 174.788H98.1397C98.0612 174.788 97.986 174.757 97.9305 174.701C97.8749 174.646 97.8438 174.571 97.8438 174.492C97.8438 174.414 97.8749 174.338 97.9305 174.283C97.986 174.227 98.0612 174.196 98.1397 174.196H232.654C232.732 174.196 232.808 174.227 232.863 174.283C232.919 174.338 232.95 174.414 232.95 174.492C232.95 174.571 232.919 174.646 232.863 174.701C232.808 174.757 232.732 174.788 232.654 174.788Z" fill="#7933A1"/>
<path opacity="0.1" d="M204.708 123.977H122.42C122.16 123.979 121.902 123.927 121.661 123.826C121.421 123.725 121.204 123.576 121.024 123.388C120.843 123.2 120.703 122.978 120.611 122.734C120.519 122.49 120.478 122.23 120.49 121.97L121.763 90.4576C121.789 89.9209 122.019 89.4144 122.407 89.0423C122.794 88.6701 123.31 88.4606 123.847 88.4566H206.135C206.395 88.4539 206.653 88.5044 206.893 88.6049C207.133 88.7054 207.35 88.8539 207.531 89.0413C207.712 89.2286 207.852 89.4508 207.944 89.6944C208.036 89.9379 208.077 90.1976 208.065 90.4576L206.792 121.952C206.772 122.493 206.545 123.005 206.156 123.382C205.768 123.76 205.249 123.972 204.708 123.977Z" fill="#7933A1"/>
<path opacity="0.6" d="M167.535 159.497H120.974C120.712 159.499 120.453 159.447 120.212 159.345C119.971 159.242 119.753 159.092 119.573 158.902C119.393 158.712 119.253 158.487 119.163 158.241C119.073 157.995 119.035 157.733 119.05 157.472L120.175 129.861C120.203 129.329 120.433 128.827 120.818 128.457C121.203 128.088 121.714 127.879 122.247 127.872H168.831C169.092 127.87 169.35 127.921 169.589 128.023C169.829 128.124 170.046 128.273 170.226 128.461C170.406 128.649 170.546 128.871 170.637 129.115C170.728 129.359 170.768 129.619 170.755 129.879L169.648 157.472C169.626 158.017 169.393 158.532 168.999 158.909C168.605 159.287 168.08 159.497 167.535 159.497Z" fill="#7933A1"/>
<path d="M149.777 143.672L141.039 138.51L140.625 148.841L149.777 143.672Z" fill="white"/>
<path d="M203.273 159.497H175.651C175.39 159.498 175.132 159.447 174.892 159.346C174.652 159.245 174.435 159.096 174.254 158.908C174.074 158.72 173.933 158.498 173.842 158.254C173.75 158.01 173.709 157.75 173.721 157.49L174.834 129.861C174.861 129.323 175.092 128.816 175.481 128.443C175.869 128.07 176.385 127.86 176.924 127.854H204.546C204.807 127.852 205.065 127.903 205.305 128.005C205.545 128.106 205.762 128.255 205.943 128.443C206.123 128.63 206.264 128.853 206.355 129.097C206.447 129.341 206.488 129.601 206.476 129.861L205.363 157.472C205.342 158.013 205.113 158.526 204.724 158.903C204.335 159.28 203.815 159.492 203.273 159.497Z" fill="white"/>
<path opacity="0.3" d="M177.376 155.045L178.294 132.306C178.304 132.066 178.406 131.839 178.579 131.671C178.752 131.504 178.982 131.409 179.223 131.406H201.968C202.084 131.406 202.199 131.43 202.306 131.475C202.413 131.521 202.51 131.588 202.59 131.672C202.67 131.756 202.732 131.856 202.773 131.965C202.814 132.074 202.832 132.19 202.826 132.306L201.908 155.045C201.899 155.286 201.798 155.514 201.624 155.681C201.451 155.849 201.22 155.943 200.979 155.945H178.234C178.118 155.945 178.003 155.921 177.896 155.876C177.789 155.83 177.693 155.763 177.612 155.679C177.532 155.595 177.47 155.495 177.429 155.386C177.388 155.277 177.37 155.161 177.376 155.045Z" fill="#7933A1"/>
<path d="M194.407 145.022L193.164 147.011L189.103 139.564L178.855 155.945H200.363L194.407 145.022Z" fill="#7933A1"/>
<path d="M200.202 136.693C200.172 137.457 199.846 138.18 199.295 138.71C198.743 139.239 198.007 139.535 197.242 139.534C196.874 139.537 196.509 139.465 196.169 139.322C195.829 139.178 195.523 138.967 195.268 138.701C195.013 138.435 194.815 138.12 194.686 137.774C194.557 137.429 194.5 137.061 194.519 136.693C194.551 135.93 194.877 135.208 195.429 134.68C195.98 134.151 196.715 133.856 197.479 133.857C197.847 133.854 198.212 133.927 198.551 134.07C198.89 134.212 199.196 134.423 199.451 134.689C199.706 134.954 199.904 135.269 200.033 135.613C200.163 135.958 200.22 136.325 200.202 136.693Z" fill="white"/>
<path d="M62.3408 81.4946C63.0867 84.946 63.8859 91.2804 61.4883 93.6721C63.4182 95.4836 65.9283 97.5674 70.0664 97.5793C74.2044 97.5911 73.4289 94.785 72.31 93.3228C68.4147 92.5236 68.462 89.6524 69.0896 86.9351L62.3408 81.4946Z" fill="#FF8B7B"/>
<path d="M60.8616 100.184C59.3875 103.144 57.9016 106.187 56.4512 109.194C55.0008 112.202 53.6096 115.233 52.3842 118.252C52.2243 118.625 52.0823 119.004 51.9402 119.377L51.5909 120.306C51.4476 120.757 51.3914 121.231 51.4251 121.703C51.5467 123.104 51.8635 124.481 52.3664 125.794C53.5223 128.806 54.9262 131.717 56.5637 134.496L53.7754 136.752C51.2056 134.195 49.0129 131.284 47.2634 128.109C46.291 126.349 45.6074 124.444 45.2387 122.467C45.0237 121.251 45.0417 120.006 45.292 118.797L45.4104 118.293C45.4578 118.122 45.4815 118.057 45.517 117.938L45.7123 117.293C45.8426 116.861 45.9669 116.429 46.109 116.008C47.2219 112.628 48.5303 109.408 49.9215 106.228C51.3127 103.049 52.8282 99.9414 54.4621 96.8512L60.8616 100.184Z" fill="#FF8B7B"/>
<path d="M55.7123 93.9859C51.3611 95.3475 48.7148 104.642 48.7148 104.642L57.6718 112.16C59.3912 108.796 60.8901 105.324 62.1592 101.765C64.2667 95.7027 60.9752 92.352 55.7123 93.9859Z" fill="#7933A1"/>
<g opacity="0.2">
<path d="M55.7123 93.9859C51.3611 95.3475 48.7148 104.642 48.7148 104.642L57.6718 112.16C59.3912 108.796 60.8901 105.324 62.1592 101.765C64.2667 95.7027 60.9752 92.352 55.7123 93.9859Z" fill="black"/>
</g>
<path d="M55.5821 133.425L59.1341 136.699L54.3153 139.712C54.3153 139.712 51.4263 136.355 52.9063 134.538L55.5821 133.425Z" fill="#FF8B7B"/>
<path d="M59.5023 141.725L57.6257 142.488C57.2585 142.634 56.8513 142.645 56.477 142.518C56.1028 142.391 55.786 142.135 55.5833 141.796L54.3164 139.712L59.159 136.693L60.343 139.505C60.4356 139.705 60.4873 139.922 60.4951 140.143C60.5029 140.364 60.4666 140.584 60.3883 140.791C60.3101 140.998 60.1914 141.187 60.0393 141.347C59.8872 141.507 59.7046 141.636 59.5023 141.725Z" fill="#FF8B7B"/>
<path d="M78.0004 93.5775C70.9556 92.3935 62.3657 92.0146 55.8004 93.8853C54.936 94.1383 54.2031 94.7159 53.755 95.4972C53.307 96.2785 53.1787 97.2028 53.3969 98.0766C57.3514 115.185 56.2089 132.466 56.5937 136.124L82.0023 135.716C83.2574 114.795 81.8247 101.812 81.0314 96.644C80.9109 95.8799 80.5536 95.1728 80.0097 94.6226C79.4659 94.0724 78.7631 93.7069 78.0004 93.5775Z" fill="#7933A1"/>
<path d="M79.8782 95.9987C82.1042 98.1239 84.3952 100.291 86.6744 102.38C87.8189 103.434 88.9674 104.458 90.1198 105.453C91.2624 106.447 92.4346 107.412 93.5653 108.229C94.0499 108.592 94.5582 108.923 95.0867 109.218L95.2288 109.295H95.2998H95.3354H95.2347H95.0749C94.9032 109.295 94.9624 109.348 95.0749 109.325C95.5731 109.204 96.0487 109.004 96.4838 108.733C97.0978 108.415 97.6945 108.065 98.2717 107.685C100.711 105.874 103.055 103.938 105.293 101.883L108.075 104.115C107.228 105.54 106.293 106.91 105.275 108.218C104.253 109.567 103.133 110.839 101.924 112.024C101.281 112.662 100.595 113.256 99.8701 113.8C99.0108 114.46 98.0619 114.994 97.0522 115.387C96.3118 115.659 95.5261 115.788 94.7374 115.766C94.4855 115.756 94.2343 115.73 93.9856 115.689L93.6008 115.6L93.3522 115.529L92.8608 115.369L92.4523 115.203C91.5531 114.812 90.6861 114.351 89.8594 113.824C87.0644 111.989 84.4036 109.957 81.897 107.744C79.4402 105.607 77.1018 103.434 74.793 101.108L79.8782 95.9987Z" fill="#FF8B7B"/>
<path d="M71.9372 97.9167C71.3038 102.434 82.0012 111.047 82.0012 111.047L87.7614 102.215C87.7614 102.215 86.5774 99.9591 82.3091 95.9572C77.9283 91.8487 72.6358 92.9439 71.9372 97.9167Z" fill="#7933A1"/>
<path opacity="0.6" d="M193.661 116.47L111.539 121.851C111.28 121.87 111.019 121.835 110.773 121.75C110.527 121.664 110.301 121.53 110.109 121.354C109.917 121.179 109.762 120.966 109.655 120.729C109.548 120.491 109.49 120.235 109.485 119.975L108.692 88.4506C108.683 87.9132 108.879 87.3926 109.241 86.9954C109.603 86.5981 110.103 86.3542 110.639 86.3135L192.768 80.9322C193.027 80.9137 193.287 80.9482 193.533 81.0338C193.778 81.1193 194.004 81.254 194.196 81.4296C194.387 81.6053 194.541 81.8182 194.648 82.0553C194.755 82.2925 194.812 82.5489 194.816 82.8089L195.615 114.333C195.624 114.871 195.427 115.393 195.063 115.79C194.7 116.187 194.198 116.431 193.661 116.47Z" fill="white"/>
<path d="M152.219 97.8516L153.332 99.9236C153.344 99.9496 153.363 99.9717 153.387 99.9874C153.411 100.003 153.439 100.012 153.468 100.012L155.836 100.202C155.87 100.204 155.902 100.217 155.929 100.237C155.956 100.257 155.977 100.285 155.989 100.317C156.001 100.349 156.003 100.383 155.996 100.416C155.989 100.449 155.972 100.48 155.949 100.504L154.279 102.28C154.259 102.302 154.244 102.328 154.236 102.357C154.227 102.386 154.226 102.416 154.232 102.445L154.694 104.772C154.7 104.805 154.698 104.84 154.686 104.872C154.675 104.904 154.655 104.932 154.629 104.954C154.603 104.976 154.572 104.99 154.538 104.996C154.505 105.001 154.471 104.997 154.439 104.985L152.296 104.008C152.27 103.995 152.242 103.989 152.213 103.989C152.184 103.989 152.156 103.995 152.13 104.008L150.046 105.258C150.018 105.274 149.986 105.283 149.953 105.282C149.92 105.281 149.888 105.271 149.86 105.254C149.833 105.236 149.811 105.211 149.797 105.181C149.782 105.151 149.777 105.118 149.78 105.086L150.123 102.718C150.128 102.69 150.126 102.661 150.117 102.634C150.108 102.607 150.091 102.583 150.07 102.564L148.294 101.007C148.27 100.983 148.253 100.953 148.244 100.92C148.236 100.886 148.236 100.852 148.246 100.819C148.256 100.786 148.274 100.757 148.299 100.733C148.324 100.71 148.355 100.694 148.389 100.687L150.757 100.19C150.786 100.183 150.813 100.17 150.837 100.152C150.86 100.133 150.879 100.11 150.893 100.083L151.893 97.8693C151.905 97.8368 151.927 97.8085 151.955 97.7879C151.982 97.7673 152.016 97.7553 152.05 97.7534C152.085 97.7515 152.119 97.7598 152.149 97.7773C152.179 97.7947 152.204 97.8205 152.219 97.8516Z" fill="#7933A1"/>
<path d="M166.553 96.9103L167.66 98.9883C167.676 99.0127 167.697 99.0333 167.721 99.0487C167.746 99.064 167.773 99.0737 167.802 99.0771L170.17 99.2665C170.203 99.2701 170.235 99.2831 170.261 99.3039C170.287 99.3246 170.307 99.3524 170.318 99.384C170.33 99.4155 170.332 99.4496 170.324 99.4822C170.317 99.5148 170.3 99.5447 170.277 99.5684L168.613 101.344C168.593 101.365 168.578 101.391 168.57 101.418C168.561 101.446 168.56 101.476 168.566 101.504L169.028 103.837C169.034 103.87 169.03 103.905 169.018 103.937C169.006 103.969 168.986 103.997 168.959 104.018C168.932 104.039 168.9 104.053 168.867 104.057C168.833 104.062 168.799 104.057 168.767 104.044L166.63 103.067C166.604 103.054 166.576 103.047 166.547 103.047C166.518 103.047 166.49 103.054 166.464 103.067L164.38 104.322C164.352 104.339 164.319 104.348 164.285 104.347C164.252 104.346 164.219 104.336 164.191 104.317C164.164 104.299 164.142 104.273 164.128 104.242C164.114 104.211 164.109 104.178 164.114 104.145L164.457 101.777C164.461 101.747 164.458 101.717 164.447 101.689C164.437 101.662 164.42 101.637 164.398 101.617L162.652 100.048C162.627 100.025 162.609 99.9956 162.6 99.9632C162.591 99.9307 162.592 99.8964 162.601 99.864C162.61 99.8316 162.628 99.8024 162.652 99.7795C162.677 99.7566 162.708 99.7409 162.741 99.7342L165.109 99.2369C165.138 99.2307 165.165 99.2172 165.188 99.1975C165.211 99.1778 165.228 99.1527 165.239 99.1244L166.239 96.9163C166.255 96.889 166.278 96.8663 166.305 96.8503C166.332 96.8343 166.363 96.8256 166.395 96.825C166.426 96.8244 166.457 96.8319 166.485 96.8469C166.513 96.8618 166.536 96.8837 166.553 96.9103Z" fill="#7933A1"/>
<path d="M180.885 95.969L181.992 98.0469C182.005 98.0722 182.025 98.0936 182.049 98.1092C182.072 98.1247 182.1 98.1339 182.128 98.1357L184.496 98.3252C184.53 98.3278 184.562 98.34 184.589 98.3604C184.616 98.3808 184.637 98.4085 184.649 98.4402C184.661 98.472 184.663 98.5064 184.656 98.5395C184.649 98.5726 184.633 98.603 184.609 98.6271L182.939 100.403C182.919 100.425 182.904 100.451 182.896 100.48C182.888 100.509 182.886 100.539 182.892 100.569L183.354 102.895C183.361 102.929 183.359 102.963 183.348 102.996C183.337 103.028 183.317 103.056 183.29 103.078C183.264 103.099 183.232 103.113 183.198 103.117C183.165 103.122 183.13 103.117 183.099 103.103L180.962 102.132C180.936 102.117 180.906 102.11 180.876 102.11C180.846 102.11 180.817 102.117 180.79 102.132L178.707 103.381C178.678 103.397 178.646 103.406 178.613 103.405C178.58 103.404 178.548 103.395 178.521 103.377C178.493 103.359 178.471 103.334 178.457 103.304C178.442 103.275 178.437 103.242 178.44 103.209L178.784 100.841C178.789 100.813 178.786 100.784 178.777 100.757C178.768 100.73 178.752 100.706 178.73 100.687L176.954 99.1303C176.93 99.1062 176.913 99.076 176.904 99.0429C176.896 99.0097 176.897 98.975 176.906 98.9422C176.916 98.9094 176.934 98.8799 176.959 98.8567C176.985 98.8336 177.016 98.8176 177.049 98.8106L179.417 98.3133C179.446 98.3072 179.474 98.2944 179.497 98.2759C179.521 98.2575 179.54 98.2338 179.553 98.2068L180.554 95.9927C180.566 95.9601 180.588 95.9318 180.616 95.9111C180.644 95.8903 180.677 95.878 180.712 95.8755C180.747 95.873 180.781 95.8805 180.812 95.897C180.843 95.9136 180.868 95.9386 180.885 95.969Z" fill="#7933A1"/>
<path d="M137.893 98.787L139 100.865C139.016 100.889 139.036 100.91 139.061 100.925C139.086 100.941 139.113 100.95 139.142 100.954L141.51 101.143C141.543 101.147 141.575 101.16 141.601 101.181C141.627 101.201 141.647 101.229 141.658 101.261C141.669 101.292 141.671 101.326 141.664 101.359C141.657 101.391 141.64 101.421 141.617 101.445L139.953 103.221C139.933 103.242 139.918 103.267 139.909 103.295C139.901 103.323 139.9 103.352 139.906 103.381L140.367 105.713C140.373 105.747 140.37 105.781 140.358 105.813C140.346 105.845 140.326 105.873 140.299 105.894C140.272 105.916 140.24 105.929 140.207 105.934C140.173 105.938 140.138 105.934 140.107 105.921L137.97 104.944C137.944 104.931 137.916 104.924 137.887 104.924C137.858 104.924 137.83 104.931 137.804 104.944L135.72 106.199C135.692 106.216 135.658 106.224 135.625 106.224C135.592 106.223 135.559 106.212 135.531 106.194C135.503 106.175 135.481 106.149 135.468 106.119C135.454 106.088 135.449 106.054 135.454 106.021L135.797 103.653C135.801 103.624 135.798 103.594 135.787 103.566C135.777 103.538 135.76 103.513 135.738 103.493L133.992 101.936C133.967 101.913 133.949 101.884 133.94 101.852C133.931 101.819 133.931 101.785 133.941 101.753C133.95 101.72 133.968 101.691 133.992 101.668C134.017 101.645 134.047 101.629 134.08 101.623L136.448 101.125C136.477 101.118 136.503 101.105 136.526 101.087C136.548 101.068 136.566 101.045 136.579 101.019L137.579 98.8048C137.594 98.7768 137.616 98.7532 137.642 98.7361C137.669 98.719 137.699 98.7091 137.731 98.7073C137.763 98.7055 137.794 98.7119 137.822 98.7259C137.851 98.7399 137.875 98.7609 137.893 98.787Z" fill="#7933A1"/>
<path d="M123.56 99.7283L124.673 101.8C124.685 101.827 124.704 101.849 124.728 101.865C124.752 101.881 124.78 101.889 124.809 101.889L127.177 102.078C127.211 102.082 127.242 102.095 127.268 102.116C127.295 102.137 127.314 102.164 127.326 102.196C127.337 102.227 127.339 102.262 127.331 102.294C127.324 102.327 127.307 102.357 127.284 102.38L125.62 104.156C125.6 104.178 125.585 104.205 125.577 104.234C125.568 104.262 125.567 104.293 125.573 104.322L126.035 106.655C126.04 106.687 126.037 106.721 126.025 106.752C126.013 106.783 125.993 106.811 125.967 106.832C125.941 106.853 125.911 106.867 125.878 106.872C125.845 106.877 125.811 106.874 125.78 106.862L123.637 105.885C123.611 105.872 123.583 105.865 123.554 105.865C123.525 105.865 123.497 105.872 123.471 105.885L121.388 107.152C121.36 107.171 121.327 107.182 121.293 107.182C121.259 107.183 121.226 107.173 121.197 107.155C121.169 107.137 121.146 107.11 121.133 107.079C121.119 107.048 121.115 107.014 121.121 106.98L121.464 104.612C121.47 104.584 121.467 104.555 121.458 104.528C121.449 104.501 121.433 104.477 121.411 104.458L119.635 102.901C119.611 102.878 119.593 102.848 119.584 102.815C119.576 102.782 119.576 102.748 119.586 102.715C119.596 102.683 119.614 102.654 119.64 102.631C119.665 102.609 119.696 102.593 119.73 102.588L122.098 102.084C122.127 102.079 122.154 102.067 122.177 102.048C122.2 102.03 122.217 102.005 122.228 101.978L123.235 99.7638C123.245 99.7302 123.264 99.7004 123.291 99.678C123.318 99.6555 123.351 99.6416 123.386 99.6378C123.42 99.634 123.455 99.6405 123.487 99.6566C123.518 99.6727 123.543 99.6976 123.56 99.7283Z" fill="#7933A1"/>
<path d="M104.688 102.534L107.967 98.2128L111.602 102.268C111.602 102.268 109.518 105.944 106.162 104.956L104.688 102.534Z" fill="#FF8B7B"/>
<path d="M112.681 96.6972L113.634 99.0652C113.717 99.2613 113.742 99.4768 113.706 99.6865C113.67 99.8962 113.576 100.091 113.433 100.249L111.604 102.28L107.969 98.2246L111.083 96.1822C111.218 96.0947 111.37 96.0384 111.53 96.0173C111.689 95.9962 111.851 96.0108 112.004 96.0601C112.157 96.1095 112.297 96.1922 112.414 96.3024C112.532 96.4126 112.623 96.5475 112.681 96.6972Z" fill="#FF8B7B"/>
<path d="M74.1926 77.2679C74.1926 77.6527 74.4294 77.9546 74.678 77.9487C74.9266 77.9427 75.1161 77.6231 75.0983 77.2383C75.0806 76.8535 74.8615 76.5515 74.6129 76.5575C74.3642 76.5634 74.1748 76.8831 74.1926 77.2679Z" fill="#263238"/>
<path d="M74.4414 77.552C74.9552 78.7077 75.6223 79.7889 76.4246 80.7666C76.1709 80.9629 75.877 81.1008 75.5639 81.1704C75.2507 81.24 74.9261 81.2395 74.6131 81.1691L74.4414 77.552Z" fill="#FF5652"/>
<path d="M73.4061 75.2964C73.4422 75.3004 73.4787 75.2948 73.5119 75.2803C73.5452 75.2657 73.574 75.2427 73.5956 75.2135C73.7613 74.9882 73.9794 74.8068 74.2312 74.6851C74.4829 74.5634 74.7606 74.5049 75.0401 74.5149C75.0696 74.5174 75.0994 74.5139 75.1276 74.5048C75.1558 74.4957 75.182 74.4811 75.2045 74.4618C75.2271 74.4426 75.2456 74.4191 75.259 74.3926C75.2725 74.3662 75.2805 74.3373 75.2828 74.3077C75.2846 74.2478 75.2636 74.1895 75.224 74.1444C75.1845 74.0994 75.1293 74.071 75.0697 74.065C74.7173 74.0484 74.3662 74.1185 74.0473 74.2692C73.7283 74.4199 73.4513 74.6466 73.2404 74.9293C73.216 74.9624 73.2009 75.0013 73.1966 75.042C73.1923 75.0828 73.1989 75.124 73.2158 75.1614C73.2327 75.1988 73.2592 75.231 73.2926 75.2547C73.3261 75.2784 73.3653 75.2928 73.4061 75.2964Z" fill="#263238"/>
<path d="M61.2897 76.2673C61.7988 80.9619 61.8817 83.7324 64.3444 86.0649C68.0918 89.5814 73.8164 87.2489 74.6985 82.5129C75.5095 78.2564 74.5386 71.2649 69.85 69.5718C68.8284 69.1806 67.723 69.0603 66.6412 69.2227C65.5594 69.3852 64.538 69.8247 63.6763 70.4987C62.8146 71.1726 62.142 72.0581 61.7238 73.0689C61.3056 74.0797 61.156 75.1816 61.2897 76.2673Z" fill="#FF8B7B"/>
<path d="M70.7075 78.9313C71.2995 80.7428 70.0503 84.6204 69.6596 85.8044C69.2689 86.9884 67.6172 88.0303 64.7224 87.758C64.2183 87.7243 63.7263 87.589 63.2759 87.3602C62.8254 87.1314 62.4259 86.814 62.1013 86.4269C61.7767 86.0398 61.5337 85.5911 61.387 85.1077C61.2402 84.6243 61.1927 84.1162 61.2473 83.614C59.9567 83.4187 58.5715 81.0566 58.6425 79.4167C58.7135 77.7769 56.2745 76.0719 55.9785 74.4735C55.6825 72.8751 57.0263 70.6551 58.8023 71.774C57.6539 70.59 57.5532 67.63 61.0756 67.038C63.8876 66.594 66.7943 68.0918 68.967 67.2393C71.1396 66.3868 74.0167 65.8244 74.6502 67.5649C75.8342 66.8723 77.6102 68.2575 77.0182 70.3947C76.4262 72.5318 72.0868 73.7809 72.0868 73.7809C72.0868 73.7809 73.703 77.9782 70.7075 78.9313Z" fill="#263238"/>
<path d="M59.0678 72.7153C58.9809 72.7155 58.8949 72.6964 58.8161 72.6596C58.7373 72.6228 58.6676 72.569 58.612 72.5022C57.5345 71.1998 56.1019 68.1332 58.3515 65.854C58.4624 65.7438 58.6125 65.6819 58.7689 65.6819C58.9253 65.6819 59.0753 65.7438 59.1862 65.854C59.2417 65.9091 59.2858 65.9745 59.3158 66.0467C59.3459 66.1188 59.3613 66.1962 59.3613 66.2744C59.3613 66.3525 59.3459 66.4299 59.3158 66.502C59.2858 66.5742 59.2417 66.6396 59.1862 66.6947C57.1261 68.7785 59.4171 71.6379 59.5177 71.7563C59.588 71.8429 59.6324 71.9476 59.6457 72.0583C59.6591 72.169 59.6409 72.2813 59.5933 72.3821C59.5457 72.4829 59.4705 72.5683 59.3765 72.6283C59.2825 72.6883 59.1734 72.7205 59.0619 72.7212L59.0678 72.7153Z" fill="#263238"/>
<path d="M59.5971 73.3429C59.5081 73.3424 59.4204 73.322 59.3405 73.2831C59.2606 73.2441 59.1904 73.1877 59.1353 73.1179C59.0347 72.9995 56.714 70.1579 54.2454 71.7563C54.1127 71.8411 53.9518 71.8697 53.798 71.8358C53.6443 71.802 53.5102 71.7084 53.4255 71.5757C53.3407 71.4431 53.3121 71.2821 53.3459 71.1284C53.3798 70.9746 53.4733 70.8406 53.606 70.7558C56.2996 69.0272 59.0051 71.0637 60.0588 72.3779C60.1077 72.4388 60.144 72.5088 60.1657 72.5838C60.1873 72.6588 60.194 72.7374 60.1852 72.815C60.1764 72.8926 60.1523 72.9676 60.1144 73.0359C60.0764 73.1041 60.0253 73.1642 59.9641 73.2126C59.8599 73.2962 59.7306 73.3421 59.5971 73.3429Z" fill="#263238"/>
<path d="M68.2043 79.4227C68.5656 80.415 69.3008 81.2267 70.2527 81.6841C71.5195 82.2761 72.372 81.2223 72.2003 79.9081C72.0523 78.7241 71.2058 77.0073 69.8323 76.9481C68.4589 76.8889 67.7781 78.2031 68.2043 79.4227Z" fill="#FF8B7B"/>
<path d="M40.5549 234.373C40.5445 234.355 40.5391 234.334 40.5391 234.314C40.5391 234.293 40.5445 234.272 40.5549 234.254C40.5646 234.233 40.5807 234.216 40.6008 234.204C40.621 234.192 40.6442 234.187 40.6674 234.189C40.9101 234.189 43.0354 234.367 43.3847 234.941C43.4165 234.995 43.4332 235.056 43.4332 235.119C43.4332 235.181 43.4165 235.242 43.3847 235.296C43.3467 235.39 43.2854 235.472 43.2067 235.535C43.1279 235.599 43.0343 235.641 42.9348 235.657C42.248 235.776 41.1588 234.911 40.5668 234.385L40.5549 234.373ZM43.142 235.024C42.8933 234.734 41.7981 234.533 40.9693 234.432C41.7922 235.125 42.4908 235.492 42.8756 235.421C42.9411 235.41 43.0029 235.383 43.0547 235.341C43.1066 235.3 43.1469 235.245 43.1716 235.184C43.1835 235.162 43.1897 235.138 43.1897 235.113C43.1897 235.088 43.1835 235.063 43.1716 235.042L43.142 235.024Z" fill="#7933A1"/>
<path d="M40.5564 234.373C40.5476 234.355 40.543 234.336 40.543 234.317C40.543 234.297 40.5476 234.278 40.5564 234.26C40.5919 234.219 41.3379 233.189 42.1134 233.076C42.2243 233.058 42.3378 233.063 42.4468 233.09C42.5558 233.118 42.6579 233.167 42.7468 233.236C43.0014 233.42 43.0014 233.603 42.954 233.722C42.7646 234.225 41.2668 234.515 40.6393 234.438C40.6212 234.435 40.6042 234.427 40.5898 234.416C40.5753 234.404 40.5639 234.39 40.5564 234.373ZM42.6935 233.467C42.6664 233.439 42.6366 233.413 42.6047 233.39C42.5395 233.339 42.4641 233.301 42.3835 233.281C42.3029 233.261 42.219 233.257 42.1371 233.272C41.6186 233.436 41.1664 233.761 40.8465 234.201C41.5273 234.201 42.6225 233.917 42.7172 233.609C42.7409 233.591 42.7587 233.544 42.6935 233.467Z" fill="#7933A1"/>
<path d="M35.5312 233.994L40.1607 235.089L44.6185 224.853L39.989 223.758L35.5312 233.994Z" fill="#FF8B7B"/>
<path d="M40.7047 234.29L36.0042 231.999C35.9234 231.957 35.8297 231.947 35.7419 231.971C35.654 231.995 35.5786 232.052 35.5306 232.129L33.281 235.681C33.2271 235.775 33.1929 235.878 33.1808 235.986C33.1686 236.093 33.1787 236.202 33.2103 236.305C33.242 236.408 33.2946 236.504 33.3648 236.586C33.435 236.668 33.5213 236.735 33.6184 236.782C35.3234 237.575 35.9213 237.706 38.0525 238.748C40.5448 239.961 40.4205 240.66 43.3391 242.087C45.1151 242.945 46.2399 241.329 45.565 240.796C43.7794 239.282 42.4186 237.33 41.6164 235.131C41.4297 234.745 41.104 234.445 40.7047 234.29Z" fill="#263238"/>
<path opacity="0.2" d="M44.6159 224.853L42.1887 230.43L37.6836 229.039L39.9806 223.758L44.6159 224.853Z" fill="black"/>
<path d="M50.4126 181.543C54.0712 160.385 53.5029 140.896 56.5931 136.124L73.3822 135.852C73.3822 135.852 65.0173 169.857 61.0982 183.851C57.0312 198.397 44.7531 228.317 44.7531 228.317L37.3945 226.043C37.3945 226.043 44.6465 197.728 50.4126 181.543Z" fill="#263238"/>
<path opacity="0.2" d="M66.5979 149.675C62.9926 154.411 63.2354 167.672 63.6379 174.456C65.0587 169.046 66.6394 162.865 68.1016 157.058L66.5979 149.675Z" fill="black"/>
<path d="M70.8304 241.021C70.81 241.012 70.7927 240.998 70.7804 240.979C70.7682 240.961 70.7617 240.939 70.7617 240.917C70.7617 240.895 70.7682 240.874 70.7804 240.855C70.7927 240.837 70.81 240.822 70.8304 240.814C71.0435 240.701 72.9142 239.701 73.5003 240.014C73.5563 240.043 73.6042 240.084 73.6395 240.136C73.6747 240.188 73.6961 240.248 73.7016 240.31C73.7201 240.411 73.7124 240.514 73.6792 240.611C73.646 240.707 73.5885 240.793 73.5122 240.861C73.009 241.335 71.6414 241.169 70.8718 241.027L70.8304 241.021ZM73.3346 240.198C72.9734 240.08 71.9552 240.488 71.2152 240.861C72.269 241.021 73.0504 240.962 73.3346 240.695C73.3821 240.649 73.4177 240.592 73.4383 240.529C73.4589 240.466 73.464 240.399 73.453 240.334C73.4529 240.309 73.4456 240.285 73.4319 240.264C73.4183 240.243 73.3988 240.226 73.376 240.216L73.3346 240.198Z" fill="#7933A1"/>
<path d="M70.8315 241.021H70.8019C70.7855 241.01 70.7724 240.995 70.764 240.977C70.7557 240.959 70.7524 240.94 70.7545 240.92C70.7545 240.861 70.8315 239.582 71.4176 239.079C71.497 239.006 71.5905 238.95 71.6922 238.915C71.794 238.879 71.902 238.864 72.0096 238.872C72.3174 238.872 72.4121 239.055 72.4417 239.18C72.5483 239.718 71.4531 240.76 70.8907 241.027C70.8708 241.031 70.8502 241.029 70.8315 241.021ZM72.1339 239.109H72.0214C71.9389 239.101 71.8557 239.111 71.7772 239.137C71.6986 239.164 71.6266 239.207 71.5656 239.263C71.2171 239.679 71.0098 240.195 70.9736 240.737C71.5656 240.376 72.2819 239.553 72.2168 239.233C72.2227 239.168 72.2227 239.168 72.1339 239.109Z" fill="#7933A1"/>
<path d="M65.7891 241.542L70.5369 241.471L70.7382 230.448L65.9963 230.519L65.7891 241.542Z" fill="#FF8B7B"/>
<path d="M70.9035 240.944L65.7235 241.027C65.6323 241.025 65.5439 241.059 65.4766 241.12C65.4094 241.182 65.3685 241.267 65.3624 241.358L65.0132 245.591C65.0066 245.699 65.0225 245.808 65.0599 245.91C65.0973 246.012 65.1553 246.105 65.2304 246.183C65.3054 246.262 65.3958 246.324 65.496 246.365C65.5961 246.407 65.7039 246.428 65.8124 246.426C67.6772 246.367 70.3589 246.213 72.7092 246.177C75.4501 246.136 75.1896 246.248 78.4101 246.177C80.3519 246.148 80.6242 244.17 79.7836 244.005C75.9592 243.247 75.5744 243.205 72.0875 241.275C71.7276 241.066 71.32 240.952 70.9035 240.944Z" fill="#263238"/>
<path opacity="0.2" d="M70.7352 230.448L70.6346 236.131L65.8867 236.208L65.9874 230.525L70.7352 230.448Z" fill="black"/>
<path d="M67.1154 182.881C66.3872 160.71 61.7341 148 62.1603 136.036L81.9864 135.716C81.9864 135.716 80.0032 170.147 78.5528 184.603C77.0491 199.634 72.4138 234.225 72.4138 234.225L64.3626 234.349C64.3626 234.349 65.1203 201.742 67.1154 182.881Z" fill="#263238"/>
<path opacity="0.3" d="M70.996 233.36C70.9766 233.359 70.9576 233.354 70.9402 233.345C70.9228 233.336 70.9074 233.324 70.8947 233.309C70.8821 233.294 70.8725 233.277 70.8665 233.258C70.8605 233.24 70.8583 233.22 70.8599 233.201C71.3986 227.683 72.3872 219.49 73.441 210.823C74.5836 201.351 75.7735 191.559 76.4425 184.591C77.7212 171.277 79.7991 143.045 79.8583 139.836C79.1072 139.687 78.404 139.357 77.8097 138.874C77.2154 138.391 76.7481 137.77 76.4484 137.066C76.4419 137.047 76.4392 137.027 76.4405 137.008C76.4418 136.988 76.447 136.969 76.4558 136.951C76.4647 136.933 76.4769 136.918 76.4919 136.905C76.5069 136.892 76.5243 136.882 76.5431 136.876C76.561 136.87 76.5799 136.867 76.5989 136.868C76.6179 136.869 76.6365 136.874 76.6536 136.882C76.6707 136.89 76.686 136.902 76.6986 136.916C76.7111 136.93 76.7206 136.947 76.7266 136.965C77.0171 137.64 77.4722 138.232 78.0503 138.686C78.6284 139.14 79.3111 139.442 80.0359 139.564C80.0704 139.571 80.1016 139.589 80.1242 139.616C80.1468 139.643 80.1595 139.677 80.1602 139.712C80.1602 142.24 78.0349 171.088 76.7385 184.621C76.0636 191.595 74.8796 201.387 73.7311 210.853C72.6832 219.525 71.6946 227.713 71.1559 233.23C71.1544 233.249 71.1491 233.268 71.1402 233.285C71.1312 233.302 71.1189 233.317 71.104 233.33C71.089 233.342 71.0717 233.351 71.0532 233.356C71.0346 233.361 71.0152 233.363 70.996 233.36Z" fill="white"/>
<path d="M72.9224 235.178L63.3557 235.326L62.9531 232.23L73.6328 231.898L72.9224 235.178Z" fill="#263238"/>
<path d="M45.3089 230.146L36.1211 227.322L36.4941 224.208L46.783 227.198L45.3089 230.146Z" fill="#263238"/>
</svg>
